<svg width="531" height="141" viewBox="0 0 531 141" fill="none" xmlns="http://www.w3.org/2000/svg">
<path d="M114.54 81.0737C115.639 81.111 117.408 81.1482 119.158 81.1482C124.112 81.1482 127.185 78.4665 127.185 74.1459C127.185 69.3597 123.106 67.2367 119.065 67.2367H114.54V81.0737ZM119.102 96.978H106.122V93.1975C106.122 93.1975 109.418 93.1975 109.474 93.1975C109.996 93.1975 110.424 92.7133 110.424 92.2477L110.405 67.2367H106.103V63.4376H118.86C126.179 63.4376 131.319 67.814 131.319 74.09C131.319 80.664 126.496 84.9288 119.065 84.9288C117.445 84.9288 115.657 84.8915 114.54 84.8543C114.54 87.4243 114.54 92.0614 114.54 92.2104C114.54 92.6946 114.912 93.1602 115.49 93.1602H119.084V96.978H119.102ZM45.4104 81.6883H55.3738L50.42 68.2424L45.4104 81.6883ZM104.297 96.978H91.7077V93.1975H95.8979L95.1344 71.5387L85.2082 92.8064H83.2714L73.3638 71.5387L72.6003 93.1975H76.7905V96.978H56.156V93.1975H59.6199L56.7519 85.4316H44.0323L41.1643 93.1975H44.7772V96.978H33.3984V93.1975H36.0057C36.5458 93.1975 37.0113 92.6946 37.1789 92.2477C37.3466 91.8007 46.6395 67.2367 46.6395 67.2367H43.2315V63.4376H50.4014C52.8038 63.4376 53.6605 65.6351 53.9212 66.3428C53.9212 66.3428 63.5867 91.9311 63.717 92.229C63.9405 92.7133 64.313 93.1788 64.9089 93.1788H67.7024C68.2797 93.1788 68.6335 92.6946 68.6522 92.229C68.6708 91.8007 69.6578 70.0116 69.7882 67.2181H65.3745V63.4189H71.7995C73.3638 63.4189 74.3323 64.3129 75.2262 66.3242C76.1387 68.3355 84.277 86.1206 84.277 86.1206C84.277 86.1206 92.5458 68.1492 93.3838 66.3242C94.2963 64.3129 95.0971 63.4189 96.6801 63.4189H103.161V67.2181H98.7473L99.846 92.229C99.8647 92.6946 100.312 93.1975 100.796 93.1975H104.297V96.978Z" fill="white"/>
<path d="M497.265 95.7862V91.7636H493.466C493.038 91.7636 492.703 91.4284 492.703 91V76.325C492.703 73.9784 492.237 71.9671 491.287 70.3469C489.872 68.0563 487.395 66.6595 483.689 66.6595C479.592 66.6595 475.625 69.3413 472.943 72.5072V67.9631C472.943 67.5348 472.608 67.1996 472.18 67.1996H463.967V71.2967H468.53V91.0187C468.53 91.447 468.194 91.7822 467.766 91.7822H463.967V95.7862H477.674V91.7636H473.186V75.9897C475.737 73.1776 479.033 70.9615 482.59 70.9615C484.937 70.9615 486.557 71.7623 487.358 73.4384C487.898 74.444 488.103 75.729 488.103 77.2747V91.7822H483.596V95.7862H497.265ZM462.533 81.4836C462.533 73.3639 456.685 66.6409 447.821 66.6409C438.956 66.6409 433.108 73.4197 433.108 81.4836C433.108 89.6778 438.882 96.3263 447.821 96.3263C456.685 96.3263 462.533 89.6033 462.533 81.4836ZM457.691 81.4836C457.691 87.8714 453.668 92.3037 447.821 92.3037C441.973 92.3037 437.95 87.8714 437.95 81.4836C437.95 75.1703 441.973 70.6635 447.821 70.6635C453.668 70.6635 457.691 75.1703 457.691 81.4836ZM418.918 95.7862H432.959V91.7636H428.9C428.471 91.7636 428.136 91.4284 428.136 91V67.9445C428.136 67.5162 427.801 67.181 427.372 67.181H418.936V71.2781H423.517V91C423.517 91.4284 423.164 91.7636 422.754 91.7636H418.955V95.7862H418.918ZM428.378 58.4839C428.378 56.7333 426.925 55.2249 425.231 55.2249C423.48 55.2249 421.972 56.7333 421.972 58.4839C421.972 60.2345 423.424 61.6871 425.175 61.6871C426.851 61.6871 428.378 60.2345 428.378 58.4839ZM407.204 88.3369V71.2781H415.23V67.181H407.967C407.539 67.181 407.204 66.8458 407.204 66.4174V56.6589L402.641 58.4653V66.4174C402.641 66.8458 402.306 67.181 401.877 67.181H397.333V71.2781H402.641V89.0074C402.641 90.5531 402.846 91.894 403.386 92.9741C404.522 95.1903 406.682 96.3263 409.699 96.3263C412.306 96.3263 414.336 95.5255 415.807 94.7061L416.403 90.2737C414.783 91.2235 412.716 92.0243 411.04 92.0243C409.289 92.0243 408.228 91.5587 407.688 90.5531C407.334 89.9385 407.204 89.2681 407.204 88.3369ZM399.158 91.745H395.285C394.856 91.745 394.521 91.4098 394.521 90.9814V76.176C394.521 73.755 393.851 71.6133 392.379 69.9931C390.498 67.9073 387.407 66.6409 383.18 66.6409C376.01 66.6409 372.229 70.3283 372.602 73.755C372.769 75.2821 373.998 76.3808 375.525 76.3808C377.332 76.3808 378.542 75.1145 378.542 73.4197C378.542 72.8238 378.338 72.2092 378.133 71.7437C379.064 71.1477 380.274 70.5331 382.565 70.5331C385.452 70.5331 387.537 71.4084 388.804 72.8052C389.605 73.8108 390.089 75.2262 390.089 76.8278V80.7945C388.618 80.2545 384.912 79.4537 381.82 79.4537C375.451 79.4537 370.814 82.8803 370.814 88.1134C370.814 93.0114 374.781 96.3077 380.274 96.3077C384.167 96.3077 387.873 94.4267 390.219 92.1361V95.7862H399.158V91.745ZM390.107 88.5977C387.891 90.8138 384.93 92.5644 381.503 92.5644C377.611 92.5644 375.525 90.5531 375.525 87.7969C375.525 84.8358 377.816 82.6941 382.379 82.6941C385.135 82.6941 387.947 83.2342 390.107 83.8301V88.5977ZM359.789 95.6931H368.914V91.6705H365.041C364.612 91.6705 364.277 91.3353 364.277 90.9069V47.2914C364.277 46.863 363.942 46.5278 363.513 46.5278H354.276V50.5504H359.64V69.9558C357.424 67.87 354.332 66.5292 350.775 66.5292C342.19 66.5292 336.603 73.4384 336.603 81.5767C336.603 90.311 342.581 96.2145 350.161 96.2145C354.388 96.2145 357.349 94.3336 359.77 91.6519V95.6931H359.789ZM359.658 87.89C357.368 90.311 354.556 92.1919 350.868 92.1919C345.43 92.1919 341.389 87.89 341.464 81.5208C341.464 75.2076 345.43 70.5704 351.073 70.5704C354.835 70.5704 357.517 72.0416 359.677 73.8667V87.89H359.658ZM336.789 91.745H332.99C332.562 91.745 332.226 91.4098 332.226 90.9814V76.3063C332.226 73.9598 331.761 71.9485 330.811 70.3283C329.396 68.0376 326.919 66.6409 323.231 66.6409C319.134 66.6409 315.168 69.3226 312.486 72.4886V67.9445C312.486 67.5162 312.132 67.181 311.722 67.181H303.975V71.2781H308.072V91C308.072 91.4284 307.718 91.7636 307.309 91.7636H303.994V95.7862H317.216V91.7636H312.728V75.9897C315.279 73.1776 318.576 70.9615 322.133 70.9615C324.479 70.9615 326.099 71.7623 326.9 73.4384C327.44 74.444 327.645 75.729 327.645 77.2747V91.7822H323.362V95.7862H336.845V91.745H336.789ZM293.304 95.7862H301.312V91.7636H298.574C298.146 91.7636 297.811 91.4284 297.811 91V67.9445C297.811 67.5162 297.476 67.181 297.047 67.181H288.685V71.2781H293.192V86.9961C290.511 89.7523 287.345 92.0243 283.788 92.0243C281.441 92.0243 279.97 91.2794 279.094 89.6033C278.554 88.6721 278.294 87.3871 278.294 85.7855V67.9445C278.294 67.5162 277.958 67.181 277.53 67.181H269.615V71.2781H273.656V86.6608C273.656 88.9515 274.122 90.9628 274.997 92.5085C276.413 94.9295 278.89 96.3449 282.652 96.3449C286.749 96.3449 290.641 93.6632 293.323 90.4972V95.7862H293.304ZM269.001 81.4836C269.001 73.3639 263.153 66.6409 254.288 66.6409C245.424 66.6409 239.576 73.4197 239.576 81.4836C239.576 89.6778 245.349 96.3263 254.288 96.3263C263.153 96.3263 269.001 89.6033 269.001 81.4836ZM264.159 81.4836C264.159 87.8714 260.136 92.3037 254.288 92.3037C248.441 92.3037 244.418 87.8714 244.418 81.4836C244.418 75.1703 248.441 70.6635 254.288 70.6635C260.136 70.6635 264.159 75.1703 264.159 81.4836ZM244.064 55.2062H248.087V47.31C248.087 46.8817 247.752 46.5465 247.323 46.5465H212.274V51.1836H219.165V61.7989L219.146 63.5867V91.6891C219.072 92.0429 218.774 92.3037 218.401 92.3037H218.364H217.154H214.491V96.3263H217.154H228.421H229.333V92.3037H224.528C224.1 92.3037 223.765 91.9685 223.765 91.5401V71.8181H238.719V67.721H224.528C224.1 67.721 223.765 67.3858 223.765 66.9575V64.015H223.784V51.165H244.064V55.2062Z" fill="white"/>
<path d="M177.329 77.0577C177.458 76.6545 177.689 76.0498 177.991 75.4307C178.077 75.2867 178.164 75.1427 178.236 74.9987C187.58 73.0982 195.729 74.3796 198.537 74.8691C202.396 75.5315 202.324 72.3639 199.646 71.8167C196.953 71.2696 195.125 71.1544 189.985 71.1544C186.702 71.1544 183.678 71.428 181.029 71.8023C183.145 70.0746 185.219 68.7787 187.551 67.8429C189.97 66.8638 192.677 66.2303 196.003 65.8415C198.796 65.568 199.386 64.5457 199.214 63.725C199.055 62.8899 198.105 62.1844 196.104 62.4004C193.095 62.6595 190.244 63.2931 187.551 64.3729C184.888 65.4384 182.397 66.9358 180.151 68.9227C179.028 69.9162 177.991 71.1544 177.127 72.5079C173.096 73.3573 170.374 74.3796 169.799 74.5956C169.928 73.7317 170.072 72.8678 170.202 72.0327C179.776 68.5628 184.456 60.543 187.652 54.9278C190.488 49.9316 192.663 43.0349 192.346 39.1474C192.173 36.7141 190.949 36.095 189.164 36.6853C178.049 40.688 170.994 51.0115 167.812 68.2604C167.351 67.6989 166.156 65.7407 165.954 65.3952C165.983 65.3376 165.997 65.28 166.012 65.2224C167.495 60.7302 168.416 56.4684 168.416 53.5455C168.416 48.103 166.487 43.6684 163.363 37.578C162.513 35.8071 160.699 36.311 160.339 37.722C157.978 45.7418 157.891 51.9042 158.856 55.8636C159.633 59.1176 161.433 62.6883 163.19 65.6256C162.916 66.4894 162.599 67.3101 162.283 68.0444C161.707 67.123 161.059 66.2159 160.368 65.3088C157.675 61.7813 150.332 52.7248 149.641 51.861C149.641 51.861 149.569 51.7602 149.512 51.7026C148.317 50.3204 146.862 51.1554 146.805 52.5377C146.747 54.3518 149.051 61.3061 150.433 64.6321C153.37 71.6872 155.76 75.3011 158.165 75.1859C159.389 75.1283 160.584 74.4084 161.692 73.2422C161.865 73.7173 162.009 74.1492 162.096 74.5668C161.678 76.3665 158.323 78.3391 153.615 77.6912C150.923 77.4464 147.928 75.9634 145.552 74.4516C143.191 72.9686 141.996 71.8887 141.521 71.5144C139.303 69.657 136.51 72.5654 139.39 74.61C142.86 77.3024 148.936 79.8509 153.399 80.2252C156.25 80.47 159.403 80.0525 161.692 78.5551L161.721 78.5263C162.729 77.8927 163.766 76.8417 164.226 75.7042C164.831 74.2212 164.5 72.4503 163.665 70.5641C164.082 69.8586 164.471 69.0811 164.846 68.246C165.911 69.8586 166.818 71.0968 167.264 71.6872C167.207 72.0615 166.833 74.7252 166.674 76.5249C166.516 78.3103 168.215 78.1087 169.439 77.7056C171.627 77.0001 173.585 76.2226 175.543 75.661C175.313 76.2658 175.126 76.8705 174.967 77.4752C170.562 78.5695 168.416 81.1323 170.691 85.7397C171.325 87.0068 172.232 88.1442 173.441 89.5552C173.628 89.7568 174.276 90.5775 175.14 91.6717C173.398 90.6927 171.526 89.7424 169.626 88.8785C168.747 82.5433 166.516 75.4595 154.076 84.3287C148.201 83.652 141.679 83.9399 136.813 85.9413C132.911 87.4531 133.962 91.1966 138.137 89.5264C142.586 87.6979 146.733 86.8772 150.764 86.906C147.467 89.8 144.674 93.2267 143.436 95.9336C142.37 98.2661 143.004 99.4179 146.157 98.7556C152.751 97.3734 156.207 93.6587 160.325 89.7712C160.512 89.5984 160.656 89.4688 160.771 89.3536C160.541 90.8367 160.397 92.5644 160.325 94.465C160.209 98.3093 161.131 103.752 162.844 106.387C163.607 107.481 164.73 107.697 166.257 106.041C168.661 103.449 170.23 97.7046 170 92.3197C173.254 94.0186 176.263 96.3223 179.776 100.195C181.821 102.571 184.153 101.419 183.419 98.914C183.39 98.77 183.318 98.6116 183.246 98.4389C182.8 97.0422 181.706 95.3145 180.251 93.2411C179.647 92.3916 175.443 87.4387 174.564 86.3444C173.312 84.775 171.814 82.7305 173.686 80.9307C173.974 80.8012 174.291 80.686 174.622 80.5852C174.895 87.0499 182.526 87.6979 185.982 87.0643C186.529 87.6403 187.076 88.2162 187.609 88.7921C189.149 90.4623 190.733 92.3629 194.506 96.4663C197.371 99.2883 199.79 96.4231 196.968 93.6299C194.707 91.3118 191.64 88.3746 189.149 86.2149C191.813 85.2502 194.506 83.7096 197.025 81.9674C198.422 80.9595 198.508 79.4189 195.47 78.7566C191.669 77.8496 183.75 76.3234 177.343 77.0721M158.496 72.0183C156.984 72.0183 154.997 67.9005 153.154 63.6242C152.247 61.5221 151.628 59.6503 151.268 58.5273C153.183 60.8454 155.199 63.2787 156.092 64.3873C158.179 66.9358 159.619 69.0667 160.584 70.8521C159.936 71.5864 159.245 72.0183 158.496 72.0183ZM162.168 42.1134C164.126 46.2889 165.162 49.6868 165.162 53.8047C165.148 56.0796 164.788 59.1032 164.14 62.0404C163.895 61.4789 162.398 58.5993 161.736 55.8348C160.713 51.5874 160.886 47.3687 162.168 42.1278M166.732 87.6691C164.759 86.8772 162.83 86.1861 161.116 85.7109C160.209 85.4662 159.245 85.2358 158.237 85.0198C162.671 82.1258 165.695 81.4059 166.732 87.6835M147.15 95.5304C149.209 92.5068 152.118 89.5264 154.983 87.3091C156.12 87.4819 157.258 87.7411 158.395 88.0434C153.356 93.5003 149.584 94.9257 147.15 95.5304ZM164.831 102.686C164.774 102.514 164.414 101.534 164.068 100.339C163.895 99.7779 163.737 99.13 163.593 98.4677C163.003 95.7608 162.83 92.7516 163.507 89.6848C164.788 90.1167 165.969 90.5487 167.106 91.0238C167.336 95.0985 166.861 99.7203 164.831 102.701M189.077 40.2849C189.164 41.4511 188.847 43.3805 187.969 45.9865C185.435 53.4879 179.906 64.7905 170.864 68.5916C174.046 53.8335 180.626 44.158 189.077 40.2849ZM193.051 80.9164C190.834 82.3994 188.631 83.4936 186.543 84.0695C186.428 83.9688 185.017 82.8889 184.326 82.3994C183.808 82.0394 183.304 81.6795 182.757 81.3483C182.57 81.2331 182.382 81.1323 182.195 81.0459C181.922 80.9308 181.562 80.8732 181.288 81.0315C180.957 81.2475 181.015 81.6363 181.187 81.9386C181.317 82.1258 181.447 82.2842 181.59 82.457C182.037 82.9897 182.541 83.4936 183.03 83.9975C183.491 84.4727 183.621 84.6023 183.621 84.6023C181.144 84.7462 177.113 83.7096 176.969 80.0237C181.562 79.275 188.113 79.8797 193.051 80.9164Z" fill="white"/>
<path d="M170.879 49.846C170.951 50.1916 171.181 50.3212 171.296 50.35C171.469 50.3931 171.815 50.3931 172.045 49.99C172.117 49.8748 172.175 49.7164 172.232 49.5293C172.376 49.1837 172.506 48.6654 172.664 48.0463C172.981 46.8368 173.37 45.2098 173.744 43.5396C174.449 40.3865 175.169 37.1325 175.357 36.3694C176.177 32.6547 172.002 32.3667 171.8 36.1102C171.671 37.6076 171.339 40.7608 171.095 43.8852C170.965 45.4546 170.864 46.9376 170.821 48.0319C170.792 48.5934 170.792 49.0541 170.821 49.3853C170.821 49.5725 170.85 49.7308 170.879 49.8316" fill="#FE6D12"/>
<path d="M141.938 67.1237C145.509 69.1682 148.489 71.5007 149.641 72.4078C150.231 72.8829 150.505 73.0557 150.822 72.7677C151.326 72.307 150.39 71.2128 150.044 70.7664C148.662 68.9522 143.666 62.8186 136.525 60.4142C133.559 59.4783 131.845 62.7467 134.437 63.7257C135.905 64.3305 138.958 65.2951 141.924 67.1237" fill="#FE6D12"/>
<path fill-rule="evenodd" clip-rule="evenodd" d="M189.152 86.2138L186.55 84.0678C186.548 84.0684 186.545 84.0691 186.543 84.0697C186.428 83.9689 185.017 82.889 184.326 82.3995C184.25 82.3471 184.175 82.2947 184.1 82.2423C183.66 81.9353 183.224 81.6314 182.756 81.3485C182.569 81.2333 182.382 81.1325 182.195 81.0461C181.921 80.9309 181.561 80.8733 181.288 81.0317C180.957 81.2477 181.014 81.6364 181.187 81.9388C181.317 82.1259 181.446 82.2843 181.59 82.4571C181.972 82.9132 182.397 83.3482 182.818 83.7801C182.889 83.8527 182.96 83.9252 183.03 83.9977C183.206 84.1795 183.334 84.3108 183.425 84.4035L183.425 84.4037L183.624 84.6029L185.981 87.0646C185.981 87.0646 185.981 87.0645 185.982 87.0645C186.529 87.6404 187.076 88.2163 187.609 88.7923C188.224 89.4597 188.847 90.1639 189.613 91.0307C190.764 92.3331 192.24 94.0027 194.505 96.4665C197.37 99.2885 199.789 96.4233 196.967 93.63C194.707 91.3119 191.64 88.3747 189.149 86.215C189.15 86.2146 189.151 86.2142 189.152 86.2138Z" fill="#FE6D12"/>
</svg>
