<?xml version="1.0" encoding="utf-8" ?>
<svg xmlns="http://www.w3.org/2000/svg" xmlns:xlink="http://www.w3.org/1999/xlink" width="330" height="91">
	<path fill="white" transform="translate(112.232 1.51061)" d="M71.761124 56.032986C70.371117 59.68837 68.147919 63.251694 65.082092 66.706711C59.395348 61.479507 53.345936 57.447754 46.951382 54.631752C40.599968 51.821171 34.251251 50.429417 27.916016 50.429417C24.966135 50.429417 22.36544 50.651447 20.13685 51.11311C17.889385 51.558521 15.811795 52.262524 13.958008 53.240002C13.521189 51.603199 13.215145 50.04763 12.989994 48.546215C12.768888 47.081352 12.685299 45.662521 12.685299 44.339817C12.685299 39.995323 13.480742 35.834953 15.106683 31.845169C16.68948 27.859446 19.013792 24.315077 22.029736 21.21883C24.829966 18.335138 28.022526 16.125662 31.641117 14.618831C35.243534 13.114708 39.037392 12.311877 43.029438 12.311877C47.521671 12.311877 51.624271 13.159385 55.292747 14.816492C58.953136 16.479015 62.372196 19.048615 65.540489 22.502277C68.251732 25.426584 70.322586 28.700184 71.742249 32.310894C73.14843 35.899937 73.864326 39.686646 73.864326 43.607384C73.864326 48.236183 73.14843 52.399261 71.761124 56.032986M49.507584 75.673233C47.521671 76.098335 45.604519 76.313599 43.735901 76.313599C38.623493 76.313599 33.849483 75.116798 29.443537 72.777351C25.010626 70.381042 21.281479 67.01403 18.260143 62.634338C19.585432 62.210583 20.930944 61.876186 22.292637 61.67717C23.663765 61.479507 25.115786 61.344124 26.579941 61.344124C31.734144 61.344124 36.812847 62.410954 41.790436 64.491814C46.773415 66.617355 51.428783 69.651321 55.768665 73.635689C53.567043 74.541412 51.469227 75.229172 49.507584 75.673233M80.676826 74.984123C79.089989 74.640244 77.516624 74.102768 76.013374 73.393356C79.591522 69.314217 82.243446 64.914215 83.998817 60.192001C85.715088 55.475201 86.610298 50.318401 86.610298 44.758152C86.610298 38.359879 85.499374 32.463879 83.320663 27.063385C81.136566 21.616861 77.876602 16.768738 73.511101 12.445908C69.337044 8.3058462 64.707291 5.181169 59.660946 3.1003077C54.584938 1.0208 49.093685 0 43.15617 0C37.380444 0 31.975473 1.0208 26.968225 3.1003077C21.948843 5.181169 17.354147 8.2855387 13.255591 12.311877C8.9332333 16.696985 5.6206837 21.526154 3.3718708 26.838646C1.1311474 32.180923 0 37.802094 0 43.718399C0 50.891075 1.4048338 57.537109 4.2158499 63.602337C7.0376511 69.693291 11.087671 74.898834 16.341642 79.15126C20.13685 82.205536 24.32304 84.52874 28.8692 86.127632C33.434235 87.718399 38.177235 88.518524 43.15617 88.518524C47.461002 88.518524 51.583828 87.943138 55.504417 86.769356C59.439838 85.617233 63.179771 83.865356 66.712082 81.58683C70.086647 83.4944 73.414024 84.9552 76.655121 85.948921C79.92318 86.90609 83.121132 87.393478 86.248978 87.393478L87.361252 87.393478L87.361252 75.498581L85.787888 75.498581C83.979942 75.498581 82.258278 75.342896 80.676826 74.984123" fill-rule="evenodd"/>
	<path fill="white" transform="translate(206.647 2.83995)" d="M45.340271 71.175751C42.651939 73.328369 38.44418 74.410095 32.729122 74.410095L12.148712 74.410095L12.148712 46.329967L32.729122 46.329967C38.223076 46.329967 42.363426 47.614769 45.185226 50.118031C47.990849 52.644306 49.401077 56.340309 49.401077 61.211445C49.401077 65.730583 48.054214 69.032616 45.340271 71.175751L45.340271 71.175751ZM12.260613 11.713477L29.72801 11.713477C34.821545 11.713477 38.612705 12.670646 41.109589 14.597169C43.576813 16.51963 44.809074 19.448 44.809074 23.4256C44.809074 27.947447 43.448734 31.177723 40.737484 33.129971C37.975002 35.079506 33.412666 36.052921 27.008671 36.052921L12.260613 36.052921L12.260613 11.713477ZM48.013767 39.732677C51.012184 37.955078 53.267738 35.702278 54.850536 32.998646C56.398281 30.274708 57.161366 27.152739 57.161366 23.585354C57.161366 15.904984 54.781776 10.052308 50.040127 6.0219078C45.272861 2.015877 38.347111 0 29.179289 0L0 0L0 86.039627L30.538282 86.039627C36.494671 86.039627 41.132511 85.577972 44.392479 84.619446C47.660538 83.670403 50.607723 82.09317 53.194935 79.905357C55.822594 77.580803 57.893444 74.633476 59.371082 71.132431C60.84737 67.612434 61.598324 63.829784 61.598324 59.81834C61.598324 54.8592 60.403809 50.581047 57.937935 46.993355C55.534081 43.407017 52.197262 40.994461 48.013767 39.732677L48.013767 39.732677Z" fill-rule="evenodd"/>
	<path fill="white" transform="translate(274.718 2.88625)" d="M54.211487 11.488738L54.211487 0L0 0L0 86.038277L54.211487 86.038277L54.211487 74.169106L12.419702 74.169106L12.419702 48.389168L51.176666 48.389168L51.176666 37.210461L12.419702 37.210461L12.419702 11.488738L54.211487 11.488738Z" fill-rule="evenodd"/>
	<path fill="#009AE4" transform="translate(1.60645 2.7122)" d="M32.660847 67.719872L44.595196 46.946461L37.695061 34.986584L22.336264 61.716919C20.684708 64.57489 21.655416 68.249229 24.50688 69.890091C27.371824 71.57563 31.003899 70.576492 32.660847 67.719872L32.660847 67.719872ZM19.39447 60.055752L26.442907 47.830521C16.166859 48.094521 7.9158192 56.553352 7.9158192 66.923813C7.9158192 77.487877 16.458071 86.052307 26.974102 86.052307L66.097778 86.052307C74.39196 86.052307 81.466019 80.719505 84.05188 73.255753C78.227615 76.199013 71.593079 76.312737 65.851059 74.072121L27.611805 74.072121C26.000694 74.097847 24.324871 73.697105 22.822966 72.8144C20.59977 71.528244 19.124828 69.44603 18.487125 67.141785C17.888521 64.83889 18.124458 62.293659 19.39447 60.055752L19.39447 60.055752ZM35.090321 23.69009L47.021969 44.420181L60.80471 44.420181L45.410862 17.691198C43.776833 14.835936 40.113747 13.858459 37.291946 15.495259C34.427002 17.159136 33.432022 20.813168 35.090321 23.69009L35.090321 23.69009ZM48.31625 15.985352L55.335026 28.209229C60.229027 19.131689 57.076912 7.7458439 48.122108 2.5619669C39.010914 -2.7126179 27.371824 0.41747451 22.123245 9.5613518L2.5620809 43.579445C-1.6065814 50.796799 -0.52262139 59.610336 4.6113586 65.639015C5.014473 59.056614 8.185461 53.232368 12.995871 49.379322L32.133698 16.116674C32.90757 14.697844 34.080513 13.459075 35.595898 12.575013C37.820442 11.291567 40.380692 11.024859 42.671299 11.642213C44.963257 12.264982 47.021969 13.744736 48.31625 15.985352L48.31625 15.985352ZM71.829018 47.808861L47.969761 47.808861L41.088501 59.790398L71.829018 59.790398C75.141563 59.790398 77.785408 57.109783 77.785408 53.813168C77.785408 50.490829 75.141563 47.808861 71.829018 47.808861L71.829018 47.808861ZM71.872162 63.156059C74.432411 63.156059 76.748634 62.094643 78.448723 60.411812C80.120506 58.727627 81.159973 56.378704 81.159973 53.813168C81.159973 52.038273 80.698883 50.401474 79.853554 49.005661L60.734604 15.766028C59.786816 9.6520596 56.394718 3.9361207 50.919643 0.34707451C58.644882 -1.1353871 66.798851 2.3439975 70.947289 9.5613518L90.509804 43.579445C95.781296 52.72332 92.650757 64.419197 83.539558 69.71138C74.569923 74.896614 63.182953 71.945229 57.806293 63.156059L71.872162 63.156059Z" fill-rule="evenodd"/>
</svg>
