<svg xmlns="http://www.w3.org/2000/svg" viewBox="0 0 1680 940" width="1680" height="940" font-family="'Helvetica Neue', Helvetica, Arial, sans-serif">
<defs><filter id="sh" x="-8%" y="-8%" width="116%" height="124%">
<feDropShadow dx="0" dy="3" stdDeviation="6" flood-color="#5A4A38" flood-opacity="0.10"/></filter></defs>
<rect width="1680" height="940" fill="#FBFAF5"/>
<text x="840.0" y="74" text-anchor="middle" font-family="Georgia, 'Times New Roman', serif" font-size="50" font-weight="700" fill="#2A241E">Turn the dials</text>
<text x="840.0" y="110" text-anchor="middle" font-family="Georgia, 'Times New Roman', serif" font-size="20" font-weight="400" fill="#6F6155" font-style="italic">Change the four inputs and the financial model recomputes unit cost, P&amp;L and cashflow. One engine, four levers, three answers.</text>
<rect x="80" y="210" width="320" height="116" rx="16" fill="#FFFFFF" stroke="#C2A55E" stroke-width="1.8" filter="url(#sh)"/><rect x="80" y="210" width="10" height="116" rx="16" fill="#C2A55E"/><rect x="85" y="210" width="6" height="116" rx="0" fill="#C2A55E"/><circle cx="130" cy="268.0" r="22" fill="#C2A55E2D" stroke="#C2A55E" stroke-width="2"/><line x1="130" y1="268.0" x2="143" y2="255.0" stroke="#8F7A45" stroke-width="3" stroke-linecap="round"/><circle cx="130" cy="268.0" r="3.5" fill="#8F7A45"/><text x="172" y="262.0" text-anchor="start" font-family="Georgia, 'Times New Roman', serif" font-size="22" font-weight="700" fill="#2A241E">Volume</text><text x="172" y="286.0" text-anchor="start" font-family="'Helvetica Neue', Helvetica, Arial, sans-serif" font-size="13" font-weight="400" fill="#6F6155" font-style="italic">beds per year</text>
<rect x="80" y="364" width="320" height="116" rx="16" fill="#FFFFFF" stroke="#4C9B97" stroke-width="1.8" filter="url(#sh)"/><rect x="80" y="364" width="10" height="116" rx="16" fill="#4C9B97"/><rect x="85" y="364" width="6" height="116" rx="0" fill="#4C9B97"/><circle cx="130" cy="422.0" r="22" fill="#4C9B972D" stroke="#4C9B97" stroke-width="2"/><line x1="130" y1="422.0" x2="143" y2="409.0" stroke="#38726F" stroke-width="3" stroke-linecap="round"/><circle cx="130" cy="422.0" r="3.5" fill="#38726F"/><text x="172" y="416.0" text-anchor="start" font-family="Georgia, 'Times New Roman', serif" font-size="22" font-weight="700" fill="#2A241E">Method</text><text x="172" y="440.0" text-anchor="start" font-family="'Helvetica Neue', Helvetica, Arial, sans-serif" font-size="13" font-weight="400" fill="#6F6155" font-style="italic">Buy-Kit / Factory / Community</text>
<rect x="80" y="518" width="320" height="116" rx="16" fill="#FFFFFF" stroke="#8A5A45" stroke-width="1.8" filter="url(#sh)"/><rect x="80" y="518" width="10" height="116" rx="16" fill="#8A5A45"/><rect x="85" y="518" width="6" height="116" rx="0" fill="#8A5A45"/><circle cx="130" cy="576.0" r="22" fill="#8A5A452D" stroke="#8A5A45" stroke-width="2"/><line x1="130" y1="576.0" x2="143" y2="563.0" stroke="#664233" stroke-width="3" stroke-linecap="round"/><circle cx="130" cy="576.0" r="3.5" fill="#664233"/><text x="172" y="570.0" text-anchor="start" font-family="Georgia, 'Times New Roman', serif" font-size="22" font-weight="700" fill="#2A241E">Founder time</text><text x="172" y="594.0" text-anchor="start" font-family="'Helvetica Neue', Helvetica, Arial, sans-serif" font-size="13" font-weight="400" fill="#6F6155" font-style="italic">FTE % + fair-market rate</text>
<rect x="80" y="672" width="320" height="116" rx="16" fill="#FFFFFF" stroke="#6F9C68" stroke-width="1.8" filter="url(#sh)"/><rect x="80" y="672" width="10" height="116" rx="16" fill="#6F9C68"/><rect x="85" y="672" width="6" height="116" rx="0" fill="#6F9C68"/><circle cx="130" cy="730.0" r="22" fill="#6F9C682D" stroke="#6F9C68" stroke-width="2"/><line x1="130" y1="730.0" x2="143" y2="717.0" stroke="#52734C" stroke-width="3" stroke-linecap="round"/><circle cx="130" cy="730.0" r="3.5" fill="#52734C"/><text x="172" y="724.0" text-anchor="start" font-family="Georgia, 'Times New Roman', serif" font-size="22" font-weight="700" fill="#2A241E">Opening cash</text><text x="172" y="748.0" text-anchor="start" font-family="'Helvetica Neue', Helvetica, Arial, sans-serif" font-size="13" font-weight="400" fill="#6F6155" font-style="italic">starting bank balance</text>
<rect x="660.0" y="350.0" width="360" height="300" rx="22" fill="#FFFFFF" stroke="#BD6A3C" stroke-width="2.4" filter="url(#sh)"/>
<rect x="660.0" y="350.0" width="360" height="10" rx="22" fill="#BD6A3C"/>
<rect x="665.0" y="350.0" width="350" height="6" rx="0" fill="#BD6A3C"/>
<path d="M 866.3 480.0 L 856.2 493.5 L 858.2 510.2 L 842.8 516.8 L 836.2 532.2 L 819.5 530.2 L 806.0 540.3 L 792.5 530.2 L 775.8 532.2 L 769.2 516.8 L 753.8 510.2 L 755.8 493.5 L 745.7 480.0 L 755.8 466.5 L 753.8 449.8 L 769.2 443.2 L 775.8 427.8 L 792.5 429.8 L 806.0 419.7 L 819.5 429.8 L 836.2 427.8 L 842.8 443.2 L 858.2 449.8 L 856.2 466.5 Z" fill="#C2A55E" stroke="#8F7A45" stroke-width="1.4"/><circle cx="806.0" cy="480.0" r="37.4" fill="#FBFAF5" stroke="#8F7A45" stroke-width="1.4"/>
<path d="M 928.1 510.0 L 920.1 521.7 L 919.7 535.9 L 906.3 540.7 L 897.6 551.9 L 884.0 548.0 L 870.4 551.9 L 861.7 540.7 L 848.3 535.9 L 847.9 521.7 L 839.9 510.0 L 847.9 498.3 L 848.3 484.1 L 861.7 479.3 L 870.4 468.1 L 884.0 472.0 L 897.6 468.1 L 906.3 479.3 L 919.7 484.1 L 920.1 498.3 Z" fill="#4C9B97" stroke="#38726F" stroke-width="1.4"/><circle cx="884.0" cy="510.0" r="27.4" fill="#FBFAF5" stroke="#38726F" stroke-width="1.4"/>
<text x="840.0" y="586.0" text-anchor="middle" font-family="Georgia, 'Times New Roman', serif" font-size="26" font-weight="700" fill="#2A241E">Financial model</text>
<text x="840.0" y="612.0" text-anchor="middle" font-family="'Helvetica Neue', Helvetica, Arial, sans-serif" font-size="13.5" font-weight="400" fill="#6F6155" font-style="italic">one engine, recomputed live</text>
<rect x="1280" y="250" width="320" height="130" rx="16" fill="#FFFFFF" stroke="#6F9C68" stroke-width="1.8" filter="url(#sh)"/><rect x="1280" y="250" width="320" height="10" rx="16" fill="#6F9C68"/><rect x="1280" y="255" width="320" height="6" rx="0" fill="#6F9C68"/><text x="1440.0" y="311.0" text-anchor="middle" font-family="Georgia, 'Times New Roman', serif" font-size="24" font-weight="700" fill="#2A241E">Unit cost</text><text x="1440.0" y="337.0" text-anchor="middle" font-family="'Helvetica Neue', Helvetica, Arial, sans-serif" font-size="13" font-weight="400" fill="#6F6155" font-style="italic">AU$ per bed by method + volume</text>
<rect x="1280" y="436" width="320" height="130" rx="16" fill="#FFFFFF" stroke="#C2A55E" stroke-width="1.8" filter="url(#sh)"/><rect x="1280" y="436" width="320" height="10" rx="16" fill="#C2A55E"/><rect x="1280" y="441" width="320" height="6" rx="0" fill="#C2A55E"/><text x="1440.0" y="497.0" text-anchor="middle" font-family="Georgia, 'Times New Roman', serif" font-size="24" font-weight="700" fill="#2A241E">P&amp;L</text><text x="1440.0" y="523.0" text-anchor="middle" font-family="'Helvetica Neue', Helvetica, Arial, sans-serif" font-size="13" font-weight="400" fill="#6F6155" font-style="italic">operating result by scenario</text>
<rect x="1280" y="622" width="320" height="130" rx="16" fill="#FFFFFF" stroke="#4C9B97" stroke-width="1.8" filter="url(#sh)"/><rect x="1280" y="622" width="320" height="10" rx="16" fill="#4C9B97"/><rect x="1280" y="627" width="320" height="6" rx="0" fill="#4C9B97"/><text x="1440.0" y="683.0" text-anchor="middle" font-family="Georgia, 'Times New Roman', serif" font-size="24" font-weight="700" fill="#2A241E">Cashflow</text><text x="1440.0" y="709.0" text-anchor="middle" font-family="'Helvetica Neue', Helvetica, Arial, sans-serif" font-size="13" font-weight="400" fill="#6F6155" font-style="italic">36-month runway + trough</text>
<path d="M 408.0 268.0 L 656.0 400.0" fill="none" stroke="#C2A55E" stroke-width="2.2" stroke-linecap="round"/><path d="M 645.0 399.2 L 656.0 400.0 L 649.2 391.3" fill="none" stroke="#C2A55E" stroke-width="2.2" stroke-linecap="round" stroke-linejoin="round"/>
<path d="M 408.0 422.0 L 656.0 466.7" fill="none" stroke="#4C9B97" stroke-width="2.2" stroke-linecap="round"/><path d="M 645.3 469.3 L 656.0 466.7 L 646.9 460.5" fill="none" stroke="#4C9B97" stroke-width="2.2" stroke-linecap="round" stroke-linejoin="round"/>
<path d="M 408.0 576.0 L 656.0 533.3" fill="none" stroke="#8A5A45" stroke-width="2.2" stroke-linecap="round"/><path d="M 646.9 539.5 L 656.0 533.3 L 645.3 530.6" fill="none" stroke="#8A5A45" stroke-width="2.2" stroke-linecap="round" stroke-linejoin="round"/>
<path d="M 408.0 730.0 L 656.0 600.0" fill="none" stroke="#6F9C68" stroke-width="2.2" stroke-linecap="round"/><path d="M 649.2 608.6 L 656.0 600.0 L 645.0 600.7" fill="none" stroke="#6F9C68" stroke-width="2.2" stroke-linecap="round" stroke-linejoin="round"/>
<rect x="460.0" y="344.0" width="140" height="26" rx="13" fill="#FBFAF5" stroke="#BD6A3C" stroke-width="1.3"/>
<text x="530.0" y="362.0" text-anchor="middle" font-family="'Helvetica Neue', Helvetica, Arial, sans-serif" font-size="13" font-weight="700" fill="#8B4E2C" letter-spacing="1.6">INPUTS</text>
<path d="M 1024.0 400.0 L 1272.0 315.0" fill="none" stroke="#6F9C68" stroke-width="2.6" stroke-linecap="round"/><path d="M 1264.0 322.5 L 1272.0 315.0 L 1261.0 314.0" fill="none" stroke="#6F9C68" stroke-width="2.6" stroke-linecap="round" stroke-linejoin="round"/>
<path d="M 1024.0 500.0 L 1272.0 501.0" fill="none" stroke="#C2A55E" stroke-width="2.6" stroke-linecap="round"/><path d="M 1261.9 505.4 L 1272.0 501.0 L 1262.0 496.5" fill="none" stroke="#C2A55E" stroke-width="2.6" stroke-linecap="round" stroke-linejoin="round"/>
<path d="M 1024.0 600.0 L 1272.0 687.0" fill="none" stroke="#4C9B97" stroke-width="2.6" stroke-linecap="round"/><path d="M 1261.0 687.9 L 1272.0 687.0 L 1264.0 679.4" fill="none" stroke="#4C9B97" stroke-width="2.6" stroke-linecap="round" stroke-linejoin="round"/>
<rect x="1072.0" y="344.0" width="156" height="26" rx="13" fill="#FBFAF5" stroke="#6F9C68" stroke-width="1.3"/>
<text x="1150.0" y="362.0" text-anchor="middle" font-family="'Helvetica Neue', Helvetica, Arial, sans-serif" font-size="13" font-weight="700" fill="#52734C" letter-spacing="1.6">OUTPUTS</text>
<line x1="80" y1="848" x2="1600" y2="848" stroke="#C9BCA8" stroke-width="1"/>
<text x="80" y="870" text-anchor="start" font-family="Georgia, 'Times New Roman', serif" font-size="14" font-weight="400" fill="#2A241E">The model is scenario-aware: turn a dial (volume, method, founder time, opening cash) and unit cost, P&amp;L and cashflow all update together.</text>
<text x="80" y="894" text-anchor="start" font-family="Georgia, 'Times New Roman', serif" font-size="11.5" font-weight="400" fill="#6F6155" font-style="italic">Source: Goods financial model (2026-05). Founder-rate and FTE inputs and opening cash are pending confirmation.</text>
</svg>