<svg xmlns="http://www.w3.org/2000/svg" viewBox="0 0 1680 980" width="1680" height="980" font-family="'Helvetica Neue', Helvetica, Arial, sans-serif">
<defs><filter id="sh" x="-8%" y="-8%" width="116%" height="124%"><feDropShadow dx="0" dy="3" stdDeviation="6" flood-color="#5A4A38" flood-opacity="0.12"/></filter><linearGradient id="steel" x1="0" y1="0" x2="0" y2="1"><stop offset="0" stop-color="#D6DADD"/><stop offset="0.45" stop-color="#AEB4B8"/><stop offset="1" stop-color="#7E858A"/></linearGradient></defs>
<rect width="1680" height="980" fill="#FBFAF5"/>
<text x="840.0" y="76" text-anchor="middle" font-family="Georgia, 'Times New Roman', serif" font-size="50" font-weight="700" fill="#2A241E">Anatomy of a $750 bed</text>
<text x="840.0" y="112" text-anchor="middle" font-family="Georgia, 'Times New Roman', serif" font-size="20" font-weight="400" fill="#6F6155" font-style="italic">Every part of the Stretch Bed, priced. One component is most of the parts bill — and the whole capital case.</text>
<rect x="70.0" y="138.0" width="186.0" height="27.0" rx="6" fill="#2B2D2A"/><text x="163.0" y="156.5" text-anchor="middle" font-family="'Helvetica Neue', Helvetica, Arial, sans-serif" font-size="13" font-weight="700" fill="#FFFFFF" letter-spacing="1.5">WHAT EACH PART COSTS</text>
<rect x="270.0" y="138.0" width="220.4" height="27.0" rx="6" fill="#51553E"/><text x="380.2" y="156.5" text-anchor="middle" font-family="'Helvetica Neue', Helvetica, Arial, sans-serif" font-size="13" font-weight="700" fill="#FFFFFF" letter-spacing="1.5">X-TRESTLE TENSION DESIGN</text>
<rect x="684.0" y="436.0" width="312.0" height="30.0" rx="7" fill="#6E7355" stroke="#565B41" stroke-width="1.6" filter="url(#sh)"/>
<line x1="718.7" y1="438.0" x2="718.7" y2="464.0" stroke="#565B41" stroke-width="0.8" stroke-linecap="round"/>
<line x1="753.3" y1="438.0" x2="753.3" y2="464.0" stroke="#565B41" stroke-width="0.8" stroke-linecap="round"/>
<line x1="788.0" y1="438.0" x2="788.0" y2="464.0" stroke="#565B41" stroke-width="0.8" stroke-linecap="round"/>
<line x1="822.7" y1="438.0" x2="822.7" y2="464.0" stroke="#565B41" stroke-width="0.8" stroke-linecap="round"/>
<line x1="857.3" y1="438.0" x2="857.3" y2="464.0" stroke="#565B41" stroke-width="0.8" stroke-linecap="round"/>
<line x1="892.0" y1="438.0" x2="892.0" y2="464.0" stroke="#565B41" stroke-width="0.8" stroke-linecap="round"/>
<line x1="926.7" y1="438.0" x2="926.7" y2="464.0" stroke="#565B41" stroke-width="0.8" stroke-linecap="round"/>
<line x1="961.3" y1="438.0" x2="961.3" y2="464.0" stroke="#565B41" stroke-width="0.8" stroke-linecap="round"/>
<rect x="612.0" y="445.0" width="456.0" height="14.0" rx="7" fill="url(#steel)" stroke="#7E858A" stroke-width="1.0" filter="url(#sh)"/>
<rect x="612.0" y="479.0" width="456.0" height="14.0" rx="7" fill="url(#steel)" stroke="#7E858A" stroke-width="1.0" filter="url(#sh)"/>
<g transform="rotate(19 690 541.0)"><rect x="592.0" y="529.0" width="196.0" height="24.0" rx="12.0" fill="#C8B79A" stroke="#9C8868" stroke-width="1.6" filter="url(#sh)"/><circle cx="658.3" cy="538.3" r="1.7811213676478246" fill="#6E5E44"/><circle cx="613.2" cy="541.3" r="1.4388267002951027" fill="#6E5E44"/><circle cx="610.6" cy="541.1" r="1.0449947901303818" fill="#6E5E44"/><circle cx="678.1" cy="537.7" r="1.1088556160126382" fill="#6E5E44"/><circle cx="676.4" cy="543.5" r="1.1485623533795748" fill="#6E5E44"/><circle cx="640.3" cy="542.0" r="2.137250730948407" fill="#6E5E44"/><circle cx="703.9" cy="540.2" r="2.1715061267115043" fill="#6E5E44"/><circle cx="608.5" cy="543.8" r="1.3475311435980115" fill="#6E5E44"/><circle cx="626.1" cy="538.1" r="1.3701781889223212" fill="#6E5E44"/><circle cx="746.8" cy="538.5" r="1.6979201963949597" fill="#6E5E44"/><circle cx="715.0" cy="540.0" r="1.6572933588514696" fill="#6E5E44"/><circle cx="611.4" cy="537.6" r="1.2471504553831918" fill="#6E5E44"/><circle cx="722.4" cy="540.4" r="1.3769766044521499" fill="#6E5E44"/><circle cx="705.4" cy="540.6" r="1.3597203962364188" fill="#6E5E44"/><circle cx="742.9" cy="542.5" r="1.2929158128665836" fill="#6E5E44"/><circle cx="703.4" cy="541.2" r="2.0501649946881146" fill="#6E5E44"/><circle cx="731.2" cy="539.4" r="2.176209816991099" fill="#6E5E44"/><circle cx="621.4" cy="540.4" r="1.9085691154782993" fill="#6E5E44"/><circle cx="627.5" cy="540.9" r="1.047048708456925" fill="#6E5E44"/><circle cx="720.2" cy="543.0" r="1.6876311283328609" fill="#6E5E44"/><circle cx="757.5" cy="539.6" r="1.8343544395283913" fill="#6E5E44"/></g>
<g transform="rotate(-19 690 541.0)"><rect x="592.0" y="529.0" width="196.0" height="24.0" rx="12.0" fill="#C8B79A" stroke="#9C8868" stroke-width="1.6" filter="url(#sh)"/><circle cx="707.0" cy="541.6" r="1.5474463975616959" fill="#6E5E44"/><circle cx="751.1" cy="544.4" r="1.5689180049035736" fill="#6E5E44"/><circle cx="719.5" cy="537.6" r="1.8417904255653088" fill="#6E5E44"/><circle cx="716.4" cy="544.8" r="1.986309743931658" fill="#6E5E44"/><circle cx="651.3" cy="540.1" r="1.8023832590610258" fill="#6E5E44"/><circle cx="604.2" cy="540.7" r="1.2016580546878535" fill="#6E5E44"/><circle cx="621.2" cy="537.6" r="1.921879586167025" fill="#6E5E44"/><circle cx="623.4" cy="539.1" r="1.4691396437598725" fill="#6E5E44"/><circle cx="756.7" cy="537.8" r="1.539024881139197" fill="#6E5E44"/><circle cx="698.9" cy="543.9" r="1.9831358054028896" fill="#6E5E44"/><circle cx="755.4" cy="539.3" r="1.4983558206540384" fill="#6E5E44"/><circle cx="664.6" cy="544.0" r="2.1492774447567897" fill="#6E5E44"/><circle cx="627.3" cy="538.5" r="1.278348240183443" fill="#6E5E44"/><circle cx="642.1" cy="540.9" r="1.706948204478707" fill="#6E5E44"/><circle cx="647.4" cy="537.2" r="1.5027358013503935" fill="#6E5E44"/><circle cx="666.5" cy="541.5" r="2.1437175106301147" fill="#6E5E44"/><circle cx="724.2" cy="541.1" r="1.7411112992909534" fill="#6E5E44"/><circle cx="721.7" cy="537.6" r="2.079439612069543" fill="#6E5E44"/><circle cx="740.3" cy="543.9" r="1.9574477454358794" fill="#6E5E44"/><circle cx="670.7" cy="540.2" r="1.1242445124523892" fill="#6E5E44"/><circle cx="714.1" cy="537.6" r="1.08081713901163" fill="#6E5E44"/></g>
<circle cx="685.0" cy="452.0" r="7" fill="#2B2D2A"/>
<circle cx="685.0" cy="452.0" r="4.2" fill="#9C8868"/>
<circle cx="695.0" cy="486.0" r="7" fill="#2B2D2A"/>
<circle cx="695.0" cy="486.0" r="4.2" fill="#9C8868"/>
<g transform="rotate(19 990 541.0)"><rect x="892.0" y="529.0" width="196.0" height="24.0" rx="12.0" fill="#C8B79A" stroke="#9C8868" stroke-width="1.6" filter="url(#sh)"/><circle cx="937.7" cy="538.4" r="1.4080643826788122" fill="#6E5E44"/><circle cx="909.6" cy="537.2" r="1.1815179187353135" fill="#6E5E44"/><circle cx="918.4" cy="540.0" r="1.0306010639993748" fill="#6E5E44"/><circle cx="1057.3" cy="541.9" r="1.1782605823970698" fill="#6E5E44"/><circle cx="945.5" cy="539.8" r="1.4369961274339391" fill="#6E5E44"/><circle cx="922.2" cy="543.7" r="2.191723266045657" fill="#6E5E44"/><circle cx="983.9" cy="540.9" r="1.1030615938673987" fill="#6E5E44"/><circle cx="918.5" cy="539.8" r="1.3177082700606162" fill="#6E5E44"/><circle cx="1049.1" cy="538.4" r="1.0277148652542978" fill="#6E5E44"/><circle cx="1071.0" cy="541.2" r="1.1759230466789088" fill="#6E5E44"/><circle cx="997.8" cy="537.4" r="1.6337313291259679" fill="#6E5E44"/><circle cx="1076.0" cy="543.8" r="1.8354361430893624" fill="#6E5E44"/><circle cx="947.1" cy="540.0" r="1.2004504414412036" fill="#6E5E44"/><circle cx="1038.9" cy="541.3" r="1.9348658696058127" fill="#6E5E44"/><circle cx="959.4" cy="538.9" r="1.9738134961283142" fill="#6E5E44"/><circle cx="1077.1" cy="543.7" r="1.9672943017428013" fill="#6E5E44"/><circle cx="1047.2" cy="542.8" r="1.2720873880379018" fill="#6E5E44"/><circle cx="993.2" cy="539.9" r="1.0347761808896385" fill="#6E5E44"/><circle cx="905.2" cy="539.3" r="1.311009235921308" fill="#6E5E44"/><circle cx="1024.6" cy="544.5" r="1.5366732133200682" fill="#6E5E44"/><circle cx="1068.5" cy="544.7" r="2.1460007575856" fill="#6E5E44"/></g>
<g transform="rotate(-19 990 541.0)"><rect x="892.0" y="529.0" width="196.0" height="24.0" rx="12.0" fill="#C8B79A" stroke="#9C8868" stroke-width="1.6" filter="url(#sh)"/><circle cx="965.7" cy="538.9" r="1.2722149920768735" fill="#6E5E44"/><circle cx="935.5" cy="538.7" r="1.748879676925382" fill="#6E5E44"/><circle cx="1061.9" cy="543.6" r="1.5753681115138458" fill="#6E5E44"/><circle cx="1017.5" cy="543.3" r="1.1017341837404562" fill="#6E5E44"/><circle cx="1018.9" cy="544.1" r="1.9387634609177082" fill="#6E5E44"/><circle cx="1034.9" cy="540.8" r="1.2142260620050882" fill="#6E5E44"/><circle cx="1042.0" cy="539.7" r="1.9609882826760294" fill="#6E5E44"/><circle cx="1074.7" cy="540.2" r="1.481664181441242" fill="#6E5E44"/><circle cx="1070.3" cy="542.7" r="1.2040043919662746" fill="#6E5E44"/><circle cx="923.0" cy="538.3" r="2.0858225148798875" fill="#6E5E44"/><circle cx="1045.1" cy="538.3" r="1.9918125742304646" fill="#6E5E44"/><circle cx="1076.3" cy="542.2" r="1.4204890145890035" fill="#6E5E44"/><circle cx="998.7" cy="538.2" r="1.0170915257873268" fill="#6E5E44"/><circle cx="1074.6" cy="542.1" r="1.6318972565188667" fill="#6E5E44"/><circle cx="1067.9" cy="540.5" r="2.0460915135872852" fill="#6E5E44"/><circle cx="1048.6" cy="538.8" r="1.3022017736385445" fill="#6E5E44"/><circle cx="952.8" cy="539.0" r="1.7037246017991543" fill="#6E5E44"/><circle cx="946.8" cy="540.4" r="1.15728841180418" fill="#6E5E44"/><circle cx="1063.7" cy="539.9" r="1.5497931837660803" fill="#6E5E44"/><circle cx="1005.0" cy="544.1" r="1.504753924850878" fill="#6E5E44"/><circle cx="1065.1" cy="541.0" r="1.6381899549231207" fill="#6E5E44"/></g>
<circle cx="985.0" cy="452.0" r="7" fill="#2B2D2A"/>
<circle cx="985.0" cy="452.0" r="4.2" fill="#9C8868"/>
<circle cx="995.0" cy="486.0" r="7" fill="#2B2D2A"/>
<circle cx="995.0" cy="486.0" r="4.2" fill="#9C8868"/>
<line x1="610.0" y1="486.0" x2="582.0" y2="486.0" stroke="#38726F" stroke-width="2.4" stroke-linecap="round"/>
<path d="M 582 481 L 575 486 L 582 491" fill="none" stroke="#38726F" stroke-width="2.4"/>
<line x1="1070.0" y1="486.0" x2="1098.0" y2="486.0" stroke="#38726F" stroke-width="2.4" stroke-linecap="round"/>
<path d="M 1098 481 L 1105 486 L 1098 491" fill="none" stroke="#38726F" stroke-width="2.4"/>
<text x="840.0" y="658" text-anchor="middle" font-family="'Helvetica Neue', Helvetica, Arial, sans-serif" font-size="13.5" font-weight="400" fill="#6F6155" font-style="italic">Tension pulls the poles into the leg holes — the canvas is structural and braces the frame. No tools.</text>
<rect x="70.0" y="248.0" width="372.0" height="138.0" rx="12" fill="#FFFFFF" stroke="#BD6A3C" stroke-width="2.2" filter="url(#sh)"/><rect x="70.0" y="248.0" width="8.0" height="138.0" rx="6" fill="#BD6A3C"/><text x="94" y="278" text-anchor="start" font-family="'Helvetica Neue', Helvetica, Arial, sans-serif" font-size="16.5" font-weight="700" fill="#2A241E">Recycled-HDPE X-trestle legs (×2)</text><text x="94" y="310" text-anchor="start" font-family="'Helvetica Neue', Helvetica, Arial, sans-serif" font-size="30" font-weight="700" fill="#8B4E2C">$344.05</text><rect x="336.0" y="262.0" width="92.0" height="20.0" rx="10" fill="#6F9C682D" stroke="#6F9C68" stroke-width="1.1"/><text x="382" y="276" text-anchor="middle" font-family="'Helvetica Neue', Helvetica, Arial, sans-serif" font-size="11" font-weight="700" fill="#52734C">verified</text><rect x="336.0" y="286.0" width="92.0" height="20.0" rx="10" fill="#BD6A3C2D" stroke="#BD6A3C" stroke-width="1.1"/><text x="382" y="300" text-anchor="middle" font-family="'Helvetica Neue', Helvetica, Arial, sans-serif" font-size="11" font-weight="700" fill="#8B4E2C">idiot 8.6x</text><text x="94" y="336" text-anchor="start" font-family="'Helvetica Neue', Helvetica, Arial, sans-serif" font-size="12" font-weight="400" fill="#6F6155" font-style="italic">THE whole capital case. Press our own ⟶</text><text x="94" y="351" text-anchor="start" font-family="'Helvetica Neue', Helvetica, Arial, sans-serif" font-size="12" font-weight="400" fill="#6F6155" font-style="italic">~$70/bed; raw floor ~$40. 8.6× markup</text><text x="94" y="366" text-anchor="start" font-family="'Helvetica Neue', Helvetica, Arial, sans-serif" font-size="12" font-weight="400" fill="#6F6155" font-style="italic">today.</text>
<line x1="442.0" y1="318.0" x2="660.0" y2="472.0" stroke="#8B4E2C" stroke-width="1.8" stroke-linecap="round"/>
<circle cx="660.0" cy="472.0" r="4" fill="#8B4E2C"/>
<rect x="1238.0" y="248.0" width="372.0" height="98.0" rx="12" fill="#FFFFFF" stroke="#8A5A45" stroke-width="1.6" filter="url(#sh)"/><rect x="1238.0" y="248.0" width="8.0" height="98.0" rx="6" fill="#8A5A45"/><text x="1262" y="278" text-anchor="start" font-family="'Helvetica Neue', Helvetica, Arial, sans-serif" font-size="14.5" font-weight="700" fill="#2A241E">Galvanised steel poles (×2)</text><text x="1262" y="304" text-anchor="start" font-family="'Helvetica Neue', Helvetica, Arial, sans-serif" font-size="24" font-weight="700" fill="#664233">$27.00</text><rect x="1504.0" y="262.0" width="92.0" height="20.0" rx="10" fill="#6F9C682D" stroke="#6F9C68" stroke-width="1.1"/><text x="1550" y="276" text-anchor="middle" font-family="'Helvetica Neue', Helvetica, Arial, sans-serif" font-size="11" font-weight="700" fill="#52734C">verified</text><rect x="1504.0" y="286.0" width="92.0" height="20.0" rx="10" fill="#C2A55E2D" stroke="#C2A55E" stroke-width="1.1"/><text x="1550" y="300" text-anchor="middle" font-family="'Helvetica Neue', Helvetica, Arial, sans-serif" font-size="11" font-weight="700" fill="#8F7A45">idiot 2.1x</text><text x="1262" y="328" text-anchor="start" font-family="'Helvetica Neue', Helvetica, Arial, sans-serif" font-size="12" font-weight="400" fill="#6F6155" font-style="italic">DNA Steel, Alice Springs.</text><text x="1262" y="343" text-anchor="start" font-family="'Helvetica Neue', Helvetica, Arial, sans-serif" font-size="12" font-weight="400" fill="#6F6155" font-style="italic">Already near raw — local NT</text><text x="1262" y="358" text-anchor="start" font-family="'Helvetica Neue', Helvetica, Arial, sans-serif" font-size="12" font-weight="400" fill="#6F6155" font-style="italic">supply.</text>
<line x1="1238.0" y1="298.0" x2="1060.0" y2="452.0" stroke="#664233" stroke-width="1.8" stroke-linecap="round"/>
<circle cx="1060.0" cy="452.0" r="4" fill="#664233"/>
<rect x="1238.0" y="372.0" width="372.0" height="98.0" rx="12" fill="#FFFFFF" stroke="#51553E" stroke-width="1.6" filter="url(#sh)"/><rect x="1238.0" y="372.0" width="8.0" height="98.0" rx="6" fill="#51553E"/><text x="1262" y="402" text-anchor="start" font-family="'Helvetica Neue', Helvetica, Arial, sans-serif" font-size="14.5" font-weight="700" fill="#2A241E">Canvas sleeping surface</text><text x="1262" y="428" text-anchor="start" font-family="'Helvetica Neue', Helvetica, Arial, sans-serif" font-size="24" font-weight="700" fill="#3B3E2D">$93.50</text><rect x="1504.0" y="386.0" width="92.0" height="20.0" rx="10" fill="#6F9C682D" stroke="#6F9C68" stroke-width="1.1"/><text x="1550" y="400" text-anchor="middle" font-family="'Helvetica Neue', Helvetica, Arial, sans-serif" font-size="11" font-weight="700" fill="#52734C">verified</text><rect x="1504.0" y="410.0" width="92.0" height="20.0" rx="10" fill="#C2A55E2D" stroke="#C2A55E" stroke-width="1.1"/><text x="1550" y="424" text-anchor="middle" font-family="'Helvetica Neue', Helvetica, Arial, sans-serif" font-size="11" font-weight="700" fill="#8F7A45">idiot 2.4x</text><text x="1262" y="452" text-anchor="start" font-family="'Helvetica Neue', Helvetica, Arial, sans-serif" font-size="12" font-weight="400" fill="#6F6155" font-style="italic">Centre Canvas, Alice Springs.</text><text x="1262" y="467" text-anchor="start" font-family="'Helvetica Neue', Helvetica, Arial, sans-serif" font-size="12" font-weight="400" fill="#6F6155" font-style="italic">Structural + washable;</text><text x="1262" y="482" text-anchor="start" font-family="'Helvetica Neue', Helvetica, Arial, sans-serif" font-size="12" font-weight="400" fill="#6F6155" font-style="italic">cut/hem/sew labour.</text>
<line x1="1238.0" y1="422.0" x2="910.0" y2="446.0" stroke="#565B41" stroke-width="1.8" stroke-linecap="round"/>
<circle cx="910.0" cy="446.0" r="4" fill="#565B41"/>
<rect x="70.0" y="474.0" width="372.0" height="92.0" rx="12" fill="#FFFFFF" stroke="#4C9B97" stroke-width="1.6" filter="url(#sh)"/><rect x="70.0" y="474.0" width="8.0" height="92.0" rx="6" fill="#4C9B97"/><text x="94" y="504" text-anchor="start" font-family="'Helvetica Neue', Helvetica, Arial, sans-serif" font-size="14.5" font-weight="700" fill="#2A241E">Hardware — 4 caps · 16 screws · 2 bolts</text><text x="94" y="530" text-anchor="start" font-family="'Helvetica Neue', Helvetica, Arial, sans-serif" font-size="24" font-weight="700" fill="#38726F">$5.24</text><rect x="336.0" y="488.0" width="92.0" height="20.0" rx="10" fill="#6F9C682D" stroke="#6F9C68" stroke-width="1.1"/><text x="382" y="502" text-anchor="middle" font-family="'Helvetica Neue', Helvetica, Arial, sans-serif" font-size="11" font-weight="700" fill="#52734C">verified</text><rect x="336.0" y="512.0" width="92.0" height="20.0" rx="10" fill="#6F9C682D" stroke="#6F9C68" stroke-width="1.1"/><text x="382" y="526" text-anchor="middle" font-family="'Helvetica Neue', Helvetica, Arial, sans-serif" font-size="11" font-weight="700" fill="#52734C">idiot 1.0x</text><text x="94" y="554" text-anchor="start" font-family="'Helvetica Neue', Helvetica, Arial, sans-serif" font-size="12" font-weight="400" fill="#6F6155" font-style="italic">Generic + Coastal Fasteners.</text><text x="94" y="569" text-anchor="start" font-family="'Helvetica Neue', Helvetica, Arial, sans-serif" font-size="12" font-weight="400" fill="#6F6155" font-style="italic">At raw rate already.</text>
<line x1="442.0" y1="516.0" x2="1000.0" y2="486.0" stroke="#38726F" stroke-width="1.8" stroke-linecap="round"/>
<circle cx="1000.0" cy="486.0" r="4" fill="#38726F"/>
<text x="1610" y="598" text-anchor="end" font-family="'Helvetica Neue', Helvetica, Arial, sans-serif" font-size="12.5" font-weight="400" fill="#6F6155" font-style="italic">process (not a part):</text>
<rect x="1238.0" y="608.0" width="372.0" height="30.0" rx="8" fill="#EFE8DA" stroke="#C9BCA8" stroke-width="1"/>
<text x="1258" y="628" text-anchor="start" font-family="'Helvetica Neue', Helvetica, Arial, sans-serif" font-size="13" font-weight="400" fill="#2A241E">Assembly / handling labour</text>
<text x="1592" y="628" text-anchor="end" font-family="'Helvetica Neue', Helvetica, Arial, sans-serif" font-size="14" font-weight="700" fill="#8F7A45">$65.00</text>
<rect x="1238.0" y="644.0" width="372.0" height="30.0" rx="8" fill="#EFE8DA" stroke="#C9BCA8" stroke-width="1"/>
<text x="1258" y="664" text-anchor="start" font-family="'Helvetica Neue', Helvetica, Arial, sans-serif" font-size="13" font-weight="400" fill="#2A241E">Long-haul freight to community</text>
<text x="1592" y="664" text-anchor="end" font-family="'Helvetica Neue', Helvetica, Arial, sans-serif" font-size="14" font-weight="700" fill="#38726F">$150.00</text>
<rect x="70.0" y="742.0" width="1540.0" height="58.0" rx="12" fill="#6F9C681E" stroke="#6F9C68" stroke-width="1.4"/>
<text x="96" y="778" text-anchor="start" font-family="Georgia, 'Times New Roman', serif" font-size="19" font-weight="700" fill="#2A241E">Parts subtotal  $469.79      +  assembly $65  +  freight $150   =   marginal cost today  $684.79      ·      sells for  $750</text>
<line x1="70.0" y1="830.0" x2="1610.0" y2="830.0" stroke="#C9BCA8" stroke-width="1" stroke-linecap="round"/>
<text x="70" y="850" text-anchor="start" font-family="Georgia, 'Times New Roman', serif" font-size="13" font-weight="400" fill="#2A241E">20kg of recycled HDPE diverted from landfill per bed. The legs are two crossed-plank X-trestles; the poles thread through the canvas sleeves and the leg top-holes.</text>
<text x="70" y="870" text-anchor="start" font-family="Georgia, 'Times New Roman', serif" font-size="11.5" font-weight="400" fill="#6F6155" font-style="italic">Source: Goods cost model v6 (2026-06). BOM + $750 verified; in-house legs, labour, freight modelled. Idiot index = price paid ÷ raw-material floor.</text>
</svg>