<?xml version='1.0' encoding='UTF-8'?>
<svg width="45mm" height="45mm" version="1.1" viewBox="0 0 45 45" fill_color="black" back_color="white" xmlns="http://www.w3.org/2000/svg"><path d="M2,2H3V3H2zM3,2H4V3H3zM4,2H5V3H4zM5,2H6V3H5zM6,2H7V3H6zM7,2H8V3H7zM8,2H9V3H8zM11,2H12V3H11zM12,2H13V3H12zM16,2H17V3H16zM17,2H18V3H17zM21,2H22V3H21zM22,2H23V3H22zM25,2H26V3H25zM26,2H27V3H26zM27,2H28V3H27zM28,2H29V3H28zM30,2H31V3H30zM31,2H32V3H31zM36,2H37V3H36zM37,2H38V3H37zM38,2H39V3H38zM39,2H40V3H39zM40,2H41V3H40zM41,2H42V3H41zM42,2H43V3H42zM2,3H3V4H2zM8,3H9V4H8zM10,3H11V4H10zM11,3H12V4H11zM13,3H14V4H13zM15,3H16V4H15zM16,3H17V4H16zM18,3H19V4H18zM20,3H21V4H20zM22,3H23V4H22zM24,3H25V4H24zM27,3H28V4H27zM28,3H29V4H28zM30,3H31V4H30zM31,3H32V4H31zM33,3H34V4H33zM36,3H37V4H36zM42,3H43V4H42zM2,4H3V5H2zM4,4H5V5H4zM5,4H6V5H5zM6,4H7V5H6zM8,4H9V5H8zM11,4H12V5H11zM13,4H14V5H13zM16,4H17V5H16zM17,4H18V5H17zM18,4H19V5H18zM19,4H20V5H19zM21,4H22V5H21zM24,4H25V5H24zM25,4H26V5H25zM26,4H27V5H26zM28,4H29V5H28zM29,4H30V5H29zM34,4H35V5H34zM36,4H37V5H36zM38,4H39V5H38zM39,4H40V5H39zM40,4H41V5H40zM42,4H43V5H42zM2,5H3V6H2zM4,5H5V6H4zM5,5H6V6H5zM6,5H7V6H6zM8,5H9V6H8zM11,5H12V6H11zM12,5H13V6H12zM15,5H16V6H15zM16,5H17V6H16zM17,5H18V6H17zM18,5H19V6H18zM19,5H20V6H19zM20,5H21V6H20zM22,5H23V6H22zM24,5H25V6H24zM25,5H26V6H25zM31,5H32V6H31zM32,5H33V6H32zM34,5H35V6H34zM36,5H37V6H36zM38,5H39V6H38zM39,5H40V6H39zM40,5H41V6H40zM42,5H43V6H42zM2,6H3V7H2zM4,6H5V7H4zM5,6H6V7H5zM6,6H7V7H6zM8,6H9V7H8zM11,6H12V7H11zM12,6H13V7H12zM13,6H14V7H13zM15,6H16V7H15zM17,6H18V7H17zM20,6H21V7H20zM21,6H22V7H21zM22,6H23V7H22zM24,6H25V7H24zM26,6H27V7H26zM27,6H28V7H27zM29,6H30V7H29zM30,6H31V7H30zM32,6H33V7H32zM36,6H37V7H36zM38,6H39V7H38zM39,6H40V7H39zM40,6H41V7H40zM42,6H43V7H42zM2,7H3V8H2zM8,7H9V8H8zM10,7H11V8H10zM14,7H15V8H14zM16,7H17V8H16zM17,7H18V8H17zM19,7H20V8H19zM20,7H21V8H20zM22,7H23V8H22zM23,7H24V8H23zM26,7H27V8H26zM28,7H29V8H28zM30,7H31V8H30zM31,7H32V8H31zM33,7H34V8H33zM36,7H37V8H36zM42,7H43V8H42zM2,8H3V9H2zM3,8H4V9H3zM4,8H5V9H4zM5,8H6V9H5zM6,8H7V9H6zM7,8H8V9H7zM8,8H9V9H8zM10,8H11V9H10zM12,8H13V9H12zM14,8H15V9H14zM16,8H17V9H16zM18,8H19V9H18zM20,8H21V9H20zM22,8H23V9H22zM24,8H25V9H24zM26,8H27V9H26zM28,8H29V9H28zM30,8H31V9H30zM32,8H33V9H32zM34,8H35V9H34zM36,8H37V9H36zM37,8H38V9H37zM38,8H39V9H38zM39,8H40V9H39zM40,8H41V9H40zM41,8H42V9H41zM42,8H43V9H42zM10,9H11V10H10zM13,9H14V10H13zM15,9H16V10H15zM17,9H18V10H17zM21,9H22V10H21zM23,9H24V10H23zM26,9H27V10H26zM27,9H28V10H27zM28,9H29V10H28zM29,9H30V10H29zM31,9H32V10H31zM32,9H33V10H32zM6,10H7V11H6zM7,10H8V11H7zM8,10H9V11H8zM9,10H10V11H9zM11,10H12V11H11zM12,10H13V11H12zM16,10H17V11H16zM18,10H19V11H18zM19,10H20V11H19zM21,10H22V11H21zM25,10H26V11H25zM27,10H28V11H27zM31,10H32V11H31zM33,10H34V11H33zM34,10H35V11H34zM36,10H37V11H36zM37,10H38V11H37zM41,10H42V11H41zM2,11H3V12H2zM3,11H4V12H3zM4,11H5V12H4zM5,11H6V12H5zM7,11H8V12H7zM11,11H12V12H11zM13,11H14V12H13zM14,11H15V12H14zM16,11H17V12H16zM17,11H18V12H17zM19,11H20V12H19zM20,11H21V12H20zM23,11H24V12H23zM26,11H27V12H26zM27,11H28V12H27zM28,11H29V12H28zM29,11H30V12H29zM32,11H33V12H32zM36,11H37V12H36zM37,11H38V12H37zM38,11H39V12H38zM39,11H40V12H39zM41,11H42V12H41zM42,11H43V12H42zM2,12H3V13H2zM3,12H4V13H3zM5,12H6V13H5zM6,12H7V13H6zM8,12H9V13H8zM9,12H10V13H9zM14,12H15V13H14zM15,12H16V13H15zM19,12H20V13H19zM20,12H21V13H20zM21,12H22V13H21zM22,12H23V13H22zM27,12H28V13H27zM28,12H29V13H28zM29,12H30V13H29zM31,12H32V13H31zM34,12H35V13H34zM35,12H36V13H35zM36,12H37V13H36zM38,12H39V13H38zM41,12H42V13H41zM42,12H43V13H42zM2,13H3V14H2zM3,13H4V14H3zM5,13H6V14H5zM6,13H7V14H6zM7,13H8V14H7zM12,13H13V14H12zM14,13H15V14H14zM15,13H16V14H15zM18,13H19V14H18zM24,13H25V14H24zM25,13H26V14H25zM26,13H27V14H26zM28,13H29V14H28zM30,13H31V14H30zM31,13H32V14H31zM33,13H34V14H33zM34,13H35V14H34zM36,13H37V14H36zM38,13H39V14H38zM39,13H40V14H39zM41,13H42V14H41zM2,14H3V15H2zM4,14H5V15H4zM5,14H6V15H5zM6,14H7V15H6zM7,14H8V15H7zM8,14H9V15H8zM10,14H11V15H10zM11,14H12V15H11zM12,14H13V15H12zM13,14H14V15H13zM14,14H15V15H14zM16,14H17V15H16zM19,14H20V15H19zM21,14H22V15H21zM22,14H23V15H22zM24,14H25V15H24zM25,14H26V15H25zM31,14H32V15H31zM34,14H35V15H34zM2,15H3V16H2zM4,15H5V16H4zM5,15H6V16H5zM6,15H7V16H6zM9,15H10V16H9zM10,15H11V16H10zM13,15H14V16H13zM14,15H15V16H14zM15,15H16V16H15zM16,15H17V16H16zM20,15H21V16H20zM21,15H22V16H21zM25,15H26V16H25zM26,15H27V16H26zM30,15H31V16H30zM33,15H34V16H33zM34,15H35V16H34zM35,15H36V16H35zM36,15H37V16H36zM37,15H38V16H37zM38,15H39V16H38zM39,15H40V16H39zM40,15H41V16H40zM42,15H43V16H42zM2,16H3V17H2zM3,16H4V17H3zM6,16H7V17H6zM7,16H8V17H7zM8,16H9V17H8zM10,16H11V17H10zM11,16H12V17H11zM18,16H19V17H18zM19,16H20V17H19zM21,16H22V17H21zM22,16H23V17H22zM25,16H26V17H25zM26,16H27V17H26zM27,16H28V17H27zM28,16H29V17H28zM30,16H31V17H30zM31,16H32V17H31zM32,16H33V17H32zM35,16H36V17H35zM36,16H37V17H36zM38,16H39V17H38zM40,16H41V17H40zM42,16H43V17H42zM2,17H3V18H2zM3,17H4V18H3zM6,17H7V18H6zM7,17H8V18H7zM9,17H10V18H9zM10,17H11V18H10zM11,17H12V18H11zM13,17H14V18H13zM15,17H16V18H15zM16,17H17V18H16zM18,17H19V18H18zM19,17H20V18H19zM24,17H25V18H24zM26,17H27V18H26zM31,17H32V18H31zM33,17H34V18H33zM37,17H38V18H37zM38,17H39V18H38zM39,17H40V18H39zM41,17H42V18H41zM42,17H43V18H42zM2,18H3V19H2zM3,18H4V19H3zM6,18H7V19H6zM7,18H8V19H7zM8,18H9V19H8zM9,18H10V19H9zM13,18H14V19H13zM14,18H15V19H14zM15,18H16V19H15zM16,18H17V19H16zM17,18H18V19H17zM18,18H19V19H18zM21,18H22V19H21zM22,18H23V19H22zM26,18H27V19H26zM28,18H29V19H28zM29,18H30V19H29zM30,18H31V19H30zM33,18H34V19H33zM34,18H35V19H34zM37,18H38V19H37zM39,18H40V19H39zM2,19H3V20H2zM9,19H10V20H9zM11,19H12V20H11zM12,19H13V20H12zM13,19H14V20H13zM14,19H15V20H14zM16,19H17V20H16zM17,19H18V20H17zM19,19H20V20H19zM24,19H25V20H24zM26,19H27V20H26zM27,19H28V20H27zM28,19H29V20H28zM29,19H30V20H29zM35,19H36V20H35zM36,19H37V20H36zM37,19H38V20H37zM38,19H39V20H38zM41,19H42V20H41zM42,19H43V20H42zM4,20H5V21H4zM6,20H7V21H6zM8,20H9V21H8zM10,20H11V21H10zM13,20H14V21H13zM14,20H15V21H14zM15,20H16V21H15zM17,20H18V21H17zM19,20H20V21H19zM22,20H23V21H22zM23,20H24V21H23zM24,20H25V21H24zM28,20H29V21H28zM29,20H30V21H29zM30,20H31V21H30zM31,20H32V21H31zM34,20H35V21H34zM36,20H37V21H36zM37,20H38V21H37zM39,20H40V21H39zM40,20H41V21H40zM42,20H43V21H42zM3,21H4V22H3zM4,21H5V22H4zM5,21H6V22H5zM11,21H12V22H11zM12,21H13V22H12zM18,21H19V22H18zM20,21H21V22H20zM21,21H22V22H21zM22,21H23V22H22zM23,21H24V22H23zM24,21H25V22H24zM25,21H26V22H25zM26,21H27V22H26zM29,21H30V22H29zM31,21H32V22H31zM32,21H33V22H32zM33,21H34V22H33zM36,21H37V22H36zM37,21H38V22H37zM39,21H40V22H39zM41,21H42V22H41zM42,21H43V22H42zM4,22H5V23H4zM7,22H8V23H7zM8,22H9V23H8zM13,22H14V23H13zM15,22H16V23H15zM17,22H18V23H17zM18,22H19V23H18zM19,22H20V23H19zM20,22H21V23H20zM22,22H23V23H22zM25,22H26V23H25zM30,22H31V23H30zM32,22H33V23H32zM33,22H34V23H33zM34,22H35V23H34zM35,22H36V23H35zM37,22H38V23H37zM41,22H42V23H41zM4,23H5V24H4zM6,23H7V24H6zM11,23H12V24H11zM12,23H13V24H12zM13,23H14V24H13zM16,23H17V24H16zM19,23H20V24H19zM23,23H24V24H23zM25,23H26V24H25zM28,23H29V24H28zM29,23H30V24H29zM30,23H31V24H30zM31,23H32V24H31zM35,23H36V24H35zM36,23H37V24H36zM38,23H39V24H38zM39,23H40V24H39zM40,23H41V24H40zM42,23H43V24H42zM4,24H5V25H4zM5,24H6V25H5zM6,24H7V25H6zM8,24H9V25H8zM11,24H12V25H11zM12,24H13V25H12zM13,24H14V25H13zM14,24H15V25H14zM15,24H16V25H15zM17,24H18V25H17zM20,24H21V25H20zM21,24H22V25H21zM22,24H23V25H22zM23,24H24V25H23zM24,24H25V25H24zM25,24H26V25H25zM28,24H29V25H28zM29,24H30V25H29zM32,24H33V25H32zM35,24H36V25H35zM36,24H37V25H36zM42,24H43V25H42zM2,25H3V26H2zM3,25H4V26H3zM4,25H5V26H4zM5,25H6V26H5zM10,25H11V26H10zM11,25H12V26H11zM13,25H14V26H13zM15,25H16V26H15zM16,25H17V26H16zM18,25H19V26H18zM21,25H22V26H21zM23,25H24V26H23zM25,25H26V26H25zM30,25H31V26H30zM31,25H32V26H31zM32,25H33V26H32zM33,25H34V26H33zM34,25H35V26H34zM36,25H37V26H36zM37,25H38V26H37zM41,25H42V26H41zM42,25H43V26H42zM4,26H5V27H4zM6,26H7V27H6zM7,26H8V27H7zM8,26H9V27H8zM10,26H11V27H10zM11,26H12V27H11zM13,26H14V27H13zM15,26H16V27H15zM16,26H17V27H16zM19,26H20V27H19zM21,26H22V27H21zM26,26H27V27H26zM30,26H31V27H30zM31,26H32V27H31zM34,26H35V27H34zM35,26H36V27H35zM37,26H38V27H37zM39,26H40V27H39zM41,26H42V27H41zM2,27H3V28H2zM7,27H8V28H7zM11,27H12V28H11zM13,27H14V28H13zM14,27H15V28H14zM16,27H17V28H16zM22,27H23V28H22zM23,27H24V28H23zM24,27H25V28H24zM25,27H26V28H25zM28,27H29V28H28zM29,27H30V28H29zM30,27H31V28H30zM32,27H33V28H32zM34,27H35V28H34zM35,27H36V28H35zM36,27H37V28H36zM38,27H39V28H38zM40,27H41V28H40zM2,28H3V29H2zM3,28H4V29H3zM4,28H5V29H4zM8,28H9V29H8zM10,28H11V29H10zM11,28H12V29H11zM14,28H15V29H14zM21,28H22V29H21zM22,28H23V29H22zM23,28H24V29H23zM24,28H25V29H24zM25,28H26V29H25zM26,28H27V29H26zM28,28H29V29H28zM29,28H30V29H29zM30,28H31V29H30zM31,28H32V29H31zM34,28H35V29H34zM35,28H36V29H35zM37,28H38V29H37zM42,28H43V29H42zM2,29H3V30H2zM6,29H7V30H6zM7,29H8V30H7zM10,29H11V30H10zM11,29H12V30H11zM12,29H13V30H12zM13,29H14V30H13zM14,29H15V30H14zM16,29H17V30H16zM18,29H19V30H18zM19,29H20V30H19zM20,29H21V30H20zM22,29H23V30H22zM23,29H24V30H23zM24,29H25V30H24zM27,29H28V30H27zM29,29H30V30H29zM31,29H32V30H31zM33,29H34V30H33zM34,29H35V30H34zM35,29H36V30H35zM36,29H37V30H36zM39,29H40V30H39zM3,30H4V31H3zM4,30H5V31H4zM6,30H7V31H6zM8,30H9V31H8zM10,30H11V31H10zM13,30H14V31H13zM15,30H16V31H15zM17,30H18V31H17zM18,30H19V31H18zM19,30H20V31H19zM21,30H22V31H21zM25,30H26V31H25zM27,30H28V31H27zM30,30H31V31H30zM31,30H32V31H31zM32,30H33V31H32zM41,30H42V31H41zM2,31H3V32H2zM3,31H4V32H3zM4,31H5V32H4zM5,31H6V32H5zM7,31H8V32H7zM10,31H11V32H10zM12,31H13V32H12zM16,31H17V32H16zM18,31H19V32H18zM20,31H21V32H20zM22,31H23V32H22zM23,31H24V32H23zM24,31H25V32H24zM26,31H27V32H26zM31,31H32V32H31zM32,31H33V32H32zM34,31H35V32H34zM36,31H37V32H36zM37,31H38V32H37zM38,31H39V32H38zM39,31H40V32H39zM40,31H41V32H40zM41,31H42V32H41zM42,31H43V32H42zM4,32H5V33H4zM6,32H7V33H6zM8,32H9V33H8zM13,32H14V33H13zM14,32H15V33H14zM15,32H16V33H15zM16,32H17V33H16zM19,32H20V33H19zM21,32H22V33H21zM24,32H25V33H24zM27,32H28V33H27zM29,32H30V33H29zM32,32H33V33H32zM34,32H35V33H34zM35,32H36V33H35zM38,32H39V33H38zM39,32H40V33H39zM42,32H43V33H42zM5,33H6V34H5zM6,33H7V34H6zM7,33H8V34H7zM9,33H10V34H9zM11,33H12V34H11zM12,33H13V34H12zM13,33H14V34H13zM14,33H15V34H14zM15,33H16V34H15zM16,33H17V34H16zM21,33H22V34H21zM24,33H25V34H24zM25,33H26V34H25zM26,33H27V34H26zM27,33H28V34H27zM29,33H30V34H29zM30,33H31V34H30zM31,33H32V34H31zM32,33H33V34H32zM34,33H35V34H34zM35,33H36V34H35zM37,33H38V34H37zM39,33H40V34H39zM41,33H42V34H41zM42,33H43V34H42zM2,34H3V35H2zM3,34H4V35H3zM5,34H6V35H5zM8,34H9V35H8zM9,34H10V35H9zM11,34H12V35H11zM17,34H18V35H17zM19,34H20V35H19zM21,34H22V35H21zM22,34H23V35H22zM24,34H25V35H24zM28,34H29V35H28zM31,34H32V35H31zM34,34H35V35H34zM35,34H36V35H35zM36,34H37V35H36zM37,34H38V35H37zM38,34H39V35H38zM39,34H40V35H39zM10,35H11V36H10zM11,35H12V36H11zM13,35H14V36H13zM15,35H16V36H15zM19,35H20V36H19zM21,35H22V36H21zM24,35H25V36H24zM25,35H26V36H25zM26,35H27V36H26zM29,35H30V36H29zM30,35H31V36H30zM31,35H32V36H31zM32,35H33V36H32zM34,35H35V36H34zM38,35H39V36H38zM39,35H40V36H39zM40,35H41V36H40zM41,35H42V36H41zM42,35H43V36H42zM2,36H3V37H2zM3,36H4V37H3zM4,36H5V37H4zM5,36H6V37H5zM6,36H7V37H6zM7,36H8V37H7zM8,36H9V37H8zM10,36H11V37H10zM11,36H12V37H11zM14,36H15V37H14zM15,36H16V37H15zM18,36H19V37H18zM20,36H21V37H20zM21,36H22V37H21zM23,36H24V37H23zM25,36H26V37H25zM26,36H27V37H26zM27,36H28V37H27zM28,36H29V37H28zM29,36H30V37H29zM32,36H33V37H32zM33,36H34V37H33zM34,36H35V37H34zM36,36H37V37H36zM38,36H39V37H38zM40,36H41V37H40zM42,36H43V37H42zM2,37H3V38H2zM8,37H9V38H8zM10,37H11V38H10zM11,37H12V38H11zM13,37H14V38H13zM14,37H15V38H14zM15,37H16V38H15zM20,37H21V38H20zM26,37H27V38H26zM27,37H28V38H27zM28,37H29V38H28zM29,37H30V38H29zM30,37H31V38H30zM33,37H34V38H33zM34,37H35V38H34zM38,37H39V38H38zM39,37H40V38H39zM42,37H43V38H42zM2,38H3V39H2zM4,38H5V39H4zM5,38H6V39H5zM6,38H7V39H6zM8,38H9V39H8zM10,38H11V39H10zM13,38H14V39H13zM15,38H16V39H15zM17,38H18V39H17zM19,38H20V39H19zM20,38H21V39H20zM21,38H22V39H21zM22,38H23V39H22zM23,38H24V39H23zM27,38H28V39H27zM29,38H30V39H29zM30,38H31V39H30zM33,38H34V39H33zM34,38H35V39H34zM35,38H36V39H35zM36,38H37V39H36zM37,38H38V39H37zM38,38H39V39H38zM41,38H42V39H41zM42,38H43V39H42zM2,39H3V40H2zM4,39H5V40H4zM5,39H6V40H5zM6,39H7V40H6zM8,39H9V40H8zM12,39H13V40H12zM14,39H15V40H14zM16,39H17V40H16zM19,39H20V40H19zM24,39H25V40H24zM28,39H29V40H28zM29,39H30V40H29zM30,39H31V40H30zM31,39H32V40H31zM32,39H33V40H32zM37,39H38V40H37zM41,39H42V40H41zM42,39H43V40H42zM2,40H3V41H2zM4,40H5V41H4zM5,40H6V41H5zM6,40H7V41H6zM8,40H9V41H8zM11,40H12V41H11zM12,40H13V41H12zM13,40H14V41H13zM14,40H15V41H14zM15,40H16V41H15zM16,40H17V41H16zM17,40H18V41H17zM19,40H20V41H19zM20,40H21V41H20zM21,40H22V41H21zM23,40H24V41H23zM24,40H25V41H24zM27,40H28V41H27zM29,40H30V41H29zM32,40H33V41H32zM35,40H36V41H35zM39,40H40V41H39zM41,40H42V41H41zM42,40H43V41H42zM2,41H3V42H2zM8,41H9V42H8zM14,41H15V42H14zM16,41H17V42H16zM18,41H19V42H18zM21,41H22V42H21zM24,41H25V42H24zM28,41H29V42H28zM31,41H32V42H31zM32,41H33V42H32zM34,41H35V42H34zM35,41H36V42H35zM36,41H37V42H36zM37,41H38V42H37zM41,41H42V42H41zM42,41H43V42H42zM2,42H3V43H2zM3,42H4V43H3zM4,42H5V43H4zM5,42H6V43H5zM6,42H7V43H6zM7,42H8V43H7zM8,42H9V43H8zM11,42H12V43H11zM12,42H13V43H12zM15,42H16V43H15zM16,42H17V43H16zM18,42H19V43H18zM19,42H20V43H19zM21,42H22V43H21zM22,42H23V43H22zM23,42H24V43H23zM24,42H25V43H24zM27,42H28V43H27zM28,42H29V43H28zM29,42H30V43H29zM31,42H32V43H31zM33,42H34V43H33zM34,42H35V43H34zM36,42H37V43H36zM37,42H38V43H37zM38,42H39V43H38zM41,42H42V43H41z" id="qr-path" fill="#000000" fill-opacity="1" fill-rule="nonzero" stroke="none" /></svg>