<?xml version='1.0' encoding='UTF-8'?>
<svg width="45mm" height="45mm" version="1.1" viewBox="0 0 45 45" xmlns="http://www.w3.org/2000/svg"><path d="M2,2H3V3H2zM3,2H4V3H3zM4,2H5V3H4zM5,2H6V3H5zM6,2H7V3H6zM7,2H8V3H7zM8,2H9V3H8zM11,2H12V3H11zM17,2H18V3H17zM18,2H19V3H18zM19,2H20V3H19zM21,2H22V3H21zM22,2H23V3H22zM25,2H26V3H25zM26,2H27V3H26zM30,2H31V3H30zM31,2H32V3H31zM32,2H33V3H32zM33,2H34V3H33zM36,2H37V3H36zM37,2H38V3H37zM38,2H39V3H38zM39,2H40V3H39zM40,2H41V3H40zM41,2H42V3H41zM42,2H43V3H42zM2,3H3V4H2zM8,3H9V4H8zM11,3H12V4H11zM12,3H13V4H12zM13,3H14V4H13zM14,3H15V4H14zM15,3H16V4H15zM18,3H19V4H18zM19,3H20V4H19zM21,3H22V4H21zM22,3H23V4H22zM23,3H24V4H23zM24,3H25V4H24zM26,3H27V4H26zM28,3H29V4H28zM30,3H31V4H30zM31,3H32V4H31zM32,3H33V4H32zM34,3H35V4H34zM36,3H37V4H36zM42,3H43V4H42zM2,4H3V5H2zM4,4H5V5H4zM5,4H6V5H5zM6,4H7V5H6zM8,4H9V5H8zM11,4H12V5H11zM13,4H14V5H13zM18,4H19V5H18zM23,4H24V5H23zM24,4H25V5H24zM25,4H26V5H25zM27,4H28V5H27zM28,4H29V5H28zM29,4H30V5H29zM30,4H31V5H30zM32,4H33V5H32zM33,4H34V5H33zM36,4H37V5H36zM38,4H39V5H38zM39,4H40V5H39zM40,4H41V5H40zM42,4H43V5H42zM2,5H3V6H2zM4,5H5V6H4zM5,5H6V6H5zM6,5H7V6H6zM8,5H9V6H8zM12,5H13V6H12zM14,5H15V6H14zM15,5H16V6H15zM17,5H18V6H17zM22,5H23V6H22zM26,5H27V6H26zM29,5H30V6H29zM31,5H32V6H31zM32,5H33V6H32zM34,5H35V6H34zM36,5H37V6H36zM38,5H39V6H38zM39,5H40V6H39zM40,5H41V6H40zM42,5H43V6H42zM2,6H3V7H2zM4,6H5V7H4zM5,6H6V7H5zM6,6H7V7H6zM8,6H9V7H8zM10,6H11V7H10zM12,6H13V7H12zM15,6H16V7H15zM17,6H18V7H17zM24,6H25V7H24zM26,6H27V7H26zM27,6H28V7H27zM28,6H29V7H28zM29,6H30V7H29zM30,6H31V7H30zM31,6H32V7H31zM32,6H33V7H32zM33,6H34V7H33zM34,6H35V7H34zM36,6H37V7H36zM38,6H39V7H38zM39,6H40V7H39zM40,6H41V7H40zM42,6H43V7H42zM2,7H3V8H2zM8,7H9V8H8zM12,7H13V8H12zM14,7H15V8H14zM17,7H18V8H17zM18,7H19V8H18zM19,7H20V8H19zM22,7H23V8H22zM23,7H24V8H23zM24,7H25V8H24zM30,7H31V8H30zM33,7H34V8H33zM36,7H37V8H36zM42,7H43V8H42zM2,8H3V9H2zM3,8H4V9H3zM4,8H5V9H4zM5,8H6V9H5zM6,8H7V9H6zM7,8H8V9H7zM8,8H9V9H8zM10,8H11V9H10zM12,8H13V9H12zM14,8H15V9H14zM16,8H17V9H16zM18,8H19V9H18zM20,8H21V9H20zM22,8H23V9H22zM24,8H25V9H24zM26,8H27V9H26zM28,8H29V9H28zM30,8H31V9H30zM32,8H33V9H32zM34,8H35V9H34zM36,8H37V9H36zM37,8H38V9H37zM38,8H39V9H38zM39,8H40V9H39zM40,8H41V9H40zM41,8H42V9H41zM42,8H43V9H42zM10,9H11V10H10zM11,9H12V10H11zM14,9H15V10H14zM15,9H16V10H15zM16,9H17V10H16zM17,9H18V10H17zM19,9H20V10H19zM20,9H21V10H20zM23,9H24V10H23zM26,9H27V10H26zM29,9H30V10H29zM30,9H31V10H30zM31,9H32V10H31zM32,9H33V10H32zM4,10H5V11H4zM5,10H6V11H5zM8,10H9V11H8zM9,10H10V11H9zM10,10H11V11H10zM11,10H12V11H11zM12,10H13V11H12zM13,10H14V11H13zM15,10H16V11H15zM19,10H20V11H19zM24,10H25V11H24zM25,10H26V11H25zM28,10H29V11H28zM29,10H30V11H29zM30,10H31V11H30zM31,10H32V11H31zM32,10H33V11H32zM33,10H34V11H33zM34,10H35V11H34zM35,10H36V11H35zM36,10H37V11H36zM38,10H39V11H38zM3,11H4V12H3zM4,11H5V12H4zM5,11H6V12H5zM13,11H14V12H13zM14,11H15V12H14zM15,11H16V12H15zM16,11H17V12H16zM17,11H18V12H17zM21,11H22V12H21zM22,11H23V12H22zM23,11H24V12H23zM25,11H26V12H25zM26,11H27V12H26zM27,11H28V12H27zM33,11H34V12H33zM34,11H35V12H34zM35,11H36V12H35zM36,11H37V12H36zM38,11H39V12H38zM40,11H41V12H40zM3,12H4V13H3zM5,12H6V13H5zM7,12H8V13H7zM8,12H9V13H8zM9,12H10V13H9zM11,12H12V13H11zM12,12H13V13H12zM13,12H14V13H13zM15,12H16V13H15zM18,12H19V13H18zM22,12H23V13H22zM23,12H24V13H23zM24,12H25V13H24zM28,12H29V13H28zM32,12H33V13H32zM35,12H36V13H35zM36,12H37V13H36zM40,12H41V13H40zM41,12H42V13H41zM3,13H4V14H3zM4,13H5V14H4zM5,13H6V14H5zM6,13H7V14H6zM10,13H11V14H10zM12,13H13V14H12zM14,13H15V14H14zM17,13H18V14H17zM18,13H19V14H18zM19,13H20V14H19zM24,13H25V14H24zM25,13H26V14H25zM26,13H27V14H26zM28,13H29V14H28zM32,13H33V14H32zM34,13H35V14H34zM35,13H36V14H35zM36,13H37V14H36zM38,13H39V14H38zM42,13H43V14H42zM2,14H3V15H2zM3,14H4V15H3zM4,14H5V15H4zM8,14H9V15H8zM9,14H10V15H9zM10,14H11V15H10zM13,14H14V15H13zM14,14H15V15H14zM15,14H16V15H15zM16,14H17V15H16zM21,14H22V15H21zM26,14H27V15H26zM27,14H28V15H27zM28,14H29V15H28zM29,14H30V15H29zM30,14H31V15H30zM31,14H32V15H31zM32,14H33V15H32zM33,14H34V15H33zM39,14H40V15H39zM40,14H41V15H40zM2,15H3V16H2zM4,15H5V16H4zM5,15H6V16H5zM6,15H7V16H6zM10,15H11V16H10zM12,15H13V16H12zM16,15H17V16H16zM19,15H20V16H19zM22,15H23V16H22zM23,15H24V16H23zM26,15H27V16H26zM27,15H28V16H27zM29,15H30V16H29zM32,15H33V16H32zM33,15H34V16H33zM34,15H35V16H34zM37,15H38V16H37zM40,15H41V16H40zM42,15H43V16H42zM3,16H4V17H3zM8,16H9V17H8zM10,16H11V17H10zM12,16H13V17H12zM15,16H16V17H15zM16,16H17V17H16zM17,16H18V17H17zM18,16H19V17H18zM20,16H21V17H20zM21,16H22V17H21zM22,16H23V17H22zM23,16H24V17H23zM31,16H32V17H31zM32,16H33V17H32zM33,16H34V17H33zM36,16H37V17H36zM37,16H38V17H37zM41,16H42V17H41zM42,16H43V17H42zM2,17H3V18H2zM4,17H5V18H4zM5,17H6V18H5zM6,17H7V18H6zM9,17H10V18H9zM11,17H12V18H11zM12,17H13V18H12zM16,17H17V18H16zM17,17H18V18H17zM18,17H19V18H18zM19,17H20V18H19zM23,17H24V18H23zM25,17H26V18H25zM26,17H27V18H26zM28,17H29V18H28zM29,17H30V18H29zM30,17H31V18H30zM36,17H37V18H36zM38,17H39V18H38zM39,17H40V18H39zM41,17H42V18H41zM2,18H3V19H2zM3,18H4V19H3zM4,18H5V19H4zM5,18H6V19H5zM8,18H9V19H8zM9,18H10V19H9zM10,18H11V19H10zM12,18H13V19H12zM13,18H14V19H13zM14,18H15V19H14zM16,18H17V19H16zM17,18H18V19H17zM20,18H21V19H20zM21,18H22V19H21zM22,18H23V19H22zM25,18H26V19H25zM28,18H29V19H28zM29,18H30V19H29zM30,18H31V19H30zM38,18H39V19H38zM41,18H42V19H41zM4,19H5V20H4zM6,19H7V20H6zM7,19H8V20H7zM11,19H12V20H11zM16,19H17V20H16zM24,19H25V20H24zM25,19H26V20H25zM27,19H28V20H27zM29,19H30V20H29zM32,19H33V20H32zM34,19H35V20H34zM35,19H36V20H35zM37,19H38V20H37zM40,19H41V20H40zM2,20H3V21H2zM6,20H7V21H6zM7,20H8V21H7zM8,20H9V21H8zM9,20H10V21H9zM11,20H12V21H11zM12,20H13V21H12zM14,20H15V21H14zM15,20H16V21H15zM17,20H18V21H17zM18,20H19V21H18zM19,20H20V21H19zM20,20H21V21H20zM25,20H26V21H25zM27,20H28V21H27zM28,20H29V21H28zM29,20H30V21H29zM30,20H31V21H30zM32,20H33V21H32zM36,20H37V21H36zM38,20H39V21H38zM3,21H4V22H3zM4,21H5V22H4zM6,21H7V22H6zM9,21H10V22H9zM10,21H11V22H10zM11,21H12V22H11zM12,21H13V22H12zM14,21H15V22H14zM17,21H18V22H17zM19,21H20V22H19zM23,21H24V22H23zM24,21H25V22H24zM25,21H26V22H25zM27,21H28V22H27zM29,21H30V22H29zM31,21H32V22H31zM32,21H33V22H32zM34,21H35V22H34zM35,21H36V22H35zM37,21H38V22H37zM39,21H40V22H39zM40,21H41V22H40zM42,21H43V22H42zM3,22H4V23H3zM4,22H5V23H4zM6,22H7V23H6zM8,22H9V23H8zM10,22H11V23H10zM14,22H15V23H14zM15,22H16V23H15zM16,22H17V23H16zM18,22H19V23H18zM20,22H21V23H20zM23,22H24V23H23zM25,22H26V23H25zM26,22H27V23H26zM30,22H31V23H30zM31,22H32V23H31zM33,22H34V23H33zM35,22H36V23H35zM36,22H37V23H36zM37,22H38V23H37zM38,22H39V23H38zM39,22H40V23H39zM40,22H41V23H40zM42,22H43V23H42zM3,23H4V24H3zM6,23H7V24H6zM7,23H8V24H7zM10,23H11V24H10zM12,23H13V24H12zM13,23H14V24H13zM15,23H16V24H15zM17,23H18V24H17zM22,23H23V24H22zM23,23H24V24H23zM27,23H28V24H27zM28,23H29V24H28zM30,23H31V24H30zM33,23H34V24H33zM34,23H35V24H34zM35,23H36V24H35zM36,23H37V24H36zM38,23H39V24H38zM39,23H40V24H39zM40,23H41V24H40zM41,23H42V24H41zM42,23H43V24H42zM2,24H3V25H2zM5,24H6V25H5zM6,24H7V25H6zM7,24H8V25H7zM8,24H9V25H8zM9,24H10V25H9zM10,24H11V25H10zM15,24H16V25H15zM16,24H17V25H16zM18,24H19V25H18zM23,24H24V25H23zM24,24H25V25H24zM25,24H26V25H25zM26,24H27V25H26zM31,24H32V25H31zM32,24H33V25H32zM34,24H35V25H34zM35,24H36V25H35zM36,24H37V25H36zM37,24H38V25H37zM39,24H40V25H39zM41,24H42V25H41zM4,25H5V26H4zM5,25H6V26H5zM6,25H7V26H6zM9,25H10V26H9zM10,25H11V26H10zM11,25H12V26H11zM14,25H15V26H14zM15,25H16V26H15zM16,25H17V26H16zM17,25H18V26H17zM18,25H19V26H18zM19,25H20V26H19zM22,25H23V26H22zM23,25H24V26H23zM25,25H26V26H25zM26,25H27V26H26zM28,25H29V26H28zM29,25H30V26H29zM32,25H33V26H32zM34,25H35V26H34zM37,25H38V26H37zM3,26H4V27H3zM4,26H5V27H4zM5,26H6V27H5zM6,26H7V27H6zM7,26H8V27H7zM8,26H9V27H8zM9,26H10V27H9zM13,26H14V27H13zM14,26H15V27H14zM15,26H16V27H15zM16,26H17V27H16zM19,26H20V27H19zM21,26H22V27H21zM22,26H23V27H22zM23,26H24V27H23zM24,26H25V27H24zM26,26H27V27H26zM27,26H28V27H27zM30,26H31V27H30zM31,26H32V27H31zM37,26H38V27H37zM40,26H41V27H40zM41,26H42V27H41zM42,26H43V27H42zM6,27H7V28H6zM7,27H8V28H7zM13,27H14V28H13zM14,27H15V28H14zM15,27H16V28H15zM16,27H17V28H16zM18,27H19V28H18zM19,27H20V28H19zM24,27H25V28H24zM25,27H26V28H25zM29,27H30V28H29zM30,27H31V28H30zM31,27H32V28H31zM33,27H34V28H33zM34,27H35V28H34zM36,27H37V28H36zM39,27H40V28H39zM40,27H41V28H40zM41,27H42V28H41zM42,27H43V28H42zM2,28H3V29H2zM3,28H4V29H3zM4,28H5V29H4zM7,28H8V29H7zM8,28H9V29H8zM9,28H10V29H9zM10,28H11V29H10zM11,28H12V29H11zM13,28H14V29H13zM14,28H15V29H14zM15,28H16V29H15zM17,28H18V29H17zM19,28H20V29H19zM20,28H21V29H20zM24,28H25V29H24zM28,28H29V29H28zM31,28H32V29H31zM33,28H34V29H33zM34,28H35V29H34zM35,28H36V29H35zM36,28H37V29H36zM38,28H39V29H38zM39,28H40V29H39zM41,28H42V29H41zM42,28H43V29H42zM3,29H4V30H3zM9,29H10V30H9zM10,29H11V30H10zM12,29H13V30H12zM13,29H14V30H13zM14,29H15V30H14zM15,29H16V30H15zM16,29H17V30H16zM17,29H18V30H17zM19,29H20V30H19zM20,29H21V30H20zM21,29H22V30H21zM22,29H23V30H22zM24,29H25V30H24zM25,29H26V30H25zM26,29H27V30H26zM28,29H29V30H28zM29,29H30V30H29zM30,29H31V30H30zM33,29H34V30H33zM34,29H35V30H34zM36,29H37V30H36zM37,29H38V30H37zM38,29H39V30H38zM39,29H40V30H39zM2,30H3V31H2zM3,30H4V31H3zM4,30H5V31H4zM5,30H6V31H5zM6,30H7V31H6zM8,30H9V31H8zM9,30H10V31H9zM10,30H11V31H10zM14,30H15V31H14zM15,30H16V31H15zM17,30H18V31H17zM18,30H19V31H18zM22,30H23V31H22zM23,30H24V31H23zM26,30H27V31H26zM27,30H28V31H27zM33,30H34V31H33zM35,30H36V31H35zM37,30H38V31H37zM38,30H39V31H38zM39,30H40V31H39zM41,30H42V31H41zM6,31H7V32H6zM10,31H11V32H10zM13,31H14V32H13zM15,31H16V32H15zM16,31H17V32H16zM17,31H18V32H17zM18,31H19V32H18zM19,31H20V32H19zM20,31H21V32H20zM21,31H22V32H21zM27,31H28V32H27zM29,31H30V32H29zM30,31H31V32H30zM31,31H32V32H31zM32,31H33V32H32zM36,31H37V32H36zM37,31H38V32H37zM39,31H40V32H39zM41,31H42V32H41zM2,32H3V33H2zM4,32H5V33H4zM5,32H6V33H5zM6,32H7V33H6zM7,32H8V33H7zM8,32H9V33H8zM10,32H11V33H10zM11,32H12V33H11zM12,32H13V33H12zM13,32H14V33H13zM14,32H15V33H14zM16,32H17V33H16zM17,32H18V33H17zM18,32H19V33H18zM22,32H23V33H22zM23,32H24V33H23zM25,32H26V33H25zM26,32H27V33H26zM28,32H29V33H28zM29,32H30V33H29zM31,32H32V33H31zM35,32H36V33H35zM36,32H37V33H36zM37,32H38V33H37zM40,32H41V33H40zM5,33H6V34H5zM6,33H7V34H6zM9,33H10V34H9zM14,33H15V34H14zM17,33H18V34H17zM18,33H19V34H18zM19,33H20V34H19zM20,33H21V34H20zM22,33H23V34H22zM24,33H25V34H24zM25,33H26V34H25zM26,33H27V34H26zM29,33H30V34H29zM31,33H32V34H31zM32,33H33V34H32zM33,33H34V34H33zM34,33H35V34H34zM36,33H37V34H36zM37,33H38V34H37zM38,33H39V34H38zM39,33H40V34H39zM40,33H41V34H40zM41,33H42V34H41zM3,34H4V35H3zM4,34H5V35H4zM6,34H7V35H6zM8,34H9V35H8zM9,34H10V35H9zM10,34H11V35H10zM12,34H13V35H12zM13,34H14V35H13zM18,34H19V35H18zM20,34H21V35H20zM23,34H24V35H23zM24,34H25V35H24zM26,34H27V35H26zM27,34H28V35H27zM28,34H29V35H28zM31,34H32V35H31zM32,34H33V35H32zM33,34H34V35H33zM34,34H35V35H34zM35,34H36V35H35zM36,34H37V35H36zM37,34H38V35H37zM38,34H39V35H38zM39,34H40V35H39zM40,34H41V35H40zM41,34H42V35H41zM42,34H43V35H42zM10,35H11V36H10zM11,35H12V36H11zM15,35H16V36H15zM16,35H17V36H16zM19,35H20V36H19zM21,35H22V36H21zM22,35H23V36H22zM23,35H24V36H23zM27,35H28V36H27zM28,35H29V36H28zM30,35H31V36H30zM32,35H33V36H32zM33,35H34V36H33zM34,35H35V36H34zM38,35H39V36H38zM40,35H41V36H40zM41,35H42V36H41zM42,35H43V36H42zM2,36H3V37H2zM3,36H4V37H3zM4,36H5V37H4zM5,36H6V37H5zM6,36H7V37H6zM7,36H8V37H7zM8,36H9V37H8zM10,36H11V37H10zM13,36H14V37H13zM14,36H15V37H14zM15,36H16V37H15zM16,36H17V37H16zM19,36H20V37H19zM20,36H21V37H20zM22,36H23V37H22zM26,36H27V37H26zM28,36H29V37H28zM30,36H31V37H30zM31,36H32V37H31zM32,36H33V37H32zM33,36H34V37H33zM34,36H35V37H34zM36,36H37V37H36zM38,36H39V37H38zM39,36H40V37H39zM40,36H41V37H40zM41,36H42V37H41zM2,37H3V38H2zM8,37H9V38H8zM11,37H12V38H11zM14,37H15V38H14zM15,37H16V38H15zM21,37H22V38H21zM22,37H23V38H22zM23,37H24V38H23zM26,37H27V38H26zM27,37H28V38H27zM30,37H31V38H30zM32,37H33V38H32zM34,37H35V38H34zM38,37H39V38H38zM41,37H42V38H41zM42,37H43V38H42zM2,38H3V39H2zM4,38H5V39H4zM5,38H6V39H5zM6,38H7V39H6zM8,38H9V39H8zM13,38H14V39H13zM14,38H15V39H14zM17,38H18V39H17zM18,38H19V39H18zM19,38H20V39H19zM22,38H23V39H22zM24,38H25V39H24zM25,38H26V39H25zM26,38H27V39H26zM27,38H28V39H27zM29,38H30V39H29zM31,38H32V39H31zM32,38H33V39H32zM34,38H35V39H34zM35,38H36V39H35zM36,38H37V39H36zM37,38H38V39H37zM38,38H39V39H38zM40,38H41V39H40zM42,38H43V39H42zM2,39H3V40H2zM4,39H5V40H4zM5,39H6V40H5zM6,39H7V40H6zM8,39H9V40H8zM10,39H11V40H10zM12,39H13V40H12zM13,39H14V40H13zM16,39H17V40H16zM20,39H21V40H20zM24,39H25V40H24zM25,39H26V40H25zM27,39H28V40H27zM29,39H30V40H29zM32,39H33V40H32zM33,39H34V40H33zM34,39H35V40H34zM38,39H39V40H38zM41,39H42V40H41zM42,39H43V40H42zM2,40H3V41H2zM4,40H5V41H4zM5,40H6V41H5zM6,40H7V41H6zM8,40H9V41H8zM10,40H11V41H10zM11,40H12V41H11zM12,40H13V41H12zM14,40H15V41H14zM16,40H17V41H16zM18,40H19V41H18zM21,40H22V41H21zM23,40H24V41H23zM24,40H25V41H24zM25,40H26V41H25zM26,40H27V41H26zM27,40H28V41H27zM28,40H29V41H28zM30,40H31V41H30zM33,40H34V41H33zM37,40H38V41H37zM42,40H43V41H42zM2,41H3V42H2zM8,41H9V42H8zM11,41H12V42H11zM15,41H16V42H15zM18,41H19V42H18zM19,41H20V42H19zM22,41H23V42H22zM25,41H26V42H25zM26,41H27V42H26zM27,41H28V42H27zM28,41H29V42H28zM29,41H30V42H29zM33,41H34V42H33zM34,41H35V42H34zM38,41H39V42H38zM39,41H40V42H39zM41,41H42V42H41zM2,42H3V43H2zM3,42H4V43H3zM4,42H5V43H4zM5,42H6V43H5zM6,42H7V43H6zM7,42H8V43H7zM8,42H9V43H8zM12,42H13V43H12zM13,42H14V43H13zM16,42H17V43H16zM20,42H21V43H20zM25,42H26V43H25zM27,42H28V43H27zM28,42H29V43H28zM29,42H30V43H29zM32,42H33V43H32zM34,42H35V43H34zM35,42H36V43H35zM41,42H42V43H41z" id="qr-path" fill="#000000" fill-opacity="1" fill-rule="nonzero" stroke="none" /></svg>