<?xml version='1.0' encoding='UTF-8'?>
<svg width="49mm" height="49mm" version="1.1" viewBox="0 0 49 49" xmlns="http://www.w3.org/2000/svg"><path d="M2,2H3V3H2zM3,2H4V3H3zM4,2H5V3H4zM5,2H6V3H5zM6,2H7V3H6zM7,2H8V3H7zM8,2H9V3H8zM10,2H11V3H10zM12,2H13V3H12zM14,2H15V3H14zM16,2H17V3H16zM17,2H18V3H17zM20,2H21V3H20zM23,2H24V3H23zM24,2H25V3H24zM25,2H26V3H25zM28,2H29V3H28zM30,2H31V3H30zM32,2H33V3H32zM34,2H35V3H34zM35,2H36V3H35zM38,2H39V3H38zM40,2H41V3H40zM41,2H42V3H41zM42,2H43V3H42zM43,2H44V3H43zM44,2H45V3H44zM45,2H46V3H45zM46,2H47V3H46zM2,3H3V4H2zM8,3H9V4H8zM11,3H12V4H11zM12,3H13V4H12zM13,3H14V4H13zM14,3H15V4H14zM15,3H16V4H15zM16,3H17V4H16zM20,3H21V4H20zM22,3H23V4H22zM23,3H24V4H23zM24,3H25V4H24zM27,3H28V4H27zM28,3H29V4H28zM29,3H30V4H29zM30,3H31V4H30zM34,3H35V4H34zM35,3H36V4H35zM37,3H38V4H37zM40,3H41V4H40zM46,3H47V4H46zM2,4H3V5H2zM4,4H5V5H4zM5,4H6V5H5zM6,4H7V5H6zM8,4H9V5H8zM10,4H11V5H10zM11,4H12V5H11zM12,4H13V5H12zM14,4H15V5H14zM15,4H16V5H15zM16,4H17V5H16zM19,4H20V5H19zM20,4H21V5H20zM24,4H25V5H24zM29,4H30V5H29zM30,4H31V5H30zM31,4H32V5H31zM32,4H33V5H32zM35,4H36V5H35zM37,4H38V5H37zM40,4H41V5H40zM42,4H43V5H42zM43,4H44V5H43zM44,4H45V5H44zM46,4H47V5H46zM2,5H3V6H2zM4,5H5V6H4zM5,5H6V6H5zM6,5H7V6H6zM8,5H9V6H8zM14,5H15V6H14zM17,5H18V6H17zM18,5H19V6H18zM20,5H21V6H20zM21,5H22V6H21zM24,5H25V6H24zM26,5H27V6H26zM27,5H28V6H27zM28,5H29V6H28zM29,5H30V6H29zM31,5H32V6H31zM33,5H34V6H33zM37,5H38V6H37zM38,5H39V6H38zM40,5H41V6H40zM42,5H43V6H42zM43,5H44V6H43zM44,5H45V6H44zM46,5H47V6H46zM2,6H3V7H2zM4,6H5V7H4zM5,6H6V7H5zM6,6H7V7H6zM8,6H9V7H8zM10,6H11V7H10zM11,6H12V7H11zM12,6H13V7H12zM19,6H20V7H19zM21,6H22V7H21zM22,6H23V7H22zM23,6H24V7H23zM24,6H25V7H24zM25,6H26V7H25zM26,6H27V7H26zM27,6H28V7H27zM28,6H29V7H28zM29,6H30V7H29zM32,6H33V7H32zM34,6H35V7H34zM36,6H37V7H36zM37,6H38V7H37zM38,6H39V7H38zM40,6H41V7H40zM42,6H43V7H42zM43,6H44V7H43zM44,6H45V7H44zM46,6H47V7H46zM2,7H3V8H2zM8,7H9V8H8zM14,7H15V8H14zM15,7H16V8H15zM17,7H18V8H17zM19,7H20V8H19zM22,7H23V8H22zM26,7H27V8H26zM31,7H32V8H31zM33,7H34V8H33zM34,7H35V8H34zM35,7H36V8H35zM40,7H41V8H40zM46,7H47V8H46zM2,8H3V9H2zM3,8H4V9H3zM4,8H5V9H4zM5,8H6V9H5zM6,8H7V9H6zM7,8H8V9H7zM8,8H9V9H8zM10,8H11V9H10zM12,8H13V9H12zM14,8H15V9H14zM16,8H17V9H16zM18,8H19V9H18zM20,8H21V9H20zM22,8H23V9H22zM24,8H25V9H24zM26,8H27V9H26zM28,8H29V9H28zM30,8H31V9H30zM32,8H33V9H32zM34,8H35V9H34zM36,8H37V9H36zM38,8H39V9H38zM40,8H41V9H40zM41,8H42V9H41zM42,8H43V9H42zM43,8H44V9H43zM44,8H45V9H44zM45,8H46V9H45zM46,8H47V9H46zM10,9H11V10H10zM12,9H13V10H12zM13,9H14V10H13zM14,9H15V10H14zM16,9H17V10H16zM17,9H18V10H17zM19,9H20V10H19zM22,9H23V10H22zM26,9H27V10H26zM27,9H28V10H27zM29,9H30V10H29zM32,9H33V10H32zM35,9H36V10H35zM36,9H37V10H36zM38,9H39V10H38zM7,10H8V11H7zM8,10H9V11H8zM11,10H12V11H11zM13,10H14V11H13zM22,10H23V11H22zM23,10H24V11H23zM24,10H25V11H24zM25,10H26V11H25zM26,10H27V11H26zM27,10H28V11H27zM28,10H29V11H28zM32,10H33V11H32zM33,10H34V11H33zM36,10H37V11H36zM37,10H38V11H37zM38,10H39V11H38zM40,10H41V11H40zM42,10H43V11H42zM44,10H45V11H44zM46,10H47V11H46zM5,11H6V12H5zM7,11H8V12H7zM12,11H13V12H12zM13,11H14V12H13zM17,11H18V12H17zM20,11H21V12H20zM21,11H22V12H21zM22,11H23V12H22zM25,11H26V12H25zM26,11H27V12H26zM29,11H30V12H29zM31,11H32V12H31zM32,11H33V12H32zM33,11H34V12H33zM34,11H35V12H34zM36,11H37V12H36zM37,11H38V12H37zM38,11H39V12H38zM40,11H41V12H40zM41,11H42V12H41zM42,11H43V12H42zM44,11H45V12H44zM45,11H46V12H45zM2,12H3V13H2zM4,12H5V13H4zM7,12H8V13H7zM8,12H9V13H8zM9,12H10V13H9zM11,12H12V13H11zM12,12H13V13H12zM13,12H14V13H13zM14,12H15V13H14zM18,12H19V13H18zM19,12H20V13H19zM20,12H21V13H20zM22,12H23V13H22zM24,12H25V13H24zM26,12H27V13H26zM27,12H28V13H27zM28,12H29V13H28zM30,12H31V13H30zM31,12H32V13H31zM33,12H34V13H33zM34,12H35V13H34zM35,12H36V13H35zM36,12H37V13H36zM38,12H39V13H38zM39,12H40V13H39zM40,12H41V13H40zM44,12H45V13H44zM4,13H5V14H4zM5,13H6V14H5zM7,13H8V14H7zM10,13H11V14H10zM14,13H15V14H14zM21,13H22V14H21zM22,13H23V14H22zM24,13H25V14H24zM28,13H29V14H28zM29,13H30V14H29zM31,13H32V14H31zM32,13H33V14H32zM33,13H34V14H33zM34,13H35V14H34zM35,13H36V14H35zM36,13H37V14H36zM37,13H38V14H37zM38,13H39V14H38zM41,13H42V14H41zM42,13H43V14H42zM44,13H45V14H44zM45,13H46V14H45zM46,13H47V14H46zM6,14H7V15H6zM7,14H8V15H7zM8,14H9V15H8zM11,14H12V15H11zM12,14H13V15H12zM15,14H16V15H15zM17,14H18V15H17zM19,14H20V15H19zM21,14H22V15H21zM23,14H24V15H23zM24,14H25V15H24zM28,14H29V15H28zM34,14H35V15H34zM36,14H37V15H36zM37,14H38V15H37zM39,14H40V15H39zM40,14H41V15H40zM42,14H43V15H42zM43,14H44V15H43zM3,15H4V16H3zM4,15H5V16H4zM7,15H8V16H7zM9,15H10V16H9zM10,15H11V16H10zM12,15H13V16H12zM13,15H14V16H13zM15,15H16V16H15zM16,15H17V16H16zM18,15H19V16H18zM19,15H20V16H19zM20,15H21V16H20zM21,15H22V16H21zM26,15H27V16H26zM30,15H31V16H30zM31,15H32V16H31zM32,15H33V16H32zM33,15H34V16H33zM35,15H36V16H35zM37,15H38V16H37zM38,15H39V16H38zM39,15H40V16H39zM41,15H42V16H41zM42,15H43V16H42zM46,15H47V16H46zM2,16H3V17H2zM5,16H6V17H5zM8,16H9V17H8zM11,16H12V17H11zM14,16H15V17H14zM16,16H17V17H16zM17,16H18V17H17zM19,16H20V17H19zM20,16H21V17H20zM21,16H22V17H21zM24,16H25V17H24zM26,16H27V17H26zM29,16H30V17H29zM32,16H33V17H32zM35,16H36V17H35zM36,16H37V17H36zM37,16H38V17H37zM38,16H39V17H38zM39,16H40V17H39zM40,16H41V17H40zM41,16H42V17H41zM44,16H45V17H44zM2,17H3V18H2zM3,17H4V18H3zM4,17H5V18H4zM11,17H12V18H11zM12,17H13V18H12zM15,17H16V18H15zM17,17H18V18H17zM18,17H19V18H18zM19,17H20V18H19zM20,17H21V18H20zM22,17H23V18H22zM24,17H25V18H24zM26,17H27V18H26zM28,17H29V18H28zM32,17H33V18H32zM33,17H34V18H33zM35,17H36V18H35zM36,17H37V18H36zM40,17H41V18H40zM41,17H42V18H41zM43,17H44V18H43zM44,17H45V18H44zM46,17H47V18H46zM4,18H5V19H4zM5,18H6V19H5zM8,18H9V19H8zM10,18H11V19H10zM13,18H14V19H13zM14,18H15V19H14zM17,18H18V19H17zM18,18H19V19H18zM19,18H20V19H19zM22,18H23V19H22zM24,18H25V19H24zM27,18H28V19H27zM28,18H29V19H28zM31,18H32V19H31zM32,18H33V19H32zM35,18H36V19H35zM36,18H37V19H36zM40,18H41V19H40zM43,18H44V19H43zM46,18H47V19H46zM7,19H8V20H7zM9,19H10V20H9zM10,19H11V20H10zM11,19H12V20H11zM14,19H15V20H14zM16,19H17V20H16zM18,19H19V20H18zM24,19H25V20H24zM25,19H26V20H25zM27,19H28V20H27zM28,19H29V20H28zM30,19H31V20H30zM32,19H33V20H32zM35,19H36V20H35zM38,19H39V20H38zM39,19H40V20H39zM41,19H42V20H41zM43,19H44V20H43zM46,19H47V20H46zM2,20H3V21H2zM4,20H5V21H4zM5,20H6V21H5zM7,20H8V21H7zM8,20H9V21H8zM9,20H10V21H9zM13,20H14V21H13zM15,20H16V21H15zM16,20H17V21H16zM19,20H20V21H19zM24,20H25V21H24zM26,20H27V21H26zM29,20H30V21H29zM32,20H33V21H32zM34,20H35V21H34zM38,20H39V21H38zM39,20H40V21H39zM42,20H43V21H42zM44,20H45V21H44zM45,20H46V21H45zM46,20H47V21H46zM5,21H6V22H5zM9,21H10V22H9zM11,21H12V22H11zM12,21H13V22H12zM15,21H16V22H15zM17,21H18V22H17zM19,21H20V22H19zM22,21H23V22H22zM25,21H26V22H25zM26,21H27V22H26zM27,21H28V22H27zM28,21H29V22H28zM29,21H30V22H29zM31,21H32V22H31zM34,21H35V22H34zM35,21H36V22H35zM36,21H37V22H36zM38,21H39V22H38zM39,21H40V22H39zM42,21H43V22H42zM43,21H44V22H43zM44,21H45V22H44zM3,22H4V23H3zM6,22H7V23H6zM7,22H8V23H7zM8,22H9V23H8zM9,22H10V23H9zM10,22H11V23H10zM12,22H13V23H12zM15,22H16V23H15zM16,22H17V23H16zM20,22H21V23H20zM22,22H23V23H22zM23,22H24V23H23zM24,22H25V23H24zM25,22H26V23H25zM26,22H27V23H26zM28,22H29V23H28zM33,22H34V23H33zM36,22H37V23H36zM38,22H39V23H38zM39,22H40V23H39zM40,22H41V23H40zM41,22H42V23H41zM42,22H43V23H42zM45,22H46V23H45zM3,23H4V24H3zM5,23H6V24H5zM6,23H7V24H6zM10,23H11V24H10zM11,23H12V24H11zM14,23H15V24H14zM15,23H16V24H15zM16,23H17V24H16zM18,23H19V24H18zM20,23H21V24H20zM21,23H22V24H21zM22,23H23V24H22zM26,23H27V24H26zM27,23H28V24H27zM29,23H30V24H29zM30,23H31V24H30zM31,23H32V24H31zM33,23H34V24H33zM34,23H35V24H34zM35,23H36V24H35zM36,23H37V24H36zM37,23H38V24H37zM38,23H39V24H38zM42,23H43V24H42zM43,23H44V24H43zM5,24H6V25H5zM6,24H7V25H6zM8,24H9V25H8zM10,24H11V25H10zM12,24H13V25H12zM13,24H14V25H13zM14,24H15V25H14zM15,24H16V25H15zM16,24H17V25H16zM17,24H18V25H17zM22,24H23V25H22zM24,24H25V25H24zM26,24H27V25H26zM27,24H28V25H27zM28,24H29V25H28zM29,24H30V25H29zM30,24H31V25H30zM32,24H33V25H32zM33,24H34V25H33zM35,24H36V25H35zM36,24H37V25H36zM38,24H39V25H38zM40,24H41V25H40zM42,24H43V25H42zM45,24H46V25H45zM2,25H3V26H2zM3,25H4V26H3zM4,25H5V26H4zM6,25H7V26H6zM10,25H11V26H10zM11,25H12V26H11zM12,25H13V26H12zM14,25H15V26H14zM15,25H16V26H15zM19,25H20V26H19zM20,25H21V26H20zM22,25H23V26H22zM26,25H27V26H26zM27,25H28V26H27zM28,25H29V26H28zM29,25H30V26H29zM31,25H32V26H31zM33,25H34V26H33zM38,25H39V26H38zM42,25H43V26H42zM43,25H44V26H43zM44,25H45V26H44zM45,25H46V26H45zM46,25H47V26H46zM3,26H4V27H3zM4,26H5V27H4zM5,26H6V27H5zM6,26H7V27H6zM7,26H8V27H7zM8,26H9V27H8zM9,26H10V27H9zM10,26H11V27H10zM11,26H12V27H11zM15,26H16V27H15zM17,26H18V27H17zM18,26H19V27H18zM20,26H21V27H20zM21,26H22V27H21zM22,26H23V27H22zM23,26H24V27H23zM24,26H25V27H24zM25,26H26V27H25zM26,26H27V27H26zM27,26H28V27H27zM28,26H29V27H28zM30,26H31V27H30zM32,26H33V27H32zM33,26H34V27H33zM34,26H35V27H34zM35,26H36V27H35zM37,26H38V27H37zM38,26H39V27H38zM39,26H40V27H39zM40,26H41V27H40zM41,26H42V27H41zM42,26H43V27H42zM43,26H44V27H43zM45,26H46V27H45zM2,27H3V28H2zM3,27H4V28H3zM7,27H8V28H7zM14,27H15V28H14zM15,27H16V28H15zM17,27H18V28H17zM19,27H20V28H19zM21,27H22V28H21zM22,27H23V28H22zM23,27H24V28H23zM24,27H25V28H24zM26,27H27V28H26zM29,27H30V28H29zM31,27H32V28H31zM33,27H34V28H33zM37,27H38V28H37zM38,27H39V28H38zM41,27H42V28H41zM43,27H44V28H43zM45,27H46V28H45zM46,27H47V28H46zM3,28H4V29H3zM4,28H5V29H4zM6,28H7V29H6zM8,28H9V29H8zM9,28H10V29H9zM10,28H11V29H10zM13,28H14V29H13zM15,28H16V29H15zM19,28H20V29H19zM20,28H21V29H20zM25,28H26V29H25zM26,28H27V29H26zM27,28H28V29H27zM28,28H29V29H28zM31,28H32V29H31zM35,28H36V29H35zM37,28H38V29H37zM39,28H40V29H39zM43,28H44V29H43zM2,29H3V30H2zM4,29H5V30H4zM7,29H8V30H7zM9,29H10V30H9zM10,29H11V30H10zM13,29H14V30H13zM14,29H15V30H14zM15,29H16V30H15zM19,29H20V30H19zM22,29H23V30H22zM24,29H25V30H24zM27,29H28V30H27zM32,29H33V30H32zM33,29H34V30H33zM35,29H36V30H35zM37,29H38V30H37zM38,29H39V30H38zM42,29H43V30H42zM43,29H44V30H43zM44,29H45V30H44zM3,30H4V31H3zM5,30H6V31H5zM6,30H7V31H6zM7,30H8V31H7zM8,30H9V31H8zM9,30H10V31H9zM10,30H11V31H10zM11,30H12V31H11zM12,30H13V31H12zM15,30H16V31H15zM16,30H17V31H16zM22,30H23V31H22zM23,30H24V31H23zM25,30H26V31H25zM29,30H30V31H29zM30,30H31V31H30zM31,30H32V31H31zM32,30H33V31H32zM36,30H37V31H36zM42,30H43V31H42zM4,31H5V32H4zM10,31H11V32H10zM13,31H14V32H13zM16,31H17V32H16zM17,31H18V32H17zM18,31H19V32H18zM22,31H23V32H22zM24,31H25V32H24zM25,31H26V32H25zM26,31H27V32H26zM28,31H29V32H28zM30,31H31V32H30zM32,31H33V32H32zM35,31H36V32H35zM39,31H40V32H39zM40,31H41V32H40zM41,31H42V32H41zM43,31H44V32H43zM46,31H47V32H46zM2,32H3V33H2zM5,32H6V33H5zM6,32H7V33H6zM8,32H9V33H8zM10,32H11V33H10zM12,32H13V33H12zM17,32H18V33H17zM20,32H21V33H20zM23,32H24V33H23zM24,32H25V33H24zM29,32H30V33H29zM31,32H32V33H31zM32,32H33V33H32zM34,32H35V33H34zM40,32H41V33H40zM41,32H42V33H41zM42,32H43V33H42zM44,32H45V33H44zM45,32H46V33H45zM46,32H47V33H46zM3,33H4V34H3zM6,33H7V34H6zM7,33H8V34H7zM10,33H11V34H10zM13,33H14V34H13zM15,33H16V34H15zM16,33H17V34H16zM17,33H18V34H17zM19,33H20V34H19zM21,33H22V34H21zM22,33H23V34H22zM23,33H24V34H23zM24,33H25V34H24zM31,33H32V34H31zM34,33H35V34H34zM35,33H36V34H35zM37,33H38V34H37zM40,33H41V34H40zM41,33H42V34H41zM44,33H45V34H44zM4,34H5V35H4zM6,34H7V35H6zM7,34H8V35H7zM8,34H9V35H8zM9,34H10V35H9zM14,34H15V35H14zM15,34H16V35H15zM18,34H19V35H18zM21,34H22V35H21zM24,34H25V35H24zM25,34H26V35H25zM28,34H29V35H28zM30,34H31V35H30zM31,34H32V35H31zM33,34H34V35H33zM42,34H43V35H42zM43,34H44V35H43zM3,35H4V36H3zM4,35H5V36H4zM5,35H6V36H5zM7,35H8V36H7zM9,35H10V36H9zM10,35H11V36H10zM11,35H12V36H11zM12,35H13V36H12zM14,35H15V36H14zM15,35H16V36H15zM16,35H17V36H16zM18,35H19V36H18zM19,35H20V36H19zM20,35H21V36H20zM23,35H24V36H23zM25,35H26V36H25zM26,35H27V36H26zM32,35H33V36H32zM36,35H37V36H36zM42,35H43V36H42zM43,35H44V36H43zM44,35H45V36H44zM45,35H46V36H45zM6,36H7V37H6zM8,36H9V37H8zM9,36H10V37H9zM10,36H11V37H10zM11,36H12V37H11zM12,36H13V37H12zM14,36H15V37H14zM16,36H17V37H16zM17,36H18V37H17zM18,36H19V37H18zM19,36H20V37H19zM20,36H21V37H20zM22,36H23V37H22zM24,36H25V37H24zM29,36H30V37H29zM31,36H32V37H31zM33,36H34V37H33zM34,36H35V37H34zM36,36H37V37H36zM38,36H39V37H38zM44,36H45V37H44zM3,37H4V38H3zM4,37H5V38H4zM5,37H6V38H5zM6,37H7V38H6zM9,37H10V38H9zM10,37H11V38H10zM12,37H13V38H12zM13,37H14V38H13zM14,37H15V38H14zM15,37H16V38H15zM18,37H19V38H18zM19,37H20V38H19zM25,37H26V38H25zM26,37H27V38H26zM27,37H28V38H27zM28,37H29V38H28zM30,37H31V38H30zM32,37H33V38H32zM34,37H35V38H34zM36,37H37V38H36zM37,37H38V38H37zM40,37H41V38H40zM43,37H44V38H43zM44,37H45V38H44zM45,37H46V38H45zM46,37H47V38H46zM2,38H3V39H2zM5,38H6V39H5zM6,38H7V39H6zM8,38H9V39H8zM9,38H10V39H9zM13,38H14V39H13zM14,38H15V39H14zM16,38H17V39H16zM18,38H19V39H18zM19,38H20V39H19zM20,38H21V39H20zM22,38H23V39H22zM23,38H24V39H23zM24,38H25V39H24zM25,38H26V39H25zM26,38H27V39H26zM28,38H29V39H28zM29,38H30V39H29zM31,38H32V39H31zM32,38H33V39H32zM34,38H35V39H34zM36,38H37V39H36zM37,38H38V39H37zM38,38H39V39H38zM39,38H40V39H39zM40,38H41V39H40zM41,38H42V39H41zM42,38H43V39H42zM45,38H46V39H45zM46,38H47V39H46zM10,39H11V40H10zM11,39H12V40H11zM12,39H13V40H12zM14,39H15V40H14zM16,39H17V40H16zM19,39H20V40H19zM20,39H21V40H20zM21,39H22V40H21zM22,39H23V40H22zM26,39H27V40H26zM28,39H29V40H28zM30,39H31V40H30zM31,39H32V40H31zM32,39H33V40H32zM34,39H35V40H34zM38,39H39V40H38zM42,39H43V40H42zM44,39H45V40H44zM45,39H46V40H45zM46,39H47V40H46zM2,40H3V41H2zM3,40H4V41H3zM4,40H5V41H4zM5,40H6V41H5zM6,40H7V41H6zM7,40H8V41H7zM8,40H9V41H8zM11,40H12V41H11zM14,40H15V41H14zM17,40H18V41H17zM18,40H19V41H18zM20,40H21V41H20zM22,40H23V41H22zM24,40H25V41H24zM26,40H27V41H26zM30,40H31V41H30zM31,40H32V41H31zM33,40H34V41H33zM35,40H36V41H35zM36,40H37V41H36zM38,40H39V41H38zM40,40H41V41H40zM42,40H43V41H42zM45,40H46V41H45zM2,41H3V42H2zM8,41H9V42H8zM10,41H11V42H10zM13,41H14V42H13zM17,41H18V42H17zM20,41H21V42H20zM22,41H23V42H22zM26,41H27V42H26zM27,41H28V42H27zM28,41H29V42H28zM29,41H30V42H29zM32,41H33V42H32zM33,41H34V42H33zM37,41H38V42H37zM38,41H39V42H38zM42,41H43V42H42zM43,41H44V42H43zM44,41H45V42H44zM45,41H46V42H45zM46,41H47V42H46zM2,42H3V43H2zM4,42H5V43H4zM5,42H6V43H5zM6,42H7V43H6zM8,42H9V43H8zM11,42H12V43H11zM15,42H16V43H15zM17,42H18V43H17zM18,42H19V43H18zM22,42H23V43H22zM23,42H24V43H23zM24,42H25V43H24zM25,42H26V43H25zM26,42H27V43H26zM27,42H28V43H27zM29,42H30V43H29zM30,42H31V43H30zM33,42H34V43H33zM37,42H38V43H37zM38,42H39V43H38zM39,42H40V43H39zM40,42H41V43H40zM41,42H42V43H41zM42,42H43V43H42zM45,42H46V43H45zM2,43H3V44H2zM4,43H5V44H4zM5,43H6V44H5zM6,43H7V44H6zM8,43H9V44H8zM11,43H12V44H11zM12,43H13V44H12zM13,43H14V44H13zM14,43H15V44H14zM16,43H17V44H16zM20,43H21V44H20zM22,43H23V44H22zM23,43H24V44H23zM25,43H26V44H25zM26,43H27V44H26zM27,43H28V44H27zM29,43H30V44H29zM30,43H31V44H30zM33,43H34V44H33zM35,43H36V44H35zM41,43H42V44H41zM42,43H43V44H42zM43,43H44V44H43zM45,43H46V44H45zM46,43H47V44H46zM2,44H3V45H2zM4,44H5V45H4zM5,44H6V45H5zM6,44H7V45H6zM8,44H9V45H8zM11,44H12V45H11zM13,44H14V45H13zM14,44H15V45H14zM15,44H16V45H15zM16,44H17V45H16zM19,44H20V45H19zM21,44H22V45H21zM22,44H23V45H22zM23,44H24V45H23zM24,44H25V45H24zM25,44H26V45H25zM26,44H27V45H26zM27,44H28V45H27zM28,44H29V45H28zM29,44H30V45H29zM30,44H31V45H30zM31,44H32V45H31zM32,44H33V45H32zM33,44H34V45H33zM34,44H35V45H34zM35,44H36V45H35zM38,44H39V45H38zM42,44H43V45H42zM43,44H44V45H43zM45,44H46V45H45zM46,44H47V45H46zM2,45H3V46H2zM8,45H9V46H8zM11,45H12V46H11zM12,45H13V46H12zM13,45H14V46H13zM15,45H16V46H15zM16,45H17V46H16zM18,45H19V46H18zM20,45H21V46H20zM25,45H26V46H25zM27,45H28V46H27zM35,45H36V46H35zM36,45H37V46H36zM37,45H38V46H37zM41,45H42V46H41zM43,45H44V46H43zM44,45H45V46H44zM2,46H3V47H2zM3,46H4V47H3zM4,46H5V47H4zM5,46H6V47H5zM6,46H7V47H6zM7,46H8V47H7zM8,46H9V47H8zM12,46H13V47H12zM13,46H14V47H13zM14,46H15V47H14zM18,46H19V47H18zM19,46H20V47H19zM21,46H22V47H21zM24,46H25V47H24zM25,46H26V47H25zM26,46H27V47H26zM27,46H28V47H27zM33,46H34V47H33zM34,46H35V47H34zM35,46H36V47H35zM36,46H37V47H36zM39,46H40V47H39zM40,46H41V47H40zM41,46H42V47H41zM45,46H46V47H45z" id="qr-path" fill="#000000" fill-opacity="1" fill-rule="nonzero" stroke="none" /></svg>