<?xml version='1.0' encoding='UTF-8'?>
<svg width="90mm" height="90mm" version="1.1" viewBox="0 0 90 90" xmlns="http://www.w3.org/2000/svg"><path d="M4,4H6V6H4zM6,4H8V6H6zM8,4H10V6H8zM10,4H12V6H10zM12,4H14V6H12zM14,4H16V6H14zM16,4H18V6H16zM20,4H22V6H20zM24,4H26V6H24zM28,4H30V6H28zM30,4H32V6H30zM32,4H34V6H32zM34,4H36V6H34zM36,4H38V6H36zM38,4H40V6H38zM40,4H42V6H40zM42,4H44V6H42zM44,4H46V6H44zM52,4H54V6H52zM54,4H56V6H54zM56,4H58V6H56zM58,4H60V6H58zM66,4H68V6H66zM72,4H74V6H72zM74,4H76V6H74zM76,4H78V6H76zM78,4H80V6H78zM80,4H82V6H80zM82,4H84V6H82zM84,4H86V6H84zM4,6H6V8H4zM16,6H18V8H16zM20,6H22V8H20zM22,6H24V8H22zM24,6H26V8H24zM26,6H28V8H26zM28,6H30V8H28zM30,6H32V8H30zM32,6H34V8H32zM36,6H38V8H36zM40,6H42V8H40zM46,6H48V8H46zM50,6H52V8H50zM52,6H54V8H52zM54,6H56V8H54zM56,6H58V8H56zM58,6H60V8H58zM62,6H64V8H62zM68,6H70V8H68zM72,6H74V8H72zM84,6H86V8H84zM4,8H6V10H4zM8,8H10V10H8zM10,8H12V10H10zM12,8H14V10H12zM16,8H18V10H16zM22,8H24V10H22zM24,8H26V10H24zM26,8H28V10H26zM28,8H30V10H28zM30,8H32V10H30zM34,8H36V10H34zM42,8H44V10H42zM50,8H52V10H50zM52,8H54V10H52zM54,8H56V10H54zM60,8H62V10H60zM62,8H64V10H62zM66,8H68V10H66zM72,8H74V10H72zM76,8H78V10H76zM78,8H80V10H78zM80,8H82V10H80zM84,8H86V10H84zM4,10H6V12H4zM8,10H10V12H8zM10,10H12V12H10zM12,10H14V12H12zM16,10H18V12H16zM20,10H22V12H20zM24,10H26V12H24zM32,10H34V12H32zM34,10H36V12H34zM36,10H38V12H36zM46,10H48V12H46zM50,10H52V12H50zM54,10H56V12H54zM56,10H58V12H56zM62,10H64V12H62zM66,10H68V12H66zM72,10H74V12H72zM76,10H78V12H76zM78,10H80V12H78zM80,10H82V12H80zM84,10H86V12H84zM4,12H6V14H4zM8,12H10V14H8zM10,12H12V14H10zM12,12H14V14H12zM16,12H18V14H16zM20,12H22V14H20zM26,12H28V14H26zM30,12H32V14H30zM38,12H40V14H38zM40,12H42V14H40zM42,12H44V14H42zM52,12H54V14H52zM54,12H56V14H54zM56,12H58V14H56zM58,12H60V14H58zM60,12H62V14H60zM72,12H74V14H72zM76,12H78V14H76zM78,12H80V14H78zM80,12H82V14H80zM84,12H86V14H84zM4,14H6V16H4zM16,14H18V16H16zM20,14H22V16H20zM22,14H24V16H22zM26,14H28V16H26zM28,14H30V16H28zM30,14H32V16H30zM32,14H34V16H32zM34,14H36V16H34zM40,14H42V16H40zM48,14H50V16H48zM50,14H52V16H50zM54,14H56V16H54zM58,14H60V16H58zM60,14H62V16H60zM62,14H64V16H62zM64,14H66V16H64zM66,14H68V16H66zM68,14H70V16H68zM72,14H74V16H72zM84,14H86V16H84zM4,16H6V18H4zM6,16H8V18H6zM8,16H10V18H8zM10,16H12V18H10zM12,16H14V18H12zM14,16H16V18H14zM16,16H18V18H16zM20,16H22V18H20zM24,16H26V18H24zM28,16H30V18H28zM32,16H34V18H32zM36,16H38V18H36zM40,16H42V18H40zM44,16H46V18H44zM48,16H50V18H48zM52,16H54V18H52zM56,16H58V18H56zM60,16H62V18H60zM64,16H66V18H64zM68,16H70V18H68zM72,16H74V18H72zM74,16H76V18H74zM76,16H78V18H76zM78,16H80V18H78zM80,16H82V18H80zM82,16H84V18H82zM84,16H86V18H84zM24,18H26V20H24zM30,18H32V20H30zM32,18H34V20H32zM34,18H36V20H34zM36,18H38V20H36zM38,18H40V20H38zM42,18H44V20H42zM44,18H46V20H44zM46,18H48V20H46zM58,18H60V20H58zM60,18H62V20H60zM62,18H64V20H62zM64,18H66V20H64zM66,18H68V20H66zM68,18H70V20H68zM10,20H12V22H10zM16,20H18V22H16zM22,20H24V22H22zM30,20H32V22H30zM38,20H40V22H38zM40,20H42V22H40zM44,20H46V22H44zM46,20H48V22H46zM48,20H50V22H48zM50,20H52V22H50zM52,20H54V22H52zM54,20H56V22H54zM56,20H58V22H56zM58,20H60V22H58zM60,20H62V22H60zM66,20H68V22H66zM74,20H76V22H74zM76,20H78V22H76zM78,20H80V22H78zM82,20H84V22H82zM84,20H86V22H84zM4,22H6V24H4zM6,22H8V24H6zM10,22H12V24H10zM18,22H20V24H18zM20,22H22V24H20zM22,22H24V24H22zM26,22H28V24H26zM28,22H30V24H28zM32,22H34V24H32zM34,22H36V24H34zM40,22H42V24H40zM42,22H44V24H42zM44,22H46V24H44zM46,22H48V24H46zM52,22H54V24H52zM56,22H58V24H56zM60,22H62V24H60zM68,22H70V24H68zM70,22H72V24H70zM72,22H74V24H72zM74,22H76V24H74zM78,22H80V24H78zM80,22H82V24H80zM82,22H84V24H82zM4,24H6V26H4zM6,24H8V26H6zM12,24H14V26H12zM16,24H18V26H16zM18,24H20V26H18zM22,24H24V26H22zM26,24H28V26H26zM30,24H32V26H30zM34,24H36V26H34zM36,24H38V26H36zM38,24H40V26H38zM42,24H44V26H42zM46,24H48V26H46zM48,24H50V26H48zM52,24H54V26H52zM60,24H62V26H60zM62,24H64V26H62zM66,24H68V26H66zM70,24H72V26H70zM72,24H74V26H72zM76,24H78V26H76zM78,24H80V26H78zM80,24H82V26H80zM82,24H84V26H82zM4,26H6V28H4zM6,26H8V28H6zM10,26H12V28H10zM22,26H24V28H22zM26,26H28V28H26zM28,26H30V28H28zM34,26H36V28H34zM36,26H38V28H36zM38,26H40V28H38zM40,26H42V28H40zM46,26H48V28H46zM48,26H50V28H48zM52,26H54V28H52zM80,26H82V28H80zM6,28H8V30H6zM10,28H12V30H10zM16,28H18V30H16zM20,28H22V30H20zM22,28H24V30H22zM32,28H34V30H32zM36,28H38V30H36zM38,28H40V30H38zM40,28H42V30H40zM44,28H46V30H44zM46,28H48V30H46zM48,28H50V30H48zM52,28H54V30H52zM54,28H56V30H54zM56,28H58V30H56zM62,28H64V30H62zM66,28H68V30H66zM68,28H70V30H68zM72,28H74V30H72zM74,28H76V30H74zM78,28H80V30H78zM82,28H84V30H82zM10,30H12V32H10zM14,30H16V32H14zM20,30H22V32H20zM22,30H24V32H22zM24,30H26V32H24zM28,30H30V32H28zM30,30H32V32H30zM40,30H42V32H40zM44,30H46V32H44zM46,30H48V32H46zM48,30H50V32H48zM50,30H52V32H50zM52,30H54V32H52zM58,30H60V32H58zM60,30H62V32H60zM62,30H64V32H62zM68,30H70V32H68zM82,30H84V32H82zM8,32H10V34H8zM12,32H14V34H12zM16,32H18V34H16zM24,32H26V34H24zM26,32H28V34H26zM28,32H30V34H28zM36,32H38V34H36zM48,32H50V34H48zM54,32H56V34H54zM64,32H66V34H64zM66,32H68V34H66zM72,32H74V34H72zM74,32H76V34H74zM78,32H80V34H78zM80,32H82V34H80zM84,32H86V34H84zM4,34H6V36H4zM10,34H12V36H10zM12,34H14V36H12zM18,34H20V36H18zM22,34H24V36H22zM30,34H32V36H30zM34,34H36V36H34zM38,34H40V36H38zM40,34H42V36H40zM46,34H48V36H46zM50,34H52V36H50zM56,34H58V36H56zM58,34H60V36H58zM62,34H64V36H62zM64,34H66V36H64zM68,34H70V36H68zM72,34H74V36H72zM76,34H78V36H76zM4,36H6V38H4zM6,36H8V38H6zM8,36H10V38H8zM10,36H12V38H10zM14,36H16V38H14zM16,36H18V38H16zM18,36H20V38H18zM22,36H24V38H22zM24,36H26V38H24zM32,36H34V38H32zM34,36H36V38H34zM36,36H38V38H36zM38,36H40V38H38zM44,36H46V38H44zM50,36H52V38H50zM56,36H58V38H56zM62,36H64V38H62zM74,36H76V38H74zM78,36H80V38H78zM84,36H86V38H84zM6,38H8V40H6zM8,38H10V40H8zM10,38H12V40H10zM18,38H20V40H18zM24,38H26V40H24zM30,38H32V40H30zM40,38H42V40H40zM42,38H44V40H42zM52,38H54V40H52zM54,38H56V40H54zM60,38H62V40H60zM62,38H64V40H62zM72,38H74V40H72zM74,38H76V40H74zM82,38H84V40H82zM84,38H86V40H84zM4,40H6V42H4zM6,40H8V42H6zM8,40H10V42H8zM10,40H12V42H10zM12,40H14V42H12zM16,40H18V42H16zM18,40H20V42H18zM20,40H22V42H20zM26,40H28V42H26zM28,40H30V42H28zM30,40H32V42H30zM32,40H34V42H32zM38,40H40V42H38zM42,40H44V42H42zM44,40H46V42H44zM50,40H52V42H50zM52,40H54V42H52zM54,40H56V42H54zM62,40H64V42H62zM70,40H72V42H70zM72,40H74V42H72zM76,40H78V42H76zM82,40H84V42H82zM84,40H86V42H84zM4,42H6V44H4zM12,42H14V44H12zM14,42H16V44H14zM20,42H22V44H20zM22,42H24V44H22zM24,42H26V44H24zM30,42H32V44H30zM32,42H34V44H32zM34,42H36V44H34zM36,42H38V44H36zM38,42H40V44H38zM40,42H42V44H40zM42,42H44V44H42zM46,42H48V44H46zM50,42H52V44H50zM70,42H72V44H70zM72,42H74V44H72zM74,42H76V44H74zM78,42H80V44H78zM82,42H84V44H82zM8,44H10V46H8zM10,44H12V46H10zM12,44H14V46H12zM14,44H16V46H14zM16,44H18V46H16zM20,44H22V46H20zM30,44H32V46H30zM38,44H40V46H38zM42,44H44V46H42zM52,44H54V46H52zM54,44H56V46H54zM58,44H60V46H58zM60,44H62V46H60zM62,44H64V46H62zM70,44H72V46H70zM72,44H74V46H72zM74,44H76V46H74zM80,44H82V46H80zM82,44H84V46H82zM12,46H14V48H12zM14,46H16V48H14zM22,46H24V48H22zM24,46H26V48H24zM28,46H30V48H28zM30,46H32V48H30zM32,46H34V48H32zM34,46H36V48H34zM38,46H40V48H38zM40,46H42V48H40zM42,46H44V48H42zM44,46H46V48H44zM46,46H48V48H46zM48,46H50V48H48zM54,46H56V48H54zM60,46H62V48H60zM72,46H74V48H72zM74,46H76V48H74zM82,46H84V48H82zM84,46H86V48H84zM8,48H10V50H8zM12,48H14V50H12zM14,48H16V50H14zM16,48H18V50H16zM18,48H20V50H18zM24,48H26V50H24zM26,48H28V50H26zM32,48H34V50H32zM34,48H36V50H34zM44,48H46V50H44zM50,48H52V50H50zM52,48H54V50H52zM56,48H58V50H56zM62,48H64V50H62zM66,48H68V50H66zM70,48H72V50H70zM72,48H74V50H72zM76,48H78V50H76zM82,48H84V50H82zM4,50H6V52H4zM8,50H10V52H8zM10,50H12V52H10zM12,50H14V52H12zM14,50H16V52H14zM20,50H22V52H20zM24,50H26V52H24zM28,50H30V52H28zM32,50H34V52H32zM36,50H38V52H36zM38,50H40V52H38zM40,50H42V52H40zM44,50H46V52H44zM46,50H48V52H46zM50,50H52V52H50zM52,50H54V52H52zM56,50H58V52H56zM58,50H60V52H58zM60,50H62V52H60zM64,50H66V52H64zM66,50H68V52H66zM68,50H70V52H68zM72,50H74V52H72zM80,50H82V52H80zM84,50H86V52H84zM6,52H8V54H6zM16,52H18V54H16zM18,52H20V54H18zM26,52H28V54H26zM30,52H32V54H30zM32,52H34V54H32zM34,52H36V54H34zM36,52H38V54H36zM40,52H42V54H40zM42,52H44V54H42zM46,52H48V54H46zM50,52H52V54H50zM52,52H54V54H52zM56,52H58V54H56zM58,52H60V54H58zM62,52H64V54H62zM66,52H68V54H66zM68,52H70V54H68zM72,52H74V54H72zM74,52H76V54H74zM80,52H82V54H80zM84,52H86V54H84zM6,54H8V56H6zM8,54H10V56H8zM10,54H12V56H10zM14,54H16V56H14zM20,54H22V56H20zM28,54H30V56H28zM32,54H34V56H32zM34,54H36V56H34zM38,54H40V56H38zM44,54H46V56H44zM46,54H48V56H46zM54,54H56V56H54zM56,54H58V56H56zM62,54H64V56H62zM66,54H68V56H66zM78,54H80V56H78zM16,56H18V58H16zM18,56H20V58H18zM20,56H22V58H20zM22,56H24V58H22zM24,56H26V58H24zM28,56H30V58H28zM30,56H32V58H30zM34,56H36V58H34zM40,56H42V58H40zM44,56H46V58H44zM46,56H48V58H46zM48,56H50V58H48zM56,56H58V58H56zM60,56H62V58H60zM62,56H64V58H62zM68,56H70V58H68zM72,56H74V58H72zM74,56H76V58H74zM76,56H78V58H76zM84,56H86V58H84zM6,58H8V60H6zM8,58H10V60H8zM14,58H16V60H14zM22,58H24V60H22zM24,58H26V60H24zM30,58H32V60H30zM32,58H34V60H32zM34,58H36V60H34zM36,58H38V60H36zM38,58H40V60H38zM40,58H42V60H40zM42,58H44V60H42zM48,58H50V60H48zM54,58H56V60H54zM58,58H60V60H58zM60,58H62V60H60zM62,58H64V60H62zM64,58H66V60H64zM68,58H70V60H68zM74,58H76V60H74zM82,58H84V60H82zM4,60H6V62H4zM8,60H10V62H8zM10,60H12V62H10zM14,60H16V62H14zM16,60H18V62H16zM20,60H22V62H20zM22,60H24V62H22zM24,60H26V62H24zM30,60H32V62H30zM32,60H34V62H32zM34,60H36V62H34zM36,60H38V62H36zM42,60H44V62H42zM44,60H46V62H44zM46,60H48V62H46zM48,60H50V62H48zM52,60H54V62H52zM54,60H56V62H54zM62,60H64V62H62zM68,60H70V62H68zM82,60H84V62H82zM8,62H10V64H8zM10,62H12V64H10zM14,62H16V64H14zM20,62H22V64H20zM24,62H26V64H24zM26,62H28V64H26zM28,62H30V64H28zM30,62H32V64H30zM32,62H34V64H32zM34,62H36V64H34zM38,62H40V64H38zM40,62H42V64H40zM42,62H44V64H42zM46,62H48V64H46zM48,62H50V64H48zM50,62H52V64H50zM58,62H60V64H58zM60,62H62V64H60zM64,62H66V64H64zM66,62H68V64H66zM68,62H70V64H68zM72,62H74V64H72zM74,62H76V64H74zM84,62H86V64H84zM4,64H6V66H4zM8,64H10V66H8zM10,64H12V66H10zM12,64H14V66H12zM14,64H16V66H14zM16,64H18V66H16zM18,64H20V66H18zM20,64H22V66H20zM22,64H24V66H22zM34,64H36V66H34zM38,64H40V66H38zM44,64H46V66H44zM46,64H48V66H46zM48,64H50V66H48zM56,64H58V66H56zM58,64H60V66H58zM60,64H62V66H60zM68,64H70V66H68zM74,64H76V66H74zM76,64H78V66H76zM78,64H80V66H78zM82,64H84V66H82zM84,64H86V66H84zM10,66H12V68H10zM12,66H14V68H12zM14,66H16V68H14zM20,66H22V68H20zM32,66H34V68H32zM36,66H38V68H36zM40,66H42V68H40zM44,66H46V68H44zM52,66H54V68H52zM62,66H64V68H62zM64,66H66V68H64zM68,66H70V68H68zM70,66H72V68H70zM78,66H80V68H78zM82,66H84V68H82zM4,68H6V70H4zM10,68H12V70H10zM16,68H18V70H16zM20,68H22V70H20zM22,68H24V70H22zM26,68H28V70H26zM28,68H30V70H28zM34,68H36V70H34zM38,68H40V70H38zM40,68H42V70H40zM42,68H44V70H42zM44,68H46V70H44zM46,68H48V70H46zM50,68H52V70H50zM58,68H60V70H58zM68,68H70V70H68zM70,68H72V70H70zM72,68H74V70H72zM74,68H76V70H74zM76,68H78V70H76zM78,68H80V70H78zM80,68H82V70H80zM82,68H84V70H82zM84,68H86V70H84zM20,70H22V72H20zM24,70H26V72H24zM26,70H28V72H26zM30,70H32V72H30zM32,70H34V72H32zM34,70H36V72H34zM36,70H38V72H36zM40,70H42V72H40zM42,70H44V72H42zM44,70H46V72H44zM48,70H50V72H48zM50,70H52V72H50zM52,70H54V72H52zM54,70H56V72H54zM58,70H60V72H58zM60,70H62V72H60zM62,70H64V72H62zM64,70H66V72H64zM66,70H68V72H66zM68,70H70V72H68zM76,70H78V72H76zM78,70H80V72H78zM82,70H84V72H82zM84,70H86V72H84zM4,72H6V74H4zM6,72H8V74H6zM8,72H10V74H8zM10,72H12V74H10zM12,72H14V74H12zM14,72H16V74H14zM16,72H18V74H16zM22,72H24V74H22zM32,72H34V74H32zM34,72H36V74H34zM38,72H40V74H38zM40,72H42V74H40zM42,72H44V74H42zM44,72H46V74H44zM48,72H50V74H48zM50,72H52V74H50zM52,72H54V74H52zM56,72H58V74H56zM64,72H66V74H64zM68,72H70V74H68zM72,72H74V74H72zM76,72H78V74H76zM80,72H82V74H80zM82,72H84V74H82zM4,74H6V76H4zM16,74H18V76H16zM22,74H24V76H22zM30,74H32V76H30zM32,74H34V76H32zM38,74H40V76H38zM42,74H44V76H42zM50,74H52V76H50zM52,74H54V76H52zM58,74H60V76H58zM60,74H62V76H60zM64,74H66V76H64zM68,74H70V76H68zM76,74H78V76H76zM80,74H82V76H80zM84,74H86V76H84zM4,76H6V78H4zM8,76H10V78H8zM10,76H12V78H10zM12,76H14V78H12zM16,76H18V78H16zM22,76H24V78H22zM28,76H30V78H28zM30,76H32V78H30zM34,76H36V78H34zM36,76H38V78H36zM38,76H40V78H38zM40,76H42V78H40zM46,76H48V78H46zM48,76H50V78H48zM54,76H56V78H54zM60,76H62V78H60zM64,76H66V78H64zM68,76H70V78H68zM70,76H72V78H70zM72,76H74V78H72zM74,76H76V78H74zM76,76H78V78H76zM78,76H80V78H78zM82,76H84V78H82zM4,78H6V80H4zM8,78H10V80H8zM10,78H12V80H10zM12,78H14V80H12zM16,78H18V80H16zM20,78H22V80H20zM24,78H26V80H24zM28,78H30V80H28zM30,78H32V80H30zM32,78H34V80H32zM34,78H36V80H34zM38,78H40V80H38zM40,78H42V80H40zM42,78H44V80H42zM50,78H52V80H50zM54,78H56V80H54zM64,78H66V80H64zM66,78H68V80H66zM68,78H70V80H68zM70,78H72V80H70zM72,78H74V80H72zM76,78H78V80H76zM4,80H6V82H4zM8,80H10V82H8zM10,80H12V82H10zM12,80H14V82H12zM16,80H18V82H16zM22,80H24V82H22zM24,80H26V82H24zM26,80H28V82H26zM32,80H34V82H32zM34,80H36V82H34zM40,80H42V82H40zM44,80H46V82H44zM46,80H48V82H46zM48,80H50V82H48zM52,80H54V82H52zM60,80H62V82H60zM66,80H68V82H66zM68,80H70V82H68zM76,80H78V82H76zM80,80H82V82H80zM84,80H86V82H84zM4,82H6V84H4zM16,82H18V84H16zM26,82H28V84H26zM28,82H30V84H28zM36,82H38V84H36zM42,82H44V84H42zM46,82H48V84H46zM56,82H58V84H56zM58,82H60V84H58zM60,82H62V84H60zM62,82H64V84H62zM64,82H66V84H64zM68,82H70V84H68zM70,82H72V84H70zM74,82H76V84H74zM78,82H80V84H78zM82,82H84V84H82zM4,84H6V86H4zM6,84H8V86H6zM8,84H10V86H8zM10,84H12V86H10zM12,84H14V86H12zM14,84H16V86H14zM16,84H18V86H16zM24,84H26V86H24zM26,84H28V86H26zM32,84H34V86H32zM34,84H36V86H34zM36,84H38V86H36zM44,84H46V86H44zM46,84H48V86H46zM56,84H58V86H56zM62,84H64V86H62zM68,84H70V86H68zM72,84H74V86H72zM74,84H76V86H74zM76,84H78V86H76zM82,84H84V86H82z" id="qr-path" fill="#000000" fill-opacity="1" fill-rule="nonzero" stroke="none" /></svg>