<?xml version='1.0' encoding='UTF-8'?>
<svg width="90mm" height="90mm" version="1.1" viewBox="0 0 90 90" xmlns="http://www.w3.org/2000/svg"><path d="M4,4H6V6H4zM6,4H8V6H6zM8,4H10V6H8zM10,4H12V6H10zM12,4H14V6H12zM14,4H16V6H14zM16,4H18V6H16zM20,4H22V6H20zM22,4H24V6H22zM28,4H30V6H28zM38,4H40V6H38zM40,4H42V6H40zM42,4H44V6H42zM48,4H50V6H48zM52,4H54V6H52zM60,4H62V6H60zM62,4H64V6H62zM66,4H68V6H66zM68,4H70V6H68zM72,4H74V6H72zM74,4H76V6H74zM76,4H78V6H76zM78,4H80V6H78zM80,4H82V6H80zM82,4H84V6H82zM84,4H86V6H84zM4,6H6V8H4zM16,6H18V8H16zM20,6H22V8H20zM24,6H26V8H24zM32,6H34V8H32zM40,6H42V8H40zM46,6H48V8H46zM58,6H60V8H58zM60,6H62V8H60zM68,6H70V8H68zM72,6H74V8H72zM84,6H86V8H84zM4,8H6V10H4zM8,8H10V10H8zM10,8H12V10H10zM12,8H14V10H12zM16,8H18V10H16zM20,8H22V10H20zM22,8H24V10H22zM28,8H30V10H28zM32,8H34V10H32zM36,8H38V10H36zM38,8H40V10H38zM40,8H42V10H40zM42,8H44V10H42zM52,8H54V10H52zM56,8H58V10H56zM58,8H60V10H58zM66,8H68V10H66zM72,8H74V10H72zM76,8H78V10H76zM78,8H80V10H78zM80,8H82V10H80zM84,8H86V10H84zM4,10H6V12H4zM8,10H10V12H8zM10,10H12V12H10zM12,10H14V12H12zM16,10H18V12H16zM24,10H26V12H24zM26,10H28V12H26zM28,10H30V12H28zM30,10H32V12H30zM32,10H34V12H32zM34,10H36V12H34zM36,10H38V12H36zM42,10H44V12H42zM46,10H48V12H46zM52,10H54V12H52zM62,10H64V12H62zM64,10H66V12H64zM72,10H74V12H72zM76,10H78V12H76zM78,10H80V12H78zM80,10H82V12H80zM84,10H86V12H84zM4,12H6V14H4zM8,12H10V14H8zM10,12H12V14H10zM12,12H14V14H12zM16,12H18V14H16zM22,12H24V14H22zM24,12H26V14H24zM26,12H28V14H26zM30,12H32V14H30zM32,12H34V14H32zM34,12H36V14H34zM38,12H40V14H38zM44,12H46V14H44zM46,12H48V14H46zM52,12H54V14H52zM56,12H58V14H56zM60,12H62V14H60zM66,12H68V14H66zM68,12H70V14H68zM72,12H74V14H72zM76,12H78V14H76zM78,12H80V14H78zM80,12H82V14H80zM84,12H86V14H84zM4,14H6V16H4zM16,14H18V16H16zM20,14H22V16H20zM22,14H24V16H22zM24,14H26V16H24zM26,14H28V16H26zM34,14H36V16H34zM40,14H42V16H40zM42,14H44V16H42zM44,14H46V16H44zM46,14H48V16H46zM48,14H50V16H48zM50,14H52V16H50zM52,14H54V16H52zM54,14H56V16H54zM58,14H60V16H58zM60,14H62V16H60zM62,14H64V16H62zM72,14H74V16H72zM84,14H86V16H84zM4,16H6V18H4zM6,16H8V18H6zM8,16H10V18H8zM10,16H12V18H10zM12,16H14V18H12zM14,16H16V18H14zM16,16H18V18H16zM20,16H22V18H20zM24,16H26V18H24zM28,16H30V18H28zM32,16H34V18H32zM36,16H38V18H36zM40,16H42V18H40zM44,16H46V18H44zM48,16H50V18H48zM52,16H54V18H52zM56,16H58V18H56zM60,16H62V18H60zM64,16H66V18H64zM68,16H70V18H68zM72,16H74V18H72zM74,16H76V18H74zM76,16H78V18H76zM78,16H80V18H78zM80,16H82V18H80zM82,16H84V18H82zM84,16H86V18H84zM20,18H22V20H20zM22,18H24V20H22zM24,18H26V20H24zM26,18H28V20H26zM28,18H30V20H28zM30,18H32V20H30zM32,18H34V20H32zM34,18H36V20H34zM38,18H40V20H38zM40,18H42V20H40zM42,18H44V20H42zM44,18H46V20H44zM46,18H48V20H46zM50,18H52V20H50zM52,18H54V20H52zM58,18H60V20H58zM66,18H68V20H66zM68,18H70V20H68zM8,20H10V22H8zM10,20H12V22H10zM12,20H14V22H12zM16,20H18V22H16zM20,20H22V22H20zM22,20H24V22H22zM24,20H26V22H24zM26,20H28V22H26zM28,20H30V22H28zM32,20H34V22H32zM34,20H36V22H34zM38,20H40V22H38zM52,20H54V22H52zM54,20H56V22H54zM62,20H64V22H62zM66,20H68V22H66zM70,20H72V22H70zM72,20H74V22H72zM74,20H76V22H74zM80,20H82V22H80zM82,20H84V22H82zM84,20H86V22H84zM10,22H12V24H10zM12,22H14V24H12zM14,22H16V24H14zM20,22H22V24H20zM22,22H24V24H22zM26,22H28V24H26zM30,22H32V24H30zM36,22H38V24H36zM38,22H40V24H38zM42,22H44V24H42zM46,22H48V24H46zM48,22H50V24H48zM50,22H52V24H50zM52,22H54V24H52zM54,22H56V24H54zM60,22H62V24H60zM62,22H64V24H62zM64,22H66V24H64zM66,22H68V24H66zM68,22H70V24H68zM70,22H72V24H70zM72,22H74V24H72zM76,22H78V24H76zM80,22H82V24H80zM82,22H84V24H82zM6,24H8V26H6zM8,24H10V26H8zM10,24H12V26H10zM12,24H14V26H12zM14,24H16V26H14zM16,24H18V26H16zM20,24H22V26H20zM28,24H30V26H28zM32,24H34V26H32zM34,24H36V26H34zM38,24H40V26H38zM44,24H46V26H44zM48,24H50V26H48zM52,24H54V26H52zM54,24H56V26H54zM56,24H58V26H56zM58,24H60V26H58zM60,24H62V26H60zM62,24H64V26H62zM68,24H70V26H68zM72,24H74V26H72zM76,24H78V26H76zM4,26H6V28H4zM6,26H8V28H6zM8,26H10V28H8zM10,26H12V28H10zM18,26H20V28H18zM20,26H22V28H20zM22,26H24V28H22zM26,26H28V28H26zM30,26H32V28H30zM32,26H34V28H32zM38,26H40V28H38zM42,26H44V28H42zM46,26H48V28H46zM48,26H50V28H48zM50,26H52V28H50zM54,26H56V28H54zM56,26H58V28H56zM64,26H66V28H64zM66,26H68V28H66zM68,26H70V28H68zM76,26H78V28H76zM78,26H80V28H78zM6,28H8V30H6zM8,28H10V30H8zM12,28H14V30H12zM16,28H18V30H16zM24,28H26V30H24zM26,28H28V30H26zM36,28H38V30H36zM38,28H40V30H38zM40,28H42V30H40zM42,28H44V30H42zM44,28H46V30H44zM52,28H54V30H52zM54,28H56V30H54zM58,28H60V30H58zM62,28H64V30H62zM66,28H68V30H66zM70,28H72V30H70zM74,28H76V30H74zM78,28H80V30H78zM80,28H82V30H80zM84,28H86V30H84zM10,30H12V32H10zM20,30H22V32H20zM22,30H24V32H22zM26,30H28V32H26zM28,30H30V32H28zM30,30H32V32H30zM34,30H36V32H34zM38,30H40V32H38zM46,30H48V32H46zM50,30H52V32H50zM58,30H60V32H58zM60,30H62V32H60zM64,30H66V32H64zM66,30H68V32H66zM72,30H74V32H72zM74,30H76V32H74zM76,30H78V32H76zM82,30H84V32H82zM84,30H86V32H84zM8,32H10V34H8zM10,32H12V34H10zM12,32H14V34H12zM14,32H16V34H14zM16,32H18V34H16zM22,32H24V34H22zM36,32H38V34H36zM38,32H40V34H38zM44,32H46V34H44zM46,32H48V34H46zM50,32H52V34H50zM52,32H54V34H52zM54,32H56V34H54zM62,32H64V34H62zM64,32H66V34H64zM68,32H70V34H68zM70,32H72V34H70zM78,32H80V34H78zM80,32H82V34H80zM82,32H84V34H82zM6,34H8V36H6zM10,34H12V36H10zM22,34H24V36H22zM26,34H28V36H26zM36,34H38V36H36zM42,34H44V36H42zM46,34H48V36H46zM52,34H54V36H52zM54,34H56V36H54zM56,34H58V36H56zM60,34H62V36H60zM68,34H70V36H68zM72,34H74V36H72zM74,34H76V36H74zM78,34H80V36H78zM4,36H6V38H4zM12,36H14V38H12zM16,36H18V38H16zM24,36H26V38H24zM30,36H32V38H30zM36,36H38V38H36zM38,36H40V38H38zM42,36H44V38H42zM46,36H48V38H46zM54,36H56V38H54zM62,36H64V38H62zM68,36H70V38H68zM70,36H72V38H70zM74,36H76V38H74zM80,36H82V38H80zM82,36H84V38H82zM84,36H86V38H84zM4,38H6V40H4zM10,38H12V40H10zM14,38H16V40H14zM22,38H24V40H22zM24,38H26V40H24zM28,38H30V40H28zM32,38H34V40H32zM44,38H46V40H44zM54,38H56V40H54zM56,38H58V40H56zM60,38H62V40H60zM64,38H66V40H64zM66,38H68V40H66zM68,38H70V40H68zM72,38H74V40H72zM74,38H76V40H74zM76,38H78V40H76zM78,38H80V40H78zM80,38H82V40H80zM82,38H84V40H82zM84,38H86V40H84zM4,40H6V42H4zM6,40H8V42H6zM8,40H10V42H8zM10,40H12V42H10zM16,40H18V42H16zM18,40H20V42H18zM20,40H22V42H20zM24,40H26V42H24zM26,40H28V42H26zM28,40H30V42H28zM30,40H32V42H30zM34,40H36V42H34zM36,40H38V42H36zM38,40H40V42H38zM40,40H42V42H40zM42,40H44V42H42zM50,40H52V42H50zM52,40H54V42H52zM54,40H56V42H54zM56,40H58V42H56zM58,40H60V42H58zM60,40H62V42H60zM62,40H64V42H62zM64,40H66V42H64zM68,40H70V42H68zM76,40H78V42H76zM80,40H82V42H80zM8,42H10V44H8zM18,42H20V44H18zM20,42H22V44H20zM24,42H26V44H24zM26,42H28V44H26zM28,42H30V44H28zM32,42H34V44H32zM34,42H36V44H34zM42,42H44V44H42zM52,42H54V44H52zM54,42H56V44H54zM56,42H58V44H56zM60,42H62V44H60zM70,42H72V44H70zM76,42H78V44H76zM78,42H80V44H78zM82,42H84V44H82zM84,42H86V44H84zM16,44H18V46H16zM18,44H20V46H18zM22,44H24V46H22zM24,44H26V46H24zM26,44H28V46H26zM30,44H32V46H30zM34,44H36V46H34zM36,44H38V46H36zM40,44H42V46H40zM42,44H44V46H42zM46,44H48V46H46zM48,44H50V46H48zM50,44H52V46H50zM52,44H54V46H52zM56,44H58V46H56zM64,44H66V46H64zM80,44H82V46H80zM84,44H86V46H84zM4,46H6V48H4zM6,46H8V48H6zM8,46H10V48H8zM10,46H12V48H10zM12,46H14V48H12zM18,46H20V48H18zM24,46H26V48H24zM26,46H28V48H26zM34,46H36V48H34zM44,46H46V48H44zM46,46H48V48H46zM48,46H50V48H48zM50,46H52V48H50zM52,46H54V48H52zM54,46H56V48H54zM56,46H58V48H56zM60,46H62V48H60zM62,46H64V48H62zM64,46H66V48H64zM66,46H68V48H66zM72,46H74V48H72zM76,46H78V48H76zM78,46H80V48H78zM82,46H84V48H82zM84,46H86V48H84zM6,48H8V50H6zM8,48H10V50H8zM12,48H14V50H12zM14,48H16V50H14zM16,48H18V50H16zM18,48H20V50H18zM22,48H24V50H22zM26,48H28V50H26zM32,48H34V50H32zM38,48H40V50H38zM40,48H42V50H40zM42,48H44V50H42zM46,48H48V50H46zM50,48H52V50H50zM52,48H54V50H52zM56,48H58V50H56zM58,48H60V50H58zM62,48H64V50H62zM68,48H70V50H68zM72,48H74V50H72zM76,48H78V50H76zM78,48H80V50H78zM80,48H82V50H80zM6,50H8V52H6zM8,50H10V52H8zM12,50H14V52H12zM14,50H16V52H14zM22,50H24V52H22zM24,50H26V52H24zM30,50H32V52H30zM36,50H38V52H36zM38,50H40V52H38zM40,50H42V52H40zM42,50H44V52H42zM46,50H48V52H46zM50,50H52V52H50zM56,50H58V52H56zM58,50H60V52H58zM60,50H62V52H60zM72,50H74V52H72zM76,50H78V52H76zM78,50H80V52H78zM82,50H84V52H82zM84,50H86V52H84zM6,52H8V54H6zM10,52H12V54H10zM12,52H14V54H12zM16,52H18V54H16zM18,52H20V54H18zM20,52H22V54H20zM26,52H28V54H26zM28,52H30V54H28zM32,52H34V54H32zM38,52H40V54H38zM42,52H44V54H42zM46,52H48V54H46zM50,52H52V54H50zM52,52H54V54H52zM54,52H56V54H54zM56,52H58V54H56zM60,52H62V54H60zM62,52H64V54H62zM66,52H68V54H66zM70,52H72V54H70zM74,52H76V54H74zM6,54H8V56H6zM8,54H10V56H8zM10,54H12V56H10zM12,54H14V56H12zM20,54H22V56H20zM26,54H28V56H26zM28,54H30V56H28zM32,54H34V56H32zM34,54H36V56H34zM40,54H42V56H40zM42,54H44V56H42zM44,54H46V56H44zM46,54H48V56H46zM48,54H50V56H48zM54,54H56V56H54zM56,54H58V56H56zM60,54H62V56H60zM64,54H66V56H64zM66,54H68V56H66zM72,54H74V56H72zM74,54H76V56H74zM76,54H78V56H76zM78,54H80V56H78zM84,54H86V56H84zM10,56H12V58H10zM16,56H18V58H16zM18,56H20V58H18zM20,56H22V58H20zM26,56H28V58H26zM30,56H32V58H30zM34,56H36V58H34zM36,56H38V58H36zM38,56H40V58H38zM40,56H42V58H40zM44,56H46V58H44zM50,56H52V58H50zM52,56H54V58H52zM56,56H58V58H56zM58,56H60V58H58zM68,56H70V58H68zM70,56H72V58H70zM76,56H78V58H76zM82,56H84V58H82zM4,58H6V60H4zM6,58H8V60H6zM8,58H10V60H8zM14,58H16V60H14zM18,58H20V60H18zM22,58H24V60H22zM24,58H26V60H24zM26,58H28V60H26zM32,58H34V60H32zM44,58H46V60H44zM48,58H50V60H48zM50,58H52V60H50zM52,58H54V60H52zM58,58H60V60H58zM60,58H62V60H60zM66,58H68V60H66zM68,58H70V60H68zM76,58H78V60H76zM78,58H80V60H78zM82,58H84V60H82zM12,60H14V62H12zM16,60H18V62H16zM18,60H20V62H18zM24,60H26V62H24zM28,60H30V62H28zM36,60H38V62H36zM44,60H46V62H44zM48,60H50V62H48zM56,60H58V62H56zM58,60H60V62H58zM60,60H62V62H60zM62,60H64V62H62zM66,60H68V62H66zM68,60H70V62H68zM70,60H72V62H70zM78,60H80V62H78zM80,60H82V62H80zM4,62H6V64H4zM6,62H8V64H6zM10,62H12V64H10zM12,62H14V64H12zM18,62H20V64H18zM24,62H26V64H24zM26,62H28V64H26zM28,62H30V64H28zM34,62H36V64H34zM36,62H38V64H36zM38,62H40V64H38zM46,62H48V64H46zM48,62H50V64H48zM54,62H56V64H54zM56,62H58V64H56zM58,62H60V64H58zM66,62H68V64H66zM72,62H74V64H72zM74,62H76V64H74zM76,62H78V64H76zM78,62H80V64H78zM80,62H82V64H80zM84,62H86V64H84zM4,64H6V66H4zM12,64H14V66H12zM16,64H18V66H16zM18,64H20V66H18zM24,64H26V66H24zM32,64H34V66H32zM34,64H36V66H34zM36,64H38V66H36zM38,64H40V66H38zM42,64H44V66H42zM44,64H46V66H44zM52,64H54V66H52zM58,64H60V66H58zM60,64H62V66H60zM68,64H70V66H68zM70,64H72V66H70zM72,64H74V66H72zM74,64H76V66H74zM76,64H78V66H76zM78,64H80V66H78zM80,64H82V66H80zM4,66H6V68H4zM10,66H12V68H10zM14,66H16V68H14zM20,66H22V68H20zM24,66H26V68H24zM28,66H30V68H28zM32,66H34V68H32zM38,66H40V68H38zM42,66H44V68H42zM48,66H50V68H48zM58,66H60V68H58zM70,66H72V68H70zM72,66H74V68H72zM74,66H76V68H74zM76,66H78V68H76zM78,66H80V68H78zM82,66H84V68H82zM84,66H86V68H84zM4,68H6V70H4zM10,68H12V70H10zM16,68H18V70H16zM20,68H22V70H20zM24,68H26V70H24zM26,68H28V70H26zM28,68H30V70H28zM36,68H38V70H36zM40,68H42V70H40zM42,68H44V70H42zM44,68H46V70H44zM48,68H50V70H48zM58,68H60V70H58zM60,68H62V70H60zM62,68H64V70H62zM68,68H70V70H68zM70,68H72V70H70zM72,68H74V70H72zM74,68H76V70H74zM76,68H78V70H76zM78,68H80V70H78zM80,68H82V70H80zM20,70H22V72H20zM24,70H26V72H24zM28,70H30V72H28zM30,70H32V72H30zM32,70H34V72H32zM34,70H36V72H34zM36,70H38V72H36zM38,70H40V72H38zM44,70H46V72H44zM46,70H48V72H46zM48,70H50V72H48zM58,70H60V72H58zM60,70H62V72H60zM62,70H64V72H62zM68,70H70V72H68zM76,70H78V72H76zM82,70H84V72H82zM84,70H86V72H84zM4,72H6V74H4zM6,72H8V74H6zM8,72H10V74H8zM10,72H12V74H10zM12,72H14V74H12zM14,72H16V74H14zM16,72H18V74H16zM24,72H26V74H24zM30,72H32V74H30zM40,72H42V74H40zM46,72H48V74H46zM50,72H52V74H50zM52,72H54V74H52zM56,72H58V74H56zM58,72H60V74H58zM62,72H64V74H62zM66,72H68V74H66zM68,72H70V74H68zM72,72H74V74H72zM76,72H78V74H76zM78,72H80V74H78zM4,74H6V76H4zM16,74H18V76H16zM22,74H24V76H22zM28,74H30V76H28zM44,74H46V76H44zM50,74H52V76H50zM54,74H56V76H54zM58,74H60V76H58zM60,74H62V76H60zM62,74H64V76H62zM64,74H66V76H64zM66,74H68V76H66zM68,74H70V76H68zM76,74H78V76H76zM78,74H80V76H78zM84,74H86V76H84zM4,76H6V78H4zM8,76H10V78H8zM10,76H12V78H10zM12,76H14V78H12zM16,76H18V78H16zM20,76H22V78H20zM24,76H26V78H24zM28,76H30V78H28zM44,76H46V78H44zM48,76H50V78H48zM56,76H58V78H56zM58,76H60V78H58zM68,76H70V78H68zM70,76H72V78H70zM72,76H74V78H72zM74,76H76V78H74zM76,76H78V78H76zM78,76H80V78H78zM80,76H82V78H80zM84,76H86V78H84zM4,78H6V80H4zM8,78H10V80H8zM10,78H12V80H10zM12,78H14V80H12zM16,78H18V80H16zM20,78H22V80H20zM22,78H24V80H22zM26,78H28V80H26zM34,78H36V80H34zM36,78H38V80H36zM38,78H40V80H38zM40,78H42V80H40zM42,78H44V80H42zM48,78H50V80H48zM52,78H54V80H52zM54,78H56V80H54zM60,78H62V80H60zM62,78H64V80H62zM64,78H66V80H64zM66,78H68V80H66zM68,78H70V80H68zM70,78H72V80H70zM74,78H76V80H74zM84,78H86V80H84zM4,80H6V82H4zM8,80H10V82H8zM10,80H12V82H10zM12,80H14V82H12zM16,80H18V82H16zM20,80H22V82H20zM24,80H26V82H24zM30,80H32V82H30zM32,80H34V82H32zM36,80H38V82H36zM40,80H42V82H40zM44,80H46V82H44zM46,80H48V82H46zM50,80H52V82H50zM52,80H54V82H52zM54,80H56V82H54zM56,80H58V82H56zM58,80H60V82H58zM62,80H64V82H62zM66,80H68V82H66zM68,80H70V82H68zM70,80H72V82H70zM72,80H74V82H72zM74,80H76V82H74zM76,80H78V82H76zM80,80H82V82H80zM82,80H84V82H82zM4,82H6V84H4zM16,82H18V84H16zM30,82H32V84H30zM32,82H34V84H32zM36,82H38V84H36zM38,82H40V84H38zM40,82H42V84H40zM50,82H52V84H50zM52,82H54V84H52zM54,82H56V84H54zM56,82H58V84H56zM58,82H60V84H58zM60,82H62V84H60zM66,82H68V84H66zM68,82H70V84H68zM70,82H72V84H70zM76,82H78V84H76zM82,82H84V84H82zM4,84H6V86H4zM6,84H8V86H6zM8,84H10V86H8zM10,84H12V86H10zM12,84H14V86H12zM14,84H16V86H14zM16,84H18V86H16zM22,84H24V86H22zM24,84H26V86H24zM26,84H28V86H26zM28,84H30V86H28zM30,84H32V86H30zM36,84H38V86H36zM38,84H40V86H38zM42,84H44V86H42zM44,84H46V86H44zM46,84H48V86H46zM56,84H58V86H56zM58,84H60V86H58zM62,84H64V86H62zM66,84H68V86H66zM70,84H72V86H70zM72,84H74V86H72zM74,84H76V86H74zM76,84H78V86H76zM78,84H80V86H78zM80,84H82V86H80z" id="qr-path" fill="#000000" fill-opacity="1" fill-rule="nonzero" stroke="none" /></svg>