<?xml version='1.0' encoding='UTF-8'?>
<svg width="90mm" height="90mm" version="1.1" viewBox="0 0 90 90" xmlns="http://www.w3.org/2000/svg"><path d="M4,4H6V6H4zM6,4H8V6H6zM8,4H10V6H8zM10,4H12V6H10zM12,4H14V6H12zM14,4H16V6H14zM16,4H18V6H16zM20,4H22V6H20zM22,4H24V6H22zM24,4H26V6H24zM26,4H28V6H26zM28,4H30V6H28zM30,4H32V6H30zM32,4H34V6H32zM36,4H38V6H36zM40,4H42V6H40zM44,4H46V6H44zM50,4H52V6H50zM52,4H54V6H52zM56,4H58V6H56zM72,4H74V6H72zM74,4H76V6H74zM76,4H78V6H76zM78,4H80V6H78zM80,4H82V6H80zM82,4H84V6H82zM84,4H86V6H84zM4,6H6V8H4zM16,6H18V8H16zM30,6H32V8H30zM34,6H36V8H34zM38,6H40V8H38zM40,6H42V8H40zM46,6H48V8H46zM54,6H56V8H54zM56,6H58V8H56zM60,6H62V8H60zM68,6H70V8H68zM72,6H74V8H72zM84,6H86V8H84zM4,8H6V10H4zM8,8H10V10H8zM10,8H12V10H10zM12,8H14V10H12zM16,8H18V10H16zM20,8H22V10H20zM24,8H26V10H24zM28,8H30V10H28zM30,8H32V10H30zM32,8H34V10H32zM36,8H38V10H36zM42,8H44V10H42zM46,8H48V10H46zM48,8H50V10H48zM52,8H54V10H52zM54,8H56V10H54zM58,8H60V10H58zM66,8H68V10H66zM72,8H74V10H72zM76,8H78V10H76zM78,8H80V10H78zM80,8H82V10H80zM84,8H86V10H84zM4,10H6V12H4zM8,10H10V12H8zM10,10H12V12H10zM12,10H14V12H12zM16,10H18V12H16zM22,10H24V12H22zM24,10H26V12H24zM26,10H28V12H26zM28,10H30V12H28zM30,10H32V12H30zM32,10H34V12H32zM40,10H42V12H40zM42,10H44V12H42zM44,10H46V12H44zM46,10H48V12H46zM48,10H50V12H48zM52,10H54V12H52zM58,10H60V12H58zM60,10H62V12H60zM62,10H64V12H62zM64,10H66V12H64zM68,10H70V12H68zM72,10H74V12H72zM76,10H78V12H76zM78,10H80V12H78zM80,10H82V12H80zM84,10H86V12H84zM4,12H6V14H4zM8,12H10V14H8zM10,12H12V14H10zM12,12H14V14H12zM16,12H18V14H16zM20,12H22V14H20zM22,12H24V14H22zM26,12H28V14H26zM30,12H32V14H30zM32,12H34V14H32zM34,12H36V14H34zM38,12H40V14H38zM44,12H46V14H44zM46,12H48V14H46zM52,12H54V14H52zM54,12H56V14H54zM60,12H62V14H60zM66,12H68V14H66zM68,12H70V14H68zM72,12H74V14H72zM76,12H78V14H76zM78,12H80V14H78zM80,12H82V14H80zM84,12H86V14H84zM4,14H6V16H4zM16,14H18V16H16zM24,14H26V16H24zM26,14H28V16H26zM30,14H32V16H30zM40,14H42V16H40zM42,14H44V16H42zM44,14H46V16H44zM50,14H52V16H50zM52,14H54V16H52zM56,14H58V16H56zM60,14H62V16H60zM62,14H64V16H62zM72,14H74V16H72zM84,14H86V16H84zM4,16H6V18H4zM6,16H8V18H6zM8,16H10V18H8zM10,16H12V18H10zM12,16H14V18H12zM14,16H16V18H14zM16,16H18V18H16zM20,16H22V18H20zM24,16H26V18H24zM28,16H30V18H28zM32,16H34V18H32zM36,16H38V18H36zM40,16H42V18H40zM44,16H46V18H44zM48,16H50V18H48zM52,16H54V18H52zM56,16H58V18H56zM60,16H62V18H60zM64,16H66V18H64zM68,16H70V18H68zM72,16H74V18H72zM74,16H76V18H74zM76,16H78V18H76zM78,16H80V18H78zM80,16H82V18H80zM82,16H84V18H82zM84,16H86V18H84zM20,18H22V20H20zM26,18H28V20H26zM28,18H30V20H28zM32,18H34V20H32zM38,18H40V20H38zM42,18H44V20H42zM44,18H46V20H44zM46,18H48V20H46zM48,18H50V20H48zM50,18H52V20H50zM52,18H54V20H52zM54,18H56V20H54zM66,18H68V20H66zM68,18H70V20H68zM14,20H16V22H14zM16,20H18V22H16zM24,20H26V22H24zM26,20H28V22H26zM28,20H30V22H28zM30,20H32V22H30zM32,20H34V22H32zM34,20H36V22H34zM36,20H38V22H36zM40,20H42V22H40zM44,20H46V22H44zM48,20H50V22H48zM62,20H64V22H62zM66,20H68V22H66zM72,20H74V22H72zM76,20H78V22H76zM80,20H82V22H80zM84,20H86V22H84zM8,22H10V24H8zM12,22H14V24H12zM14,22H16V24H14zM24,22H26V24H24zM28,22H30V24H28zM30,22H32V24H30zM38,22H40V24H38zM42,22H44V24H42zM44,22H46V24H44zM54,22H56V24H54zM56,22H58V24H56zM58,22H60V24H58zM62,22H64V24H62zM64,22H66V24H64zM66,22H68V24H66zM76,22H78V24H76zM84,22H86V24H84zM4,24H6V26H4zM6,24H8V26H6zM8,24H10V26H8zM10,24H12V26H10zM14,24H16V26H14zM16,24H18V26H16zM20,24H22V26H20zM26,24H28V26H26zM32,24H34V26H32zM34,24H36V26H34zM36,24H38V26H36zM38,24H40V26H38zM42,24H44V26H42zM48,24H50V26H48zM50,24H52V26H50zM54,24H56V26H54zM56,24H58V26H56zM58,24H60V26H58zM60,24H62V26H60zM62,24H64V26H62zM68,24H70V26H68zM72,24H74V26H72zM76,24H78V26H76zM8,26H10V28H8zM18,26H20V28H18zM20,26H22V28H20zM28,26H30V28H28zM30,26H32V28H30zM32,26H34V28H32zM38,26H40V28H38zM42,26H44V28H42zM48,26H50V28H48zM52,26H54V28H52zM54,26H56V28H54zM56,26H58V28H56zM58,26H60V28H58zM64,26H66V28H64zM66,26H68V28H66zM68,26H70V28H68zM70,26H72V28H70zM76,26H78V28H76zM78,26H80V28H78zM82,26H84V28H82zM4,28H6V30H4zM6,28H8V30H6zM12,28H14V30H12zM14,28H16V30H14zM16,28H18V30H16zM18,28H20V30H18zM20,28H22V30H20zM30,28H32V30H30zM32,28H34V30H32zM36,28H38V30H36zM40,28H42V30H40zM42,28H44V30H42zM44,28H46V30H44zM48,28H50V30H48zM56,28H58V30H56zM58,28H60V30H58zM68,28H70V30H68zM70,28H72V30H70zM72,28H74V30H72zM6,30H8V32H6zM12,30H14V32H12zM14,30H16V32H14zM20,30H22V32H20zM28,30H30V32H28zM30,30H32V32H30zM34,30H36V32H34zM38,30H40V32H38zM44,30H46V32H44zM50,30H52V32H50zM64,30H66V32H64zM66,30H68V32H66zM70,30H72V32H70zM72,30H74V32H72zM74,30H76V32H74zM76,30H78V32H76zM84,30H86V32H84zM4,32H6V34H4zM6,32H8V34H6zM8,32H10V34H8zM10,32H12V34H10zM12,32H14V34H12zM14,32H16V34H14zM16,32H18V34H16zM22,32H24V34H22zM26,32H28V34H26zM28,32H30V34H28zM36,32H38V34H36zM38,32H40V34H38zM42,32H44V34H42zM46,32H48V34H46zM50,32H52V34H50zM54,32H56V34H54zM58,32H60V34H58zM60,32H62V34H60zM62,32H64V34H62zM64,32H66V34H64zM70,32H72V34H70zM78,32H80V34H78zM80,32H82V34H80zM82,32H84V34H82zM4,34H6V36H4zM8,34H10V36H8zM12,34H14V36H12zM20,34H22V36H20zM24,34H26V36H24zM28,34H30V36H28zM32,34H34V36H32zM42,34H44V36H42zM48,34H50V36H48zM52,34H54V36H52zM54,34H56V36H54zM60,34H62V36H60zM70,34H72V36H70zM74,34H76V36H74zM78,34H80V36H78zM80,34H82V36H80zM82,34H84V36H82zM84,34H86V36H84zM4,36H6V38H4zM10,36H12V38H10zM12,36H14V38H12zM16,36H18V38H16zM20,36H22V38H20zM24,36H26V38H24zM30,36H32V38H30zM36,36H38V38H36zM38,36H40V38H38zM42,36H44V38H42zM46,36H48V38H46zM54,36H56V38H54zM58,36H60V38H58zM62,36H64V38H62zM68,36H70V38H68zM70,36H72V38H70zM74,36H76V38H74zM80,36H82V38H80zM82,36H84V38H82zM84,36H86V38H84zM4,38H6V40H4zM6,38H8V40H6zM8,38H10V40H8zM18,38H20V40H18zM24,38H26V40H24zM28,38H30V40H28zM32,38H34V40H32zM34,38H36V40H34zM44,38H46V40H44zM54,38H56V40H54zM56,38H58V40H56zM58,38H60V40H58zM60,38H62V40H60zM64,38H66V40H64zM66,38H68V40H66zM68,38H70V40H68zM70,38H72V40H70zM72,38H74V40H72zM74,38H76V40H74zM76,38H78V40H76zM78,38H80V40H78zM80,38H82V40H80zM84,38H86V40H84zM4,40H6V42H4zM12,40H14V42H12zM14,40H16V42H14zM16,40H18V42H16zM24,40H26V42H24zM28,40H30V42H28zM32,40H34V42H32zM34,40H36V42H34zM38,40H40V42H38zM44,40H46V42H44zM52,40H54V42H52zM54,40H56V42H54zM58,40H60V42H58zM66,40H68V42H66zM72,40H74V42H72zM74,40H76V42H74zM76,40H78V42H76zM78,40H80V42H78zM84,40H86V42H84zM8,42H10V44H8zM18,42H20V44H18zM20,42H22V44H20zM22,42H24V44H22zM26,42H28V44H26zM28,42H30V44H28zM30,42H32V44H30zM32,42H34V44H32zM40,42H42V44H40zM42,42H44V44H42zM48,42H50V44H48zM52,42H54V44H52zM58,42H60V44H58zM60,42H62V44H60zM76,42H78V44H76zM78,42H80V44H78zM84,42H86V44H84zM8,44H10V46H8zM10,44H12V46H10zM16,44H18V46H16zM20,44H22V46H20zM22,44H24V46H22zM24,44H26V46H24zM26,44H28V46H26zM30,44H32V46H30zM34,44H36V46H34zM36,44H38V46H36zM42,44H44V46H42zM50,44H52V46H50zM52,44H54V46H52zM54,44H56V46H54zM56,44H58V46H56zM62,44H64V46H62zM64,44H66V46H64zM80,44H82V46H80zM84,44H86V46H84zM4,46H6V48H4zM6,46H8V48H6zM8,46H10V48H8zM10,46H12V48H10zM26,46H28V48H26zM32,46H34V48H32zM36,46H38V48H36zM38,46H40V48H38zM40,46H42V48H40zM46,46H48V48H46zM48,46H50V48H48zM50,46H52V48H50zM52,46H54V48H52zM56,46H58V48H56zM58,46H60V48H58zM62,46H64V48H62zM66,46H68V48H66zM68,46H70V48H68zM70,46H72V48H70zM76,46H78V48H76zM78,46H80V48H78zM80,46H82V48H80zM6,48H8V50H6zM8,48H10V50H8zM10,48H12V50H10zM12,48H14V50H12zM14,48H16V50H14zM16,48H18V50H16zM22,48H24V50H22zM24,48H26V50H24zM26,48H28V50H26zM32,48H34V50H32zM40,48H42V50H40zM42,48H44V50H42zM48,48H50V50H48zM50,48H52V50H50zM52,48H54V50H52zM56,48H58V50H56zM58,48H60V50H58zM62,48H64V50H62zM68,48H70V50H68zM72,48H74V50H72zM76,48H78V50H76zM78,48H80V50H78zM80,48H82V50H80zM6,50H8V52H6zM10,50H12V52H10zM12,50H14V52H12zM14,50H16V52H14zM20,50H22V52H20zM22,50H24V52H22zM24,50H26V52H24zM32,50H34V52H32zM34,50H36V52H34zM36,50H38V52H36zM42,50H44V52H42zM48,50H50V52H48zM50,50H52V52H50zM60,50H62V52H60zM70,50H72V52H70zM72,50H74V52H72zM76,50H78V52H76zM78,50H80V52H78zM82,50H84V52H82zM84,50H86V52H84zM10,52H12V54H10zM14,52H16V54H14zM16,52H18V54H16zM24,52H26V54H24zM32,52H34V54H32zM36,52H38V54H36zM40,52H42V54H40zM44,52H46V54H44zM46,52H48V54H46zM56,52H58V54H56zM68,52H70V54H68zM70,52H72V54H70zM72,52H74V54H72zM78,52H80V54H78zM80,52H82V54H80zM84,52H86V54H84zM6,54H8V56H6zM8,54H10V56H8zM20,54H22V56H20zM22,54H24V56H22zM26,54H28V56H26zM28,54H30V56H28zM32,54H34V56H32zM36,54H38V56H36zM40,54H42V56H40zM50,54H52V56H50zM52,54H54V56H52zM54,54H56V56H54zM56,54H58V56H56zM58,54H60V56H58zM60,54H62V56H60zM64,54H66V56H64zM66,54H68V56H66zM70,54H72V56H70zM72,54H74V56H72zM74,54H76V56H74zM76,54H78V56H76zM78,54H80V56H78zM82,54H84V56H82zM84,54H86V56H84zM10,56H12V58H10zM12,56H14V58H12zM14,56H16V58H14zM16,56H18V58H16zM18,56H20V58H18zM20,56H22V58H20zM26,56H28V58H26zM28,56H30V58H28zM30,56H32V58H30zM38,56H40V58H38zM40,56H42V58H40zM44,56H46V58H44zM50,56H52V58H50zM56,56H58V58H56zM58,56H60V58H58zM68,56H70V58H68zM70,56H72V58H70zM76,56H78V58H76zM82,56H84V58H82zM4,58H6V60H4zM10,58H12V60H10zM14,58H16V60H14zM18,58H20V60H18zM20,58H22V60H20zM26,58H28V60H26zM34,58H36V60H34zM36,58H38V60H36zM44,58H46V60H44zM46,58H48V60H46zM50,58H52V60H50zM56,58H58V60H56zM66,58H68V60H66zM70,58H72V60H70zM72,58H74V60H72zM76,58H78V60H76zM78,58H80V60H78zM80,58H82V60H80zM84,58H86V60H84zM6,60H8V62H6zM12,60H14V62H12zM14,60H16V62H14zM16,60H18V62H16zM18,60H20V62H18zM24,60H26V62H24zM36,60H38V62H36zM48,60H50V62H48zM56,60H58V62H56zM58,60H60V62H58zM62,60H64V62H62zM66,60H68V62H66zM68,60H70V62H68zM70,60H72V62H70zM78,60H80V62H78zM80,60H82V62H80zM4,62H6V64H4zM6,62H8V64H6zM12,62H14V64H12zM14,62H16V64H14zM18,62H20V64H18zM22,62H24V64H22zM24,62H26V64H24zM28,62H30V64H28zM36,62H38V64H36zM38,62H40V64H38zM48,62H50V64H48zM52,62H54V64H52zM54,62H56V64H54zM56,62H58V64H56zM60,62H62V64H60zM66,62H68V64H66zM70,62H72V64H70zM72,62H74V64H72zM74,62H76V64H74zM76,62H78V64H76zM78,62H80V64H78zM80,62H82V64H80zM82,62H84V64H82zM84,62H86V64H84zM4,64H6V66H4zM6,64H8V66H6zM8,64H10V66H8zM12,64H14V66H12zM16,64H18V66H16zM20,64H22V66H20zM26,64H28V66H26zM30,64H32V66H30zM42,64H44V66H42zM44,64H46V66H44zM48,64H50V66H48zM52,64H54V66H52zM54,64H56V66H54zM56,64H58V66H56zM60,64H62V66H60zM62,64H64V66H62zM66,64H68V66H66zM68,64H70V66H68zM70,64H72V66H70zM76,64H78V66H76zM84,64H86V66H84zM4,66H6V68H4zM14,66H16V68H14zM20,66H22V68H20zM22,66H24V68H22zM24,66H26V68H24zM32,66H34V68H32zM38,66H40V68H38zM44,66H46V68H44zM46,66H48V68H46zM48,66H50V68H48zM50,66H52V68H50zM58,66H60V68H58zM60,66H62V68H60zM68,66H70V68H68zM72,66H74V68H72zM74,66H76V68H74zM76,66H78V68H76zM78,66H80V68H78zM84,66H86V68H84zM4,68H6V70H4zM10,68H12V70H10zM12,68H14V70H12zM16,68H18V70H16zM24,68H26V70H24zM28,68H30V70H28zM36,68H38V70H36zM40,68H42V70H40zM44,68H46V70H44zM48,68H50V70H48zM60,68H62V70H60zM62,68H64V70H62zM68,68H70V70H68zM70,68H72V70H70zM72,68H74V70H72zM74,68H76V70H74zM76,68H78V70H76zM78,68H80V70H78zM80,68H82V70H80zM20,70H22V72H20zM22,70H24V72H22zM28,70H30V72H28zM38,70H40V72H38zM46,70H48V72H46zM54,70H56V72H54zM56,70H58V72H56zM62,70H64V72H62zM68,70H70V72H68zM76,70H78V72H76zM80,70H82V72H80zM4,72H6V74H4zM6,72H8V74H6zM8,72H10V74H8zM10,72H12V74H10zM12,72H14V74H12zM14,72H16V74H14zM16,72H18V74H16zM32,72H34V74H32zM40,72H42V74H40zM46,72H48V74H46zM50,72H52V74H50zM52,72H54V74H52zM58,72H60V74H58zM64,72H66V74H64zM66,72H68V74H66zM68,72H70V74H68zM72,72H74V74H72zM76,72H78V74H76zM78,72H80V74H78zM4,74H6V76H4zM16,74H18V76H16zM20,74H22V76H20zM22,74H24V76H22zM24,74H26V76H24zM28,74H30V76H28zM30,74H32V76H30zM32,74H34V76H32zM34,74H36V76H34zM44,74H46V76H44zM50,74H52V76H50zM54,74H56V76H54zM60,74H62V76H60zM66,74H68V76H66zM68,74H70V76H68zM76,74H78V76H76zM78,74H80V76H78zM82,74H84V76H82zM84,74H86V76H84zM4,76H6V78H4zM8,76H10V78H8zM10,76H12V78H10zM12,76H14V78H12zM16,76H18V78H16zM24,76H26V78H24zM26,76H28V78H26zM28,76H30V78H28zM32,76H34V78H32zM36,76H38V78H36zM38,76H40V78H38zM42,76H44V78H42zM48,76H50V78H48zM50,76H52V78H50zM54,76H56V78H54zM58,76H60V78H58zM60,76H62V78H60zM62,76H64V78H62zM64,76H66V78H64zM66,76H68V78H66zM68,76H70V78H68zM70,76H72V78H70zM72,76H74V78H72zM74,76H76V78H74zM76,76H78V78H76zM4,78H6V80H4zM8,78H10V80H8zM10,78H12V80H10zM12,78H14V80H12zM16,78H18V80H16zM22,78H24V80H22zM26,78H28V80H26zM32,78H34V80H32zM36,78H38V80H36zM38,78H40V80H38zM40,78H42V80H40zM42,78H44V80H42zM52,78H54V80H52zM54,78H56V80H54zM58,78H60V80H58zM60,78H62V80H60zM62,78H64V80H62zM64,78H66V80H64zM66,78H68V80H66zM68,78H70V80H68zM74,78H76V80H74zM82,78H84V80H82zM84,78H86V80H84zM4,80H6V82H4zM8,80H10V82H8zM10,80H12V82H10zM12,80H14V82H12zM16,80H18V82H16zM32,80H34V82H32zM36,80H38V82H36zM38,80H40V82H38zM44,80H46V82H44zM48,80H50V82H48zM50,80H52V82H50zM52,80H54V82H52zM54,80H56V82H54zM56,80H58V82H56zM58,80H60V82H58zM62,80H64V82H62zM66,80H68V82H66zM68,80H70V82H68zM70,80H72V82H70zM72,80H74V82H72zM74,80H76V82H74zM76,80H78V82H76zM80,80H82V82H80zM82,80H84V82H82zM4,82H6V84H4zM16,82H18V84H16zM24,82H26V84H24zM30,82H32V84H30zM34,82H36V84H34zM38,82H40V84H38zM44,82H46V84H44zM50,82H52V84H50zM52,82H54V84H52zM56,82H58V84H56zM66,82H68V84H66zM72,82H74V84H72zM76,82H78V84H76zM80,82H82V84H80zM84,82H86V84H84zM4,84H6V86H4zM6,84H8V86H6zM8,84H10V86H8zM10,84H12V86H10zM12,84H14V86H12zM14,84H16V86H14zM16,84H18V86H16zM24,84H26V86H24zM26,84H28V86H26zM30,84H32V86H30zM32,84H34V86H32zM42,84H44V86H42zM44,84H46V86H44zM46,84H48V86H46zM48,84H50V86H48zM54,84H56V86H54zM58,84H60V86H58zM62,84H64V86H62zM66,84H68V86H66zM70,84H72V86H70zM72,84H74V86H72zM74,84H76V86H74zM76,84H78V86H76zM78,84H80V86H78zM80,84H82V86H80z" id="qr-path" fill="#000000" fill-opacity="1" fill-rule="nonzero" stroke="none" /></svg>