<?xml version='1.0' encoding='UTF-8'?>
<svg width="90mm" height="90mm" version="1.1" viewBox="0 0 90 90" xmlns="http://www.w3.org/2000/svg"><path d="M4,4H6V6H4zM6,4H8V6H6zM8,4H10V6H8zM10,4H12V6H10zM12,4H14V6H12zM14,4H16V6H14zM16,4H18V6H16zM22,4H24V6H22zM28,4H30V6H28zM30,4H32V6H30zM32,4H34V6H32zM34,4H36V6H34zM40,4H42V6H40zM44,4H46V6H44zM48,4H50V6H48zM52,4H54V6H52zM56,4H58V6H56zM58,4H60V6H58zM60,4H62V6H60zM62,4H64V6H62zM72,4H74V6H72zM74,4H76V6H74zM76,4H78V6H76zM78,4H80V6H78zM80,4H82V6H80zM82,4H84V6H82zM84,4H86V6H84zM4,6H6V8H4zM16,6H18V8H16zM20,6H22V8H20zM34,6H36V8H34zM38,6H40V8H38zM40,6H42V8H40zM42,6H44V8H42zM44,6H46V8H44zM46,6H48V8H46zM48,6H50V8H48zM60,6H62V8H60zM66,6H68V8H66zM72,6H74V8H72zM84,6H86V8H84zM4,8H6V10H4zM8,8H10V10H8zM10,8H12V10H10zM12,8H14V10H12zM16,8H18V10H16zM24,8H26V10H24zM26,8H28V10H26zM40,8H42V10H40zM42,8H44V10H42zM46,8H48V10H46zM48,8H50V10H48zM50,8H52V10H50zM54,8H56V10H54zM58,8H60V10H58zM60,8H62V10H60zM62,8H64V10H62zM64,8H66V10H64zM66,8H68V10H66zM72,8H74V10H72zM76,8H78V10H76zM78,8H80V10H78zM80,8H82V10H80zM84,8H86V10H84zM4,10H6V12H4zM8,10H10V12H8zM10,10H12V12H10zM12,10H14V12H12zM16,10H18V12H16zM24,10H26V12H24zM34,10H36V12H34zM42,10H44V12H42zM46,10H48V12H46zM50,10H52V12H50zM56,10H58V12H56zM60,10H62V12H60zM72,10H74V12H72zM76,10H78V12H76zM78,10H80V12H78zM80,10H82V12H80zM84,10H86V12H84zM4,12H6V14H4zM8,12H10V14H8zM10,12H12V14H10zM12,12H14V14H12zM16,12H18V14H16zM26,12H28V14H26zM38,12H40V14H38zM40,12H42V14H40zM42,12H44V14H42zM52,12H54V14H52zM56,12H58V14H56zM58,12H60V14H58zM60,12H62V14H60zM72,12H74V14H72zM76,12H78V14H76zM78,12H80V14H78zM80,12H82V14H80zM84,12H86V14H84zM4,14H6V16H4zM16,14H18V16H16zM20,14H22V16H20zM24,14H26V16H24zM26,14H28V16H26zM32,14H34V16H32zM40,14H42V16H40zM50,14H52V16H50zM52,14H54V16H52zM54,14H56V16H54zM60,14H62V16H60zM62,14H64V16H62zM66,14H68V16H66zM68,14H70V16H68zM72,14H74V16H72zM84,14H86V16H84zM4,16H6V18H4zM6,16H8V18H6zM8,16H10V18H8zM10,16H12V18H10zM12,16H14V18H12zM14,16H16V18H14zM16,16H18V18H16zM20,16H22V18H20zM24,16H26V18H24zM28,16H30V18H28zM32,16H34V18H32zM36,16H38V18H36zM40,16H42V18H40zM44,16H46V18H44zM48,16H50V18H48zM52,16H54V18H52zM56,16H58V18H56zM60,16H62V18H60zM64,16H66V18H64zM68,16H70V18H68zM72,16H74V18H72zM74,16H76V18H74zM76,16H78V18H76zM78,16H80V18H78zM80,16H82V18H80zM82,16H84V18H82zM84,16H86V18H84zM20,18H22V20H20zM22,18H24V20H22zM24,18H26V20H24zM32,18H34V20H32zM34,18H36V20H34zM36,18H38V20H36zM40,18H42V20H40zM42,18H44V20H42zM44,18H46V20H44zM54,18H56V20H54zM58,18H60V20H58zM60,18H62V20H60zM62,18H64V20H62zM64,18H66V20H64zM66,18H68V20H66zM68,18H70V20H68zM12,20H14V22H12zM14,20H16V22H14zM16,20H18V22H16zM18,20H20V22H18zM22,20H24V22H22zM24,20H26V22H24zM26,20H28V22H26zM28,20H30V22H28zM36,20H38V22H36zM40,20H42V22H40zM42,20H44V22H42zM46,20H48V22H46zM48,20H50V22H48zM54,20H56V22H54zM56,20H58V22H56zM58,20H60V22H58zM62,20H64V22H62zM68,20H70V22H68zM72,20H74V22H72zM74,20H76V22H74zM82,20H84V22H82zM4,22H6V24H4zM6,22H8V24H6zM8,22H10V24H8zM12,22H14V24H12zM14,22H16V24H14zM18,22H20V24H18zM28,22H30V24H28zM36,22H38V24H36zM38,22H40V24H38zM44,22H46V24H44zM48,22H50V24H48zM56,22H58V24H56zM58,22H60V24H58zM60,22H62V24H60zM62,22H64V24H62zM64,22H66V24H64zM72,22H74V24H72zM76,22H78V24H76zM78,22H80V24H78zM4,24H6V26H4zM8,24H10V26H8zM10,24H12V26H10zM12,24H14V26H12zM14,24H16V26H14zM16,24H18V26H16zM20,24H22V26H20zM24,24H26V26H24zM28,24H30V26H28zM32,24H34V26H32zM34,24H36V26H34zM40,24H42V26H40zM42,24H44V26H42zM52,24H54V26H52zM54,24H56V26H54zM56,24H58V26H56zM58,24H60V26H58zM64,24H66V26H64zM68,24H70V26H68zM74,24H76V26H74zM84,24H86V26H84zM4,26H6V28H4zM6,26H8V28H6zM8,26H10V28H8zM10,26H12V28H10zM14,26H16V28H14zM18,26H20V28H18zM20,26H22V28H20zM22,26H24V28H22zM24,26H26V28H24zM26,26H28V28H26zM30,26H32V28H30zM32,26H34V28H32zM34,26H36V28H34zM36,26H38V28H36zM40,26H42V28H40zM42,26H44V28H42zM46,26H48V28H46zM50,26H52V28H50zM54,26H56V28H54zM56,26H58V28H56zM60,26H62V28H60zM62,26H64V28H62zM66,26H68V28H66zM68,26H70V28H68zM72,26H74V28H72zM74,26H76V28H74zM78,26H80V28H78zM84,26H86V28H84zM6,28H8V30H6zM10,28H12V30H10zM12,28H14V30H12zM14,28H16V30H14zM16,28H18V30H16zM18,28H20V30H18zM20,28H22V30H20zM22,28H24V30H22zM24,28H26V30H24zM26,28H28V30H26zM30,28H32V30H30zM32,28H34V30H32zM34,28H36V30H34zM36,28H38V30H36zM38,28H40V30H38zM40,28H42V30H40zM42,28H44V30H42zM44,28H46V30H44zM46,28H48V30H46zM50,28H52V30H50zM56,28H58V30H56zM60,28H62V30H60zM62,28H64V30H62zM68,28H70V30H68zM74,28H76V30H74zM82,28H84V30H82zM84,28H86V30H84zM8,30H10V32H8zM12,30H14V32H12zM14,30H16V32H14zM18,30H20V32H18zM28,30H30V32H28zM32,30H34V32H32zM38,30H40V32H38zM42,30H44V32H42zM50,30H52V32H50zM52,30H54V32H52zM54,30H56V32H54zM56,30H58V32H56zM64,30H66V32H64zM68,30H70V32H68zM70,30H72V32H70zM72,30H74V32H72zM74,30H76V32H74zM76,30H78V32H76zM78,30H80V32H78zM80,30H82V32H80zM84,30H86V32H84zM6,32H8V34H6zM8,32H10V34H8zM10,32H12V34H10zM16,32H18V34H16zM22,32H24V34H22zM24,32H26V34H24zM28,32H30V34H28zM34,32H36V34H34zM40,32H42V34H40zM42,32H44V34H42zM46,32H48V34H46zM48,32H50V34H48zM50,32H52V34H50zM54,32H56V34H54zM58,32H60V34H58zM70,32H72V34H70zM72,32H74V34H72zM74,32H76V34H74zM76,32H78V34H76zM78,32H80V34H78zM80,32H82V34H80zM82,32H84V34H82zM84,32H86V34H84zM10,34H12V36H10zM12,34H14V36H12zM14,34H16V36H14zM22,34H24V36H22zM24,34H26V36H24zM28,34H30V36H28zM34,34H36V36H34zM38,34H40V36H38zM40,34H42V36H40zM44,34H46V36H44zM46,34H48V36H46zM48,34H50V36H48zM52,34H54V36H52zM54,34H56V36H54zM56,34H58V36H56zM58,34H60V36H58zM60,34H62V36H60zM62,34H64V36H62zM64,34H66V36H64zM68,34H70V36H68zM76,34H78V36H76zM78,34H80V36H78zM84,34H86V36H84zM4,36H6V38H4zM6,36H8V38H6zM8,36H10V38H8zM12,36H14V38H12zM16,36H18V38H16zM18,36H20V38H18zM22,36H24V38H22zM24,36H26V38H24zM26,36H28V38H26zM32,36H34V38H32zM34,36H36V38H34zM36,36H38V38H36zM38,36H40V38H38zM42,36H44V38H42zM44,36H46V38H44zM56,36H58V38H56zM62,36H64V38H62zM66,36H68V38H66zM74,36H76V38H74zM78,36H80V38H78zM84,36H86V38H84zM4,38H6V40H4zM20,38H22V40H20zM24,38H26V40H24zM28,38H30V40H28zM34,38H36V40H34zM38,38H40V40H38zM42,38H44V40H42zM46,38H48V40H46zM58,38H60V40H58zM60,38H62V40H60zM64,38H66V40H64zM70,38H72V40H70zM72,38H74V40H72zM74,38H76V40H74zM76,38H78V40H76zM84,38H86V40H84zM6,40H8V42H6zM8,40H10V42H8zM12,40H14V42H12zM14,40H16V42H14zM16,40H18V42H16zM18,40H20V42H18zM20,40H22V42H20zM22,40H24V42H22zM24,40H26V42H24zM30,40H32V42H30zM32,40H34V42H32zM34,40H36V42H34zM38,40H40V42H38zM42,40H44V42H42zM46,40H48V42H46zM48,40H50V42H48zM54,40H56V42H54zM58,40H60V42H58zM68,40H70V42H68zM72,40H74V42H72zM74,40H76V42H74zM80,40H82V42H80zM84,40H86V42H84zM4,42H6V44H4zM8,42H10V44H8zM10,42H12V44H10zM12,42H14V44H12zM14,42H16V44H14zM18,42H20V44H18zM20,42H22V44H20zM34,42H36V44H34zM36,42H38V44H36zM42,42H44V44H42zM50,42H52V44H50zM56,42H58V44H56zM62,42H64V44H62zM64,42H66V44H64zM70,42H72V44H70zM72,42H74V44H72zM74,42H76V44H74zM78,42H80V44H78zM82,42H84V44H82zM6,44H8V46H6zM10,44H12V46H10zM16,44H18V46H16zM18,44H20V46H18zM20,44H22V46H20zM26,44H28V46H26zM30,44H32V46H30zM36,44H38V46H36zM44,44H46V46H44zM46,44H48V46H46zM50,44H52V46H50zM52,44H54V46H52zM56,44H58V46H56zM58,44H60V46H58zM62,44H64V46H62zM64,44H66V46H64zM66,44H68V46H66zM68,44H70V46H68zM70,44H72V46H70zM78,44H80V46H78zM82,44H84V46H82zM84,44H86V46H84zM4,46H6V48H4zM8,46H10V48H8zM12,46H14V48H12zM20,46H22V48H20zM24,46H26V48H24zM26,46H28V48H26zM30,46H32V48H30zM32,46H34V48H32zM38,46H40V48H38zM40,46H42V48H40zM42,46H44V48H42zM46,46H48V48H46zM50,46H52V48H50zM52,46H54V48H52zM54,46H56V48H54zM58,46H60V48H58zM60,46H62V48H60zM62,46H64V48H62zM68,46H70V48H68zM70,46H72V48H70zM72,46H74V48H72zM76,46H78V48H76zM80,46H82V48H80zM84,46H86V48H84zM4,48H6V50H4zM6,48H8V50H6zM8,48H10V50H8zM16,48H18V50H16zM18,48H20V50H18zM20,48H22V50H20zM22,48H24V50H22zM28,48H30V50H28zM32,48H34V50H32zM36,48H38V50H36zM38,48H40V50H38zM42,48H44V50H42zM56,48H58V50H56zM58,48H60V50H58zM60,48H62V50H60zM64,48H66V50H64zM68,48H70V50H68zM74,48H76V50H74zM78,48H80V50H78zM80,48H82V50H80zM84,48H86V50H84zM4,50H6V52H4zM6,50H8V52H6zM10,50H12V52H10zM26,50H28V52H26zM28,50H30V52H28zM32,50H34V52H32zM38,50H40V52H38zM40,50H42V52H40zM42,50H44V52H42zM46,50H48V52H46zM52,50H54V52H52zM58,50H60V52H58zM62,50H64V52H62zM64,50H66V52H64zM74,50H76V52H74zM78,50H80V52H78zM8,52H10V54H8zM12,52H14V54H12zM16,52H18V54H16zM22,52H24V54H22zM26,52H28V54H26zM32,52H34V54H32zM34,52H36V54H34zM38,52H40V54H38zM40,52H42V54H40zM44,52H46V54H44zM48,52H50V54H48zM50,52H52V54H50zM56,52H58V54H56zM58,52H60V54H58zM60,52H62V54H60zM62,52H64V54H62zM68,52H70V54H68zM74,52H76V54H74zM78,52H80V54H78zM80,52H82V54H80zM82,52H84V54H82zM18,54H20V56H18zM22,54H24V56H22zM26,54H28V56H26zM28,54H30V56H28zM30,54H32V56H30zM36,54H38V56H36zM40,54H42V56H40zM42,54H44V56H42zM44,54H46V56H44zM50,54H52V56H50zM52,54H54V56H52zM58,54H60V56H58zM60,54H62V56H60zM64,54H66V56H64zM68,54H70V56H68zM70,54H72V56H70zM72,54H74V56H72zM74,54H76V56H74zM76,54H78V56H76zM80,54H82V56H80zM82,54H84V56H82zM84,54H86V56H84zM10,56H12V58H10zM12,56H14V58H12zM16,56H18V58H16zM18,56H20V58H18zM20,56H22V58H20zM24,56H26V58H24zM30,56H32V58H30zM36,56H38V58H36zM44,56H46V58H44zM48,56H50V58H48zM52,56H54V58H52zM56,56H58V58H56zM58,56H60V58H58zM60,56H62V58H60zM62,56H64V58H62zM64,56H66V58H64zM68,56H70V58H68zM70,56H72V58H70zM72,56H74V58H72zM74,56H76V58H74zM82,56H84V58H82zM84,56H86V58H84zM6,58H8V60H6zM8,58H10V60H8zM12,58H14V60H12zM18,58H20V60H18zM22,58H24V60H22zM28,58H30V60H28zM32,58H34V60H32zM36,58H38V60H36zM38,58H40V60H38zM40,58H42V60H40zM52,58H54V60H52zM58,58H60V60H58zM62,58H64V60H62zM64,58H66V60H64zM66,58H68V60H66zM68,58H70V60H68zM72,58H74V60H72zM74,58H76V60H74zM78,58H80V60H78zM82,58H84V60H82zM84,58H86V60H84zM8,60H10V62H8zM10,60H12V62H10zM16,60H18V62H16zM20,60H22V62H20zM22,60H24V62H22zM24,60H26V62H24zM30,60H32V62H30zM32,60H34V62H32zM34,60H36V62H34zM42,60H44V62H42zM46,60H48V62H46zM48,60H50V62H48zM54,60H56V62H54zM62,60H64V62H62zM82,60H84V62H82zM4,62H6V64H4zM6,62H8V64H6zM8,62H10V64H8zM12,62H14V64H12zM14,62H16V64H14zM20,62H22V64H20zM22,62H24V64H22zM24,62H26V64H24zM30,62H32V64H30zM32,62H34V64H32zM36,62H38V64H36zM38,62H40V64H38zM42,62H44V64H42zM44,62H46V64H44zM48,62H50V64H48zM50,62H52V64H50zM60,62H62V64H60zM68,62H70V64H68zM70,62H72V64H70zM72,62H74V64H72zM74,62H76V64H74zM76,62H78V64H76zM82,62H84V64H82zM84,62H86V64H84zM12,64H14V66H12zM16,64H18V66H16zM18,64H20V66H18zM26,64H28V66H26zM28,64H30V66H28zM32,64H34V66H32zM36,64H38V66H36zM40,64H42V66H40zM42,64H44V66H42zM44,64H46V66H44zM48,64H50V66H48zM50,64H52V66H50zM52,64H54V66H52zM60,64H62V66H60zM62,64H64V66H62zM64,64H66V66H64zM70,64H72V66H70zM78,64H80V66H78zM80,64H82V66H80zM84,64H86V66H84zM10,66H12V68H10zM12,66H14V68H12zM20,66H22V68H20zM32,66H34V68H32zM34,66H36V68H34zM36,66H38V68H36zM40,66H42V68H40zM44,66H46V68H44zM50,66H52V68H50zM52,66H54V68H52zM62,66H64V68H62zM64,66H66V68H64zM68,66H70V68H68zM70,66H72V68H70zM78,66H80V68H78zM82,66H84V68H82zM4,68H6V70H4zM6,68H8V70H6zM8,68H10V70H8zM12,68H14V70H12zM16,68H18V70H16zM18,68H20V70H18zM20,68H22V70H20zM22,68H24V70H22zM24,68H26V70H24zM26,68H28V70H26zM28,68H30V70H28zM30,68H32V70H30zM32,68H34V70H32zM36,68H38V70H36zM40,68H42V70H40zM46,68H48V70H46zM48,68H50V70H48zM54,68H56V70H54zM56,68H58V70H56zM58,68H60V70H58zM60,68H62V70H60zM62,68H64V70H62zM66,68H68V70H66zM68,68H70V70H68zM70,68H72V70H70zM72,68H74V70H72zM74,68H76V70H74zM76,68H78V70H76zM82,68H84V70H82zM20,70H22V72H20zM24,70H26V72H24zM28,70H30V72H28zM36,70H38V72H36zM42,70H44V72H42zM48,70H50V72H48zM54,70H56V72H54zM56,70H58V72H56zM60,70H62V72H60zM66,70H68V72H66zM68,70H70V72H68zM76,70H78V72H76zM78,70H80V72H78zM80,70H82V72H80zM84,70H86V72H84zM4,72H6V74H4zM6,72H8V74H6zM8,72H10V74H8zM10,72H12V74H10zM12,72H14V74H12zM14,72H16V74H14zM16,72H18V74H16zM20,72H22V74H20zM24,72H26V74H24zM26,72H28V74H26zM28,72H30V74H28zM30,72H32V74H30zM36,72H38V74H36zM38,72H40V74H38zM46,72H48V74H46zM48,72H50V74H48zM54,72H56V74H54zM58,72H60V74H58zM60,72H62V74H60zM64,72H66V74H64zM66,72H68V74H66zM68,72H70V74H68zM72,72H74V74H72zM76,72H78V74H76zM78,72H80V74H78zM84,72H86V74H84zM4,74H6V76H4zM16,74H18V76H16zM20,74H22V76H20zM26,74H28V76H26zM32,74H34V76H32zM36,74H38V76H36zM44,74H46V76H44zM46,74H48V76H46zM48,74H50V76H48zM52,74H54V76H52zM54,74H56V76H54zM58,74H60V76H58zM62,74H64V76H62zM64,74H66V76H64zM66,74H68V76H66zM68,74H70V76H68zM76,74H78V76H76zM78,74H80V76H78zM4,76H6V78H4zM8,76H10V78H8zM10,76H12V78H10zM12,76H14V78H12zM16,76H18V78H16zM20,76H22V78H20zM24,76H26V78H24zM28,76H30V78H28zM32,76H34V78H32zM34,76H36V78H34zM38,76H40V78H38zM42,76H44V78H42zM46,76H48V78H46zM48,76H50V78H48zM54,76H56V78H54zM56,76H58V78H56zM64,76H66V78H64zM66,76H68V78H66zM68,76H70V78H68zM70,76H72V78H70zM72,76H74V78H72zM74,76H76V78H74zM76,76H78V78H76zM82,76H84V78H82zM84,76H86V78H84zM4,78H6V80H4zM8,78H10V80H8zM10,78H12V80H10zM12,78H14V80H12zM16,78H18V80H16zM22,78H24V80H22zM26,78H28V80H26zM30,78H32V80H30zM32,78H34V80H32zM36,78H38V80H36zM38,78H40V80H38zM44,78H46V80H44zM52,78H54V80H52zM56,78H58V80H56zM58,78H60V80H58zM60,78H62V80H60zM62,78H64V80H62zM64,78H66V80H64zM74,78H76V80H74zM78,78H80V80H78zM80,78H82V80H80zM82,78H84V80H82zM84,78H86V80H84zM4,80H6V82H4zM8,80H10V82H8zM10,80H12V82H10zM12,80H14V82H12zM16,80H18V82H16zM24,80H26V82H24zM26,80H28V82H26zM28,80H30V82H28zM32,80H34V82H32zM40,80H42V82H40zM44,80H46V82H44zM54,80H56V82H54zM56,80H58V82H56zM58,80H60V82H58zM60,80H62V82H60zM64,80H66V82H64zM66,80H68V82H66zM68,80H70V82H68zM70,80H72V82H70zM80,80H82V82H80zM82,80H84V82H82zM84,80H86V82H84zM4,82H6V84H4zM16,82H18V84H16zM22,82H24V84H22zM24,82H26V84H24zM26,82H28V84H26zM28,82H30V84H28zM30,82H32V84H30zM32,82H34V84H32zM40,82H42V84H40zM46,82H48V84H46zM58,82H60V84H58zM62,82H64V84H62zM64,82H66V84H64zM66,82H68V84H66zM68,82H70V84H68zM70,82H72V84H70zM72,82H74V84H72zM74,82H76V84H74zM82,82H84V84H82zM84,82H86V84H84zM4,84H6V86H4zM6,84H8V86H6zM8,84H10V86H8zM10,84H12V86H10zM12,84H14V86H12zM14,84H16V86H14zM16,84H18V86H16zM22,84H24V86H22zM24,84H26V86H24zM26,84H28V86H26zM34,84H36V86H34zM48,84H50V86H48zM56,84H58V86H56zM62,84H64V86H62zM68,84H70V86H68zM72,84H74V86H72zM74,84H76V86H74zM76,84H78V86H76zM82,84H84V86H82z" id="qr-path" fill="#000000" fill-opacity="1" fill-rule="nonzero" stroke="none" /></svg>