<?xml version='1.0' encoding='UTF-8'?>
<svg width="90mm" height="90mm" version="1.1" viewBox="0 0 90 90" xmlns="http://www.w3.org/2000/svg"><path d="M4,4H6V6H4zM6,4H8V6H6zM8,4H10V6H8zM10,4H12V6H10zM12,4H14V6H12zM14,4H16V6H14zM16,4H18V6H16zM24,4H26V6H24zM26,4H28V6H26zM28,4H30V6H28zM32,4H34V6H32zM36,4H38V6H36zM38,4H40V6H38zM40,4H42V6H40zM44,4H46V6H44zM46,4H48V6H46zM50,4H52V6H50zM52,4H54V6H52zM56,4H58V6H56zM72,4H74V6H72zM74,4H76V6H74zM76,4H78V6H76zM78,4H80V6H78zM80,4H82V6H80zM82,4H84V6H82zM84,4H86V6H84zM4,6H6V8H4zM16,6H18V8H16zM22,6H24V8H22zM30,6H32V8H30zM34,6H36V8H34zM42,6H44V8H42zM44,6H46V8H44zM48,6H50V8H48zM60,6H62V8H60zM66,6H68V8H66zM72,6H74V8H72zM84,6H86V8H84zM4,8H6V10H4zM8,8H10V10H8zM10,8H12V10H10zM12,8H14V10H12zM16,8H18V10H16zM20,8H22V10H20zM22,8H24V10H22zM28,8H30V10H28zM32,8H34V10H32zM38,8H40V10H38zM40,8H42V10H40zM52,8H54V10H52zM58,8H60V10H58zM60,8H62V10H60zM72,8H74V10H72zM76,8H78V10H76zM78,8H80V10H78zM80,8H82V10H80zM84,8H86V10H84zM4,10H6V12H4zM8,10H10V12H8zM10,10H12V12H10zM12,10H14V12H12zM16,10H18V12H16zM20,10H22V12H20zM24,10H26V12H24zM26,10H28V12H26zM28,10H30V12H28zM30,10H32V12H30zM38,10H40V12H38zM40,10H42V12H40zM42,10H44V12H42zM44,10H46V12H44zM48,10H50V12H48zM52,10H54V12H52zM58,10H60V12H58zM60,10H62V12H60zM62,10H64V12H62zM64,10H66V12H64zM68,10H70V12H68zM72,10H74V12H72zM76,10H78V12H76zM78,10H80V12H78zM80,10H82V12H80zM84,10H86V12H84zM4,12H6V14H4zM8,12H10V14H8zM10,12H12V14H10zM12,12H14V14H12zM16,12H18V14H16zM22,12H24V14H22zM30,12H32V14H30zM34,12H36V14H34zM40,12H42V14H40zM46,12H48V14H46zM50,12H52V14H50zM52,12H54V14H52zM54,12H56V14H54zM56,12H58V14H56zM60,12H62V14H60zM62,12H64V14H62zM66,12H68V14H66zM72,12H74V14H72zM76,12H78V14H76zM78,12H80V14H78zM80,12H82V14H80zM84,12H86V14H84zM4,14H6V16H4zM16,14H18V16H16zM30,14H32V16H30zM36,14H38V16H36zM38,14H40V16H38zM40,14H42V16H40zM42,14H44V16H42zM44,14H46V16H44zM48,14H50V16H48zM52,14H54V16H52zM56,14H58V16H56zM72,14H74V16H72zM84,14H86V16H84zM4,16H6V18H4zM6,16H8V18H6zM8,16H10V18H8zM10,16H12V18H10zM12,16H14V18H12zM14,16H16V18H14zM16,16H18V18H16zM20,16H22V18H20zM24,16H26V18H24zM28,16H30V18H28zM32,16H34V18H32zM36,16H38V18H36zM40,16H42V18H40zM44,16H46V18H44zM48,16H50V18H48zM52,16H54V18H52zM56,16H58V18H56zM60,16H62V18H60zM64,16H66V18H64zM68,16H70V18H68zM72,16H74V18H72zM74,16H76V18H74zM76,16H78V18H76zM78,16H80V18H78zM80,16H82V18H80zM82,16H84V18H82zM84,16H86V18H84zM26,18H28V20H26zM28,18H30V20H28zM30,18H32V20H30zM38,18H40V20H38zM46,18H48V20H46zM48,18H50V20H48zM50,18H52V20H50zM52,18H54V20H52zM56,18H58V20H56zM10,20H12V22H10zM12,20H14V22H12zM16,20H18V22H16zM18,20H20V22H18zM26,20H28V22H26zM28,20H30V22H28zM32,20H34V22H32zM34,20H36V22H34zM40,20H42V22H40zM42,20H44V22H42zM44,20H46V22H44zM54,20H56V22H54zM60,20H62V22H60zM62,20H64V22H62zM78,20H80V22H78zM80,20H82V22H80zM8,22H10V24H8zM12,22H14V24H12zM14,22H16V24H14zM24,22H26V24H24zM28,22H30V24H28zM30,22H32V24H30zM38,22H40V24H38zM42,22H44V24H42zM44,22H46V24H44zM54,22H56V24H54zM56,22H58V24H56zM58,22H60V24H58zM62,22H64V24H62zM64,22H66V24H64zM66,22H68V24H66zM76,22H78V24H76zM84,22H86V24H84zM10,24H12V26H10zM16,24H18V26H16zM34,24H36V26H34zM36,24H38V26H36zM42,24H44V26H42zM44,24H46V26H44zM48,24H50V26H48zM54,24H56V26H54zM58,24H60V26H58zM60,24H62V26H60zM72,24H74V26H72zM74,24H76V26H74zM76,24H78V26H76zM80,24H82V26H80zM6,26H8V28H6zM8,26H10V28H8zM12,26H14V28H12zM14,26H16V28H14zM18,26H20V28H18zM20,26H22V28H20zM24,26H26V28H24zM26,26H28V28H26zM28,26H30V28H28zM30,26H32V28H30zM32,26H34V28H32zM36,26H38V28H36zM42,26H44V28H42zM50,26H52V28H50zM52,26H54V28H52zM54,26H56V28H54zM56,26H58V28H56zM58,26H60V28H58zM60,26H62V28H60zM62,26H64V28H62zM64,26H66V28H64zM66,26H68V28H66zM68,26H70V28H68zM70,26H72V28H70zM72,26H74V28H72zM74,26H76V28H74zM76,26H78V28H76zM78,26H80V28H78zM82,26H84V28H82zM84,26H86V28H84zM6,28H8V30H6zM16,28H18V30H16zM18,28H20V30H18zM20,28H22V30H20zM30,28H32V30H30zM32,28H34V30H32zM36,28H38V30H36zM40,28H42V30H40zM42,28H44V30H42zM44,28H46V30H44zM48,28H50V30H48zM56,28H58V30H56zM58,28H60V30H58zM68,28H70V30H68zM70,28H72V30H70zM72,28H74V30H72zM8,30H10V32H8zM12,30H14V32H12zM18,30H20V32H18zM28,30H30V32H28zM32,30H34V32H32zM34,30H36V32H34zM36,30H38V32H36zM38,30H40V32H38zM42,30H44V32H42zM50,30H52V32H50zM54,30H56V32H54zM56,30H58V32H56zM64,30H66V32H64zM68,30H70V32H68zM70,30H72V32H70zM72,30H74V32H72zM74,30H76V32H74zM76,30H78V32H76zM78,30H80V32H78zM80,30H82V32H80zM84,30H86V32H84zM4,32H6V34H4zM8,32H10V34H8zM10,32H12V34H10zM14,32H16V34H14zM16,32H18V34H16zM18,32H20V34H18zM22,32H24V34H22zM24,32H26V34H24zM30,32H32V34H30zM38,32H40V34H38zM46,32H48V34H46zM48,32H50V34H48zM50,32H52V34H50zM52,32H54V34H52zM58,32H60V34H58zM62,32H64V34H62zM64,32H66V34H64zM66,32H68V34H66zM68,32H70V34H68zM70,32H72V34H70zM72,32H74V34H72zM80,32H82V34H80zM82,32H84V34H82zM84,32H86V34H84zM4,34H6V36H4zM8,34H10V36H8zM12,34H14V36H12zM20,34H22V36H20zM24,34H26V36H24zM26,34H28V36H26zM32,34H34V36H32zM34,34H36V36H34zM44,34H46V36H44zM48,34H50V36H48zM50,34H52V36H50zM52,34H54V36H52zM54,34H56V36H54zM60,34H62V36H60zM70,34H72V36H70zM74,34H76V36H74zM78,34H80V36H78zM80,34H82V36H80zM82,34H84V36H82zM84,34H86V36H84zM4,36H6V38H4zM8,36H10V38H8zM10,36H12V38H10zM12,36H14V38H12zM14,36H16V38H14zM16,36H18V38H16zM24,36H26V38H24zM30,36H32V38H30zM32,36H34V38H32zM36,36H38V38H36zM44,36H46V38H44zM46,36H48V38H46zM54,36H56V38H54zM56,36H58V38H56zM58,36H60V38H58zM70,36H72V38H70zM82,36H84V38H82zM84,36H86V38H84zM4,38H6V40H4zM6,38H8V40H6zM8,38H10V40H8zM12,38H14V40H12zM14,38H16V40H14zM18,38H20V40H18zM22,38H24V40H22zM26,38H28V40H26zM28,38H30V40H28zM30,38H32V40H30zM32,38H34V40H32zM34,38H36V40H34zM36,38H38V40H36zM38,38H40V40H38zM44,38H46V40H44zM48,38H50V40H48zM50,38H52V40H50zM54,38H56V40H54zM56,38H58V40H56zM58,38H60V40H58zM62,38H64V40H62zM64,38H66V40H64zM66,38H68V40H66zM68,38H70V40H68zM70,38H72V40H70zM76,38H78V40H76zM78,38H80V40H78zM80,38H82V40H80zM4,40H6V42H4zM12,40H14V42H12zM14,40H16V42H14zM16,40H18V42H16zM22,40H24V42H22zM24,40H26V42H24zM28,40H30V42H28zM34,40H36V42H34zM38,40H40V42H38zM44,40H46V42H44zM52,40H54V42H52zM54,40H56V42H54zM56,40H58V42H56zM58,40H60V42H58zM62,40H64V42H62zM66,40H68V42H66zM72,40H74V42H72zM74,40H76V42H74zM76,40H78V42H76zM78,40H80V42H78zM84,40H86V42H84zM6,42H8V44H6zM24,42H26V44H24zM26,42H28V44H26zM28,42H30V44H28zM32,42H34V44H32zM38,42H40V44H38zM40,42H42V44H40zM44,42H46V44H44zM46,42H48V44H46zM48,42H50V44H48zM52,42H54V44H52zM54,42H56V44H54zM56,42H58V44H56zM58,42H60V44H58zM60,42H62V44H60zM64,42H66V44H64zM66,42H68V44H66zM68,42H70V44H68zM76,42H78V44H76zM80,42H82V44H80zM84,42H86V44H84zM6,44H8V46H6zM8,44H10V46H8zM12,44H14V46H12zM16,44H18V46H16zM18,44H20V46H18zM26,44H28V46H26zM32,44H34V46H32zM34,44H36V46H34zM38,44H40V46H38zM48,44H50V46H48zM50,44H52V46H50zM52,44H54V46H52zM56,44H58V46H56zM60,44H62V46H60zM62,44H64V46H62zM64,44H66V46H64zM66,44H68V46H66zM72,44H74V46H72zM78,44H80V46H78zM80,44H82V46H80zM4,46H6V48H4zM6,46H8V48H6zM8,46H10V48H8zM10,46H12V48H10zM26,46H28V48H26zM32,46H34V48H32zM36,46H38V48H36zM38,46H40V48H38zM40,46H42V48H40zM46,46H48V48H46zM50,46H52V48H50zM52,46H54V48H52zM56,46H58V48H56zM58,46H60V48H58zM62,46H64V48H62zM66,46H68V48H66zM68,46H70V48H68zM70,46H72V48H70zM76,46H78V48H76zM78,46H80V48H78zM80,46H82V48H80zM6,48H8V50H6zM12,48H14V50H12zM16,48H18V50H16zM22,48H24V50H22zM24,48H26V50H24zM38,48H40V50H38zM40,48H42V50H40zM42,48H44V50H42zM44,48H46V50H44zM48,48H50V50H48zM52,48H54V50H52zM58,48H60V50H58zM72,48H74V50H72zM74,48H76V50H74zM76,48H78V50H76zM78,48H80V50H78zM6,50H8V52H6zM8,50H10V52H8zM18,50H20V52H18zM20,50H22V52H20zM22,50H24V52H22zM26,50H28V52H26zM32,50H34V52H32zM34,50H36V52H34zM38,50H40V52H38zM42,50H44V52H42zM62,50H64V52H62zM70,50H72V52H70zM74,50H76V52H74zM76,50H78V52H76zM78,50H80V52H78zM82,50H84V52H82zM10,52H12V54H10zM14,52H16V54H14zM16,52H18V54H16zM18,52H20V54H18zM24,52H26V54H24zM32,52H34V54H32zM36,52H38V54H36zM40,52H42V54H40zM44,52H46V54H44zM46,52H48V54H46zM56,52H58V54H56zM68,52H70V54H68zM70,52H72V54H70zM72,52H74V54H72zM78,52H80V54H78zM80,52H82V54H80zM84,52H86V54H84zM12,54H14V56H12zM18,54H20V56H18zM22,54H24V56H22zM26,54H28V56H26zM28,54H30V56H28zM30,54H32V56H30zM36,54H38V56H36zM40,54H42V56H40zM42,54H44V56H42zM44,54H46V56H44zM50,54H52V56H50zM52,54H54V56H52zM58,54H60V56H58zM60,54H62V56H60zM64,54H66V56H64zM68,54H70V56H68zM70,54H72V56H70zM72,54H74V56H72zM74,54H76V56H74zM76,54H78V56H76zM80,54H82V56H80zM82,54H84V56H82zM84,54H86V56H84zM4,56H6V58H4zM10,56H12V58H10zM12,56H14V58H12zM14,56H16V58H14zM16,56H18V58H16zM20,56H22V58H20zM24,56H26V58H24zM26,56H28V58H26zM28,56H30V58H28zM36,56H38V58H36zM38,56H40V58H38zM40,56H42V58H40zM42,56H44V58H42zM44,56H46V58H44zM48,56H50V58H48zM50,56H52V58H50zM54,56H56V58H54zM56,56H58V58H56zM58,56H60V58H58zM60,56H62V58H60zM66,56H68V58H66zM68,56H70V58H68zM70,56H72V58H70zM72,56H74V58H72zM76,56H78V58H76zM78,56H80V58H78zM82,56H84V58H82zM84,56H86V58H84zM6,58H8V60H6zM10,58H12V60H10zM12,58H14V60H12zM14,58H16V60H14zM18,58H20V60H18zM20,58H22V60H20zM26,58H28V60H26zM34,58H36V60H34zM36,58H38V60H36zM44,58H46V60H44zM46,58H48V60H46zM50,58H52V60H50zM56,58H58V60H56zM66,58H68V60H66zM70,58H72V60H70zM72,58H74V60H72zM76,58H78V60H76zM78,58H80V60H78zM80,58H82V60H80zM84,58H86V60H84zM4,60H6V62H4zM8,60H10V62H8zM12,60H14V62H12zM14,60H16V62H14zM16,60H18V62H16zM18,60H20V62H18zM20,60H22V62H20zM24,60H26V62H24zM26,60H28V62H26zM32,60H34V62H32zM36,60H38V62H36zM38,60H40V62H38zM44,60H46V62H44zM48,60H50V62H48zM50,60H52V62H50zM58,60H60V62H58zM66,60H68V62H66zM70,60H72V62H70zM74,60H76V62H74zM78,60H80V62H78zM4,62H6V64H4zM18,62H20V64H18zM22,62H24V64H22zM42,62H44V64H42zM44,62H46V64H44zM52,62H54V64H52zM54,62H56V64H54zM56,62H58V64H56zM62,62H64V64H62zM66,62H68V64H66zM70,62H72V64H70zM76,62H78V64H76zM78,62H80V64H78zM80,62H82V64H80zM82,62H84V64H82zM4,64H6V66H4zM6,64H8V66H6zM8,64H10V66H8zM12,64H14V66H12zM16,64H18V66H16zM20,64H22V66H20zM30,64H32V66H30zM34,64H36V66H34zM36,64H38V66H36zM42,64H44V66H42zM44,64H46V66H44zM48,64H50V66H48zM50,64H52V66H50zM52,64H54V66H52zM54,64H56V66H54zM56,64H58V66H56zM60,64H62V66H60zM62,64H64V66H62zM66,64H68V66H66zM68,64H70V66H68zM70,64H72V66H70zM76,64H78V66H76zM84,64H86V66H84zM4,66H6V68H4zM6,66H8V68H6zM8,66H10V68H8zM14,66H16V68H14zM18,66H20V68H18zM22,66H24V68H22zM24,66H26V68H24zM28,66H30V68H28zM30,66H32V68H30zM34,66H36V68H34zM36,66H38V68H36zM38,66H40V68H38zM42,66H44V68H42zM46,66H48V68H46zM48,66H50V68H48zM50,66H52V68H50zM54,66H56V68H54zM56,66H58V68H56zM58,66H60V68H58zM60,66H62V68H60zM66,66H68V68H66zM72,66H74V68H72zM74,66H76V68H74zM76,66H78V68H76zM80,66H82V68H80zM84,66H86V68H84zM4,68H6V70H4zM6,68H8V70H6zM10,68H12V70H10zM16,68H18V70H16zM18,68H20V70H18zM28,68H30V70H28zM30,68H32V70H30zM34,68H36V70H34zM40,68H42V70H40zM42,68H44V70H42zM44,68H46V70H44zM50,68H52V70H50zM54,68H56V70H54zM62,68H64V70H62zM66,68H68V70H66zM68,68H70V70H68zM70,68H72V70H70zM72,68H74V70H72zM74,68H76V70H74zM76,68H78V70H76zM80,68H82V70H80zM84,68H86V70H84zM20,70H22V72H20zM22,70H24V72H22zM28,70H30V72H28zM38,70H40V72H38zM46,70H48V72H46zM54,70H56V72H54zM56,70H58V72H56zM68,70H70V72H68zM76,70H78V72H76zM80,70H82V72H80zM4,72H6V74H4zM6,72H8V74H6zM8,72H10V74H8zM10,72H12V74H10zM12,72H14V74H12zM14,72H16V74H14zM16,72H18V74H16zM20,72H22V74H20zM24,72H26V74H24zM26,72H28V74H26zM32,72H34V74H32zM44,72H46V74H44zM48,72H50V74H48zM52,72H54V74H52zM58,72H60V74H58zM62,72H64V74H62zM66,72H68V74H66zM68,72H70V74H68zM72,72H74V74H72zM76,72H78V74H76zM78,72H80V74H78zM80,72H82V74H80zM4,74H6V76H4zM16,74H18V76H16zM24,74H26V76H24zM26,74H28V76H26zM28,74H30V76H28zM34,74H36V76H34zM36,74H38V76H36zM44,74H46V76H44zM48,74H50V76H48zM56,74H58V76H56zM62,74H64V76H62zM64,74H66V76H64zM66,74H68V76H66zM68,74H70V76H68zM76,74H78V76H76zM78,74H80V76H78zM82,74H84V76H82zM4,76H6V78H4zM8,76H10V78H8zM10,76H12V78H10zM12,76H14V78H12zM16,76H18V78H16zM20,76H22V78H20zM24,76H26V78H24zM26,76H28V78H26zM28,76H30V78H28zM32,76H34V78H32zM36,76H38V78H36zM40,76H42V78H40zM42,76H44V78H42zM46,76H48V78H46zM50,76H52V78H50zM58,76H60V78H58zM60,76H62V78H60zM62,76H64V78H62zM64,76H66V78H64zM66,76H68V78H66zM68,76H70V78H68zM70,76H72V78H70zM72,76H74V78H72zM74,76H76V78H74zM76,76H78V78H76zM4,78H6V80H4zM8,78H10V80H8zM10,78H12V80H10zM12,78H14V80H12zM16,78H18V80H16zM20,78H22V80H20zM22,78H24V80H22zM26,78H28V80H26zM30,78H32V80H30zM32,78H34V80H32zM36,78H38V80H36zM38,78H40V80H38zM44,78H46V80H44zM52,78H54V80H52zM56,78H58V80H56zM58,78H60V80H58zM60,78H62V80H60zM62,78H64V80H62zM64,78H66V80H64zM74,78H76V80H74zM78,78H80V80H78zM80,78H82V80H80zM82,78H84V80H82zM84,78H86V80H84zM4,80H6V82H4zM8,80H10V82H8zM10,80H12V82H10zM12,80H14V82H12zM16,80H18V82H16zM24,80H26V82H24zM30,80H32V82H30zM32,80H34V82H32zM38,80H40V82H38zM42,80H44V82H42zM44,80H46V82H44zM50,80H52V82H50zM52,80H54V82H52zM56,80H58V82H56zM58,80H60V82H58zM60,80H62V82H60zM62,80H64V82H62zM68,80H70V82H68zM70,80H72V82H70zM74,80H76V82H74zM76,80H78V82H76zM78,80H80V82H78zM80,80H82V82H80zM82,80H84V82H82zM84,80H86V82H84zM4,82H6V84H4zM16,82H18V84H16zM24,82H26V84H24zM30,82H32V84H30zM34,82H36V84H34zM38,82H40V84H38zM44,82H46V84H44zM50,82H52V84H50zM52,82H54V84H52zM56,82H58V84H56zM66,82H68V84H66zM72,82H74V84H72zM76,82H78V84H76zM80,82H82V84H80zM84,82H86V84H84zM4,84H6V86H4zM6,84H8V86H6zM8,84H10V86H8zM10,84H12V86H10zM12,84H14V86H12zM14,84H16V86H14zM16,84H18V86H16zM24,84H26V86H24zM30,84H32V86H30zM38,84H40V86H38zM42,84H44V86H42zM46,84H48V86H46zM48,84H50V86H48zM50,84H52V86H50zM54,84H56V86H54zM56,84H58V86H56zM58,84H60V86H58zM66,84H68V86H66zM68,84H70V86H68zM70,84H72V86H70zM72,84H74V86H72zM76,84H78V86H76zM78,84H80V86H78z" id="qr-path" fill="#000000" fill-opacity="1" fill-rule="nonzero" stroke="none" /></svg>