<?xml version='1.0' encoding='UTF-8'?>
<svg width="90mm" height="90mm" version="1.1" viewBox="0 0 90 90" xmlns="http://www.w3.org/2000/svg"><path d="M4,4H6V6H4zM6,4H8V6H6zM8,4H10V6H8zM10,4H12V6H10zM12,4H14V6H12zM14,4H16V6H14zM16,4H18V6H16zM24,4H26V6H24zM26,4H28V6H26zM28,4H30V6H28zM30,4H32V6H30zM32,4H34V6H32zM36,4H38V6H36zM40,4H42V6H40zM44,4H46V6H44zM50,4H52V6H50zM52,4H54V6H52zM54,4H56V6H54zM56,4H58V6H56zM72,4H74V6H72zM74,4H76V6H74zM76,4H78V6H76zM78,4H80V6H78zM80,4H82V6H80zM82,4H84V6H82zM84,4H86V6H84zM4,6H6V8H4zM16,6H18V8H16zM20,6H22V8H20zM28,6H30V8H28zM30,6H32V8H30zM34,6H36V8H34zM40,6H42V8H40zM48,6H50V8H48zM52,6H54V8H52zM60,6H62V8H60zM62,6H64V8H62zM64,6H66V8H64zM68,6H70V8H68zM72,6H74V8H72zM84,6H86V8H84zM4,8H6V10H4zM8,8H10V10H8zM10,8H12V10H10zM12,8H14V10H12zM16,8H18V10H16zM20,8H22V10H20zM26,8H28V10H26zM28,8H30V10H28zM32,8H34V10H32zM38,8H40V10H38zM44,8H46V10H44zM46,8H48V10H46zM50,8H52V10H50zM52,8H54V10H52zM54,8H56V10H54zM58,8H60V10H58zM60,8H62V10H60zM64,8H66V10H64zM68,8H70V10H68zM72,8H74V10H72zM76,8H78V10H76zM78,8H80V10H78zM80,8H82V10H80zM84,8H86V10H84zM4,10H6V12H4zM8,10H10V12H8zM10,10H12V12H10zM12,10H14V12H12zM16,10H18V12H16zM20,10H22V12H20zM26,10H28V12H26zM36,10H38V12H36zM40,10H42V12H40zM42,10H44V12H42zM48,10H50V12H48zM58,10H60V12H58zM64,10H66V12H64zM72,10H74V12H72zM76,10H78V12H76zM78,10H80V12H78zM80,10H82V12H80zM84,10H86V12H84zM4,12H6V14H4zM8,12H10V14H8zM10,12H12V14H10zM12,12H14V14H12zM16,12H18V14H16zM20,12H22V14H20zM22,12H24V14H22zM24,12H26V14H24zM32,12H34V14H32zM34,12H36V14H34zM36,12H38V14H36zM42,12H44V14H42zM50,12H52V14H50zM52,12H54V14H52zM62,12H64V14H62zM64,12H66V14H64zM72,12H74V14H72zM76,12H78V14H76zM78,12H80V14H78zM80,12H82V14H80zM84,12H86V14H84zM4,14H6V16H4zM16,14H18V16H16zM20,14H22V16H20zM22,14H24V16H22zM24,14H26V16H24zM26,14H28V16H26zM28,14H30V16H28zM32,14H34V16H32zM38,14H40V16H38zM42,14H44V16H42zM44,14H46V16H44zM46,14H48V16H46zM48,14H50V16H48zM50,14H52V16H50zM54,14H56V16H54zM56,14H58V16H56zM60,14H62V16H60zM62,14H64V16H62zM64,14H66V16H64zM72,14H74V16H72zM84,14H86V16H84zM4,16H6V18H4zM6,16H8V18H6zM8,16H10V18H8zM10,16H12V18H10zM12,16H14V18H12zM14,16H16V18H14zM16,16H18V18H16zM20,16H22V18H20zM24,16H26V18H24zM28,16H30V18H28zM32,16H34V18H32zM36,16H38V18H36zM40,16H42V18H40zM44,16H46V18H44zM48,16H50V18H48zM52,16H54V18H52zM56,16H58V18H56zM60,16H62V18H60zM64,16H66V18H64zM68,16H70V18H68zM72,16H74V18H72zM74,16H76V18H74zM76,16H78V18H76zM78,16H80V18H78zM80,16H82V18H80zM82,16H84V18H82zM84,16H86V18H84zM24,18H26V20H24zM26,18H28V20H26zM30,18H32V20H30zM42,18H44V20H42zM44,18H46V20H44zM46,18H48V20H46zM48,18H50V20H48zM50,18H52V20H50zM54,18H56V20H54zM64,18H66V20H64zM66,18H68V20H66zM68,18H70V20H68zM8,20H10V22H8zM14,20H16V22H14zM16,20H18V22H16zM18,20H20V22H18zM20,20H22V22H20zM22,20H24V22H22zM24,20H26V22H24zM28,20H30V22H28zM32,20H34V22H32zM34,20H36V22H34zM36,20H38V22H36zM40,20H42V22H40zM42,20H44V22H42zM48,20H50V22H48zM50,20H52V22H50zM56,20H58V22H56zM60,20H62V22H60zM68,20H70V22H68zM70,20H72V22H70zM74,20H76V22H74zM76,20H78V22H76zM78,20H80V22H78zM80,20H82V22H80zM82,20H84V22H82zM4,22H6V24H4zM12,22H14V24H12zM14,22H16V24H14zM20,22H22V24H20zM26,22H28V24H26zM30,22H32V24H30zM38,22H40V24H38zM40,22H42V24H40zM44,22H46V24H44zM48,22H50V24H48zM54,22H56V24H54zM56,22H58V24H56zM58,22H60V24H58zM60,22H62V24H60zM62,22H64V24H62zM66,22H68V24H66zM68,22H70V24H68zM72,22H74V24H72zM80,22H82V24H80zM10,24H12V26H10zM14,24H16V26H14zM16,24H18V26H16zM18,24H20V26H18zM24,24H26V26H24zM30,24H32V26H30zM34,24H36V26H34zM36,24H38V26H36zM50,24H52V26H50zM52,24H54V26H52zM58,24H60V26H58zM66,24H68V26H66zM74,24H76V26H74zM76,24H78V26H76zM78,24H80V26H78zM80,24H82V26H80zM84,24H86V26H84zM6,26H8V28H6zM8,26H10V28H8zM12,26H14V28H12zM14,26H16V28H14zM18,26H20V28H18zM20,26H22V28H20zM30,26H32V28H30zM32,26H34V28H32zM36,26H38V28H36zM38,26H40V28H38zM40,26H42V28H40zM48,26H50V28H48zM54,26H56V28H54zM56,26H58V28H56zM58,26H60V28H58zM66,26H68V28H66zM68,26H70V28H68zM70,26H72V28H70zM78,26H80V28H78zM82,26H84V28H82zM6,28H8V30H6zM14,28H16V30H14zM16,28H18V30H16zM18,28H20V30H18zM20,28H22V30H20zM26,28H28V30H26zM30,28H32V30H30zM32,28H34V30H32zM40,28H42V30H40zM44,28H46V30H44zM48,28H50V30H48zM56,28H58V30H56zM58,28H60V30H58zM60,28H62V30H60zM68,28H70V30H68zM70,28H72V30H70zM72,28H74V30H72zM6,30H8V32H6zM14,30H16V32H14zM20,30H22V32H20zM30,30H32V32H30zM34,30H36V32H34zM38,30H40V32H38zM40,30H42V32H40zM42,30H44V32H42zM52,30H54V32H52zM60,30H62V32H60zM70,30H72V32H70zM72,30H74V32H72zM74,30H76V32H74zM84,30H86V32H84zM4,32H6V34H4zM10,32H12V34H10zM16,32H18V34H16zM18,32H20V34H18zM20,32H22V34H20zM22,32H24V34H22zM24,32H26V34H24zM26,32H28V34H26zM28,32H30V34H28zM30,32H32V34H30zM32,32H34V34H32zM34,32H36V34H34zM42,32H44V34H42zM46,32H48V34H46zM48,32H50V34H48zM50,32H52V34H50zM56,32H58V34H56zM60,32H62V34H60zM64,32H66V34H64zM66,32H68V34H66zM68,32H70V34H68zM70,32H72V34H70zM72,32H74V34H72zM74,32H76V34H74zM82,32H84V34H82zM84,32H86V34H84zM4,34H6V36H4zM12,34H14V36H12zM14,34H16V36H14zM34,34H36V36H34zM40,34H42V36H40zM42,34H44V36H42zM44,34H46V36H44zM54,34H56V36H54zM56,34H58V36H56zM58,34H60V36H58zM60,34H62V36H60zM64,34H66V36H64zM68,34H70V36H68zM70,34H72V36H70zM72,34H74V36H72zM74,34H76V36H74zM76,34H78V36H76zM78,34H80V36H78zM82,34H84V36H82zM6,36H8V38H6zM8,36H10V38H8zM10,36H12V38H10zM12,36H14V38H12zM16,36H18V38H16zM18,36H20V38H18zM32,36H34V38H32zM34,36H36V38H34zM42,36H44V38H42zM44,36H46V38H44zM46,36H48V38H46zM48,36H50V38H48zM50,36H52V38H50zM56,36H58V38H56zM60,36H62V38H60zM66,36H68V38H66zM70,36H72V38H70zM72,36H74V38H72zM78,36H80V38H78zM82,36H84V38H82zM8,38H10V40H8zM18,38H20V40H18zM24,38H26V40H24zM30,38H32V40H30zM32,38H34V40H32zM34,38H36V40H34zM38,38H40V40H38zM40,38H42V40H40zM44,38H46V40H44zM52,38H54V40H52zM56,38H58V40H56zM58,38H60V40H58zM60,38H62V40H60zM66,38H68V40H66zM68,38H70V40H68zM70,38H72V40H70zM72,38H74V40H72zM74,38H76V40H74zM78,38H80V40H78zM80,38H82V40H80zM84,38H86V40H84zM4,40H6V42H4zM8,40H10V42H8zM12,40H14V42H12zM14,40H16V42H14zM16,40H18V42H16zM18,40H20V42H18zM20,40H22V42H20zM24,40H26V42H24zM28,40H30V42H28zM32,40H34V42H32zM34,40H36V42H34zM40,40H42V42H40zM44,40H46V42H44zM46,40H48V42H46zM48,40H50V42H48zM52,40H54V42H52zM58,40H60V42H58zM62,40H64V42H62zM64,40H66V42H64zM66,40H68V42H66zM72,40H74V42H72zM74,40H76V42H74zM76,40H78V42H76zM78,40H80V42H78zM84,40H86V42H84zM4,42H6V44H4zM10,42H12V44H10zM18,42H20V44H18zM20,42H22V44H20zM24,42H26V44H24zM26,42H28V44H26zM32,42H34V44H32zM38,42H40V44H38zM42,42H44V44H42zM46,42H48V44H46zM54,42H56V44H54zM56,42H58V44H56zM58,42H60V44H58zM60,42H62V44H60zM64,42H66V44H64zM78,42H80V44H78zM84,42H86V44H84zM6,44H8V46H6zM10,44H12V46H10zM12,44H14V46H12zM14,44H16V46H14zM16,44H18V46H16zM30,44H32V46H30zM34,44H36V46H34zM38,44H40V46H38zM44,44H46V46H44zM52,44H54V46H52zM54,44H56V46H54zM60,44H62V46H60zM62,44H64V46H62zM64,44H66V46H64zM66,44H68V46H66zM68,44H70V46H68zM72,44H74V46H72zM74,44H76V46H74zM78,44H80V46H78zM6,46H8V48H6zM8,46H10V48H8zM12,46H14V48H12zM18,46H20V48H18zM24,46H26V48H24zM26,46H28V48H26zM28,46H30V48H28zM40,46H42V48H40zM44,46H46V48H44zM46,46H48V48H46zM50,46H52V48H50zM54,46H56V48H54zM56,46H58V48H56zM58,46H60V48H58zM60,46H62V48H60zM62,46H64V48H62zM64,46H66V48H64zM66,46H68V48H66zM70,46H72V48H70zM72,46H74V48H72zM78,46H80V48H78zM84,46H86V48H84zM16,48H18V50H16zM18,48H20V50H18zM22,48H24V50H22zM24,48H26V50H24zM36,48H38V50H36zM38,48H40V50H38zM44,48H46V50H44zM52,48H54V50H52zM58,48H60V50H58zM60,48H62V50H60zM66,48H68V50H66zM74,48H76V50H74zM76,48H78V50H76zM84,48H86V50H84zM4,50H6V52H4zM6,50H8V52H6zM10,50H12V52H10zM12,50H14V52H12zM14,50H16V52H14zM18,50H20V52H18zM20,50H22V52H20zM22,50H24V52H22zM24,50H26V52H24zM28,50H30V52H28zM32,50H34V52H32zM34,50H36V52H34zM36,50H38V52H36zM38,50H40V52H38zM42,50H44V52H42zM48,50H50V52H48zM50,50H52V52H50zM52,50H54V52H52zM60,50H62V52H60zM64,50H66V52H64zM70,50H72V52H70zM72,50H74V52H72zM78,50H80V52H78zM8,52H10V54H8zM10,52H12V54H10zM14,52H16V54H14zM16,52H18V54H16zM28,52H30V54H28zM30,52H32V54H30zM32,52H34V54H32zM36,52H38V54H36zM40,52H42V54H40zM44,52H46V54H44zM52,52H54V54H52zM56,52H58V54H56zM68,52H70V54H68zM70,52H72V54H70zM72,52H74V54H72zM78,52H80V54H78zM80,52H82V54H80zM84,52H86V54H84zM4,54H6V56H4zM6,54H8V56H6zM8,54H10V56H8zM12,54H14V56H12zM20,54H22V56H20zM22,54H24V56H22zM24,54H26V56H24zM32,54H34V56H32zM40,54H42V56H40zM42,54H44V56H42zM50,54H52V56H50zM54,54H56V56H54zM58,54H60V56H58zM60,54H62V56H60zM66,54H68V56H66zM70,54H72V56H70zM72,54H74V56H72zM74,54H76V56H74zM78,54H80V56H78zM82,54H84V56H82zM84,54H86V56H84zM6,56H8V58H6zM8,56H10V58H8zM10,56H12V58H10zM12,56H14V58H12zM14,56H16V58H14zM16,56H18V58H16zM24,56H26V58H24zM32,56H34V58H32zM36,56H38V58H36zM40,56H42V58H40zM48,56H50V58H48zM50,56H52V58H50zM52,56H54V58H52zM54,56H56V58H54zM58,56H60V58H58zM60,56H62V58H60zM62,56H64V58H62zM66,56H68V58H66zM70,56H72V58H70zM72,56H74V58H72zM74,56H76V58H74zM76,56H78V58H76zM78,56H80V58H78zM80,56H82V58H80zM82,56H84V58H82zM84,56H86V58H84zM6,58H8V60H6zM8,58H10V60H8zM10,58H12V60H10zM14,58H16V60H14zM18,58H20V60H18zM24,58H26V60H24zM28,58H30V60H28zM32,58H34V60H32zM40,58H42V60H40zM44,58H46V60H44zM46,58H48V60H46zM48,58H50V60H48zM60,58H62V60H60zM64,58H66V60H64zM66,58H68V60H66zM68,58H70V60H68zM70,58H72V60H70zM78,58H80V60H78zM4,60H6V62H4zM8,60H10V62H8zM12,60H14V62H12zM16,60H18V62H16zM20,60H22V62H20zM26,60H28V62H26zM28,60H30V62H28zM30,60H32V62H30zM32,60H34V62H32zM38,60H40V62H38zM54,60H56V62H54zM58,60H60V62H58zM70,60H72V62H70zM72,60H74V62H72zM74,60H76V62H74zM84,60H86V62H84zM6,62H8V64H6zM14,62H16V64H14zM18,62H20V64H18zM22,62H24V64H22zM24,62H26V64H24zM26,62H28V64H26zM28,62H30V64H28zM34,62H36V64H34zM38,62H40V64H38zM40,62H42V64H40zM44,62H46V64H44zM48,62H50V64H48zM52,62H54V64H52zM54,62H56V64H54zM56,62H58V64H56zM64,62H66V64H64zM66,62H68V64H66zM70,62H72V64H70zM72,62H74V64H72zM74,62H76V64H74zM78,62H80V64H78zM80,62H82V64H80zM82,62H84V64H82zM84,62H86V64H84zM4,64H6V66H4zM6,64H8V66H6zM8,64H10V66H8zM16,64H18V66H16zM20,64H22V66H20zM30,64H32V66H30zM34,64H36V66H34zM42,64H44V66H42zM48,64H50V66H48zM50,64H52V66H50zM54,64H56V66H54zM56,64H58V66H56zM58,64H60V66H58zM62,64H64V66H62zM66,64H68V66H66zM70,64H72V66H70zM76,64H78V66H76zM84,64H86V66H84zM14,66H16V68H14zM20,66H22V68H20zM22,66H24V68H22zM24,66H26V68H24zM28,66H30V68H28zM32,66H34V68H32zM38,66H40V68H38zM40,66H42V68H40zM44,66H46V68H44zM46,66H48V68H46zM48,66H50V68H48zM52,66H54V68H52zM64,66H66V68H64zM66,66H68V68H66zM72,66H74V68H72zM74,66H76V68H74zM78,66H80V68H78zM84,66H86V68H84zM4,68H6V70H4zM6,68H8V70H6zM8,68H10V70H8zM10,68H12V70H10zM12,68H14V70H12zM16,68H18V70H16zM18,68H20V70H18zM20,68H22V70H20zM28,68H30V70H28zM30,68H32V70H30zM32,68H34V70H32zM34,68H36V70H34zM38,68H40V70H38zM40,68H42V70H40zM50,68H52V70H50zM54,68H56V70H54zM56,68H58V70H56zM58,68H60V70H58zM66,68H68V70H66zM68,68H70V70H68zM70,68H72V70H70zM72,68H74V70H72zM74,68H76V70H74zM76,68H78V70H76zM84,68H86V70H84zM20,70H22V72H20zM22,70H24V72H22zM24,70H26V72H24zM32,70H34V72H32zM36,70H38V72H36zM38,70H40V72H38zM40,70H42V72H40zM44,70H46V72H44zM46,70H48V72H46zM48,70H50V72H48zM52,70H54V72H52zM54,70H56V72H54zM60,70H62V72H60zM62,70H64V72H62zM64,70H66V72H64zM68,70H70V72H68zM76,70H78V72H76zM84,70H86V72H84zM4,72H6V74H4zM6,72H8V74H6zM8,72H10V74H8zM10,72H12V74H10zM12,72H14V74H12zM14,72H16V74H14zM16,72H18V74H16zM20,72H22V74H20zM22,72H24V74H22zM24,72H26V74H24zM26,72H28V74H26zM36,72H38V74H36zM38,72H40V74H38zM42,72H44V74H42zM44,72H46V74H44zM48,72H50V74H48zM52,72H54V74H52zM56,72H58V74H56zM58,72H60V74H58zM60,72H62V74H60zM68,72H70V74H68zM72,72H74V74H72zM76,72H78V74H76zM80,72H82V74H80zM84,72H86V74H84zM4,74H6V76H4zM16,74H18V76H16zM20,74H22V76H20zM24,74H26V76H24zM30,74H32V76H30zM34,74H36V76H34zM40,74H42V76H40zM44,74H46V76H44zM46,74H48V76H46zM48,74H50V76H48zM50,74H52V76H50zM52,74H54V76H52zM54,74H56V76H54zM60,74H62V76H60zM62,74H64V76H62zM66,74H68V76H66zM68,74H70V76H68zM76,74H78V76H76zM78,74H80V76H78zM82,74H84V76H82zM84,74H86V76H84zM4,76H6V78H4zM8,76H10V78H8zM10,76H12V78H10zM12,76H14V78H12zM16,76H18V78H16zM22,76H24V78H22zM24,76H26V78H24zM26,76H28V78H26zM28,76H30V78H28zM30,76H32V78H30zM36,76H38V78H36zM40,76H42V78H40zM42,76H44V78H42zM50,76H52V78H50zM54,76H56V78H54zM56,76H58V78H56zM58,76H60V78H58zM60,76H62V78H60zM62,76H64V78H62zM66,76H68V78H66zM68,76H70V78H68zM70,76H72V78H70zM72,76H74V78H72zM74,76H76V78H74zM76,76H78V78H76zM4,78H6V80H4zM8,78H10V80H8zM10,78H12V80H10zM12,78H14V80H12zM16,78H18V80H16zM22,78H24V80H22zM26,78H28V80H26zM28,78H30V80H28zM32,78H34V80H32zM36,78H38V80H36zM42,78H44V80H42zM48,78H50V80H48zM54,78H56V80H54zM58,78H60V80H58zM60,78H62V80H60zM62,78H64V80H62zM66,78H68V80H66zM68,78H70V80H68zM74,78H76V80H74zM76,78H78V80H76zM82,78H84V80H82zM84,78H86V80H84zM4,80H6V82H4zM8,80H10V82H8zM10,80H12V82H10zM12,80H14V82H12zM16,80H18V82H16zM20,80H22V82H20zM26,80H28V82H26zM32,80H34V82H32zM42,80H44V82H42zM52,80H54V82H52zM54,80H56V82H54zM58,80H60V82H58zM60,80H62V82H60zM70,80H72V82H70zM76,80H78V82H76zM78,80H80V82H78zM82,80H84V82H82zM84,80H86V82H84zM4,82H6V84H4zM16,82H18V84H16zM28,82H30V84H28zM32,82H34V84H32zM34,82H36V84H34zM36,82H38V84H36zM38,82H40V84H38zM46,82H48V84H46zM50,82H52V84H50zM60,82H62V84H60zM64,82H66V84H64zM66,82H68V84H66zM68,82H70V84H68zM4,84H6V86H4zM6,84H8V86H6zM8,84H10V86H8zM10,84H12V86H10zM12,84H14V86H12zM14,84H16V86H14zM16,84H18V86H16zM28,84H30V86H28zM30,84H32V86H30zM32,84H34V86H32zM38,84H40V86H38zM40,84H42V86H40zM44,84H46V86H44zM46,84H48V86H46zM50,84H52V86H50zM54,84H56V86H54zM56,84H58V86H56zM58,84H60V86H58zM60,84H62V86H60zM68,84H70V86H68zM70,84H72V86H70zM76,84H78V86H76zM84,84H86V86H84z" id="qr-path" fill="#000000" fill-opacity="1" fill-rule="nonzero" stroke="none" /></svg>