<?xml version='1.0' encoding='UTF-8'?>
<svg width="90mm" height="90mm" version="1.1" viewBox="0 0 90 90" xmlns="http://www.w3.org/2000/svg"><path d="M4,4H6V6H4zM6,4H8V6H6zM8,4H10V6H8zM10,4H12V6H10zM12,4H14V6H12zM14,4H16V6H14zM16,4H18V6H16zM22,4H24V6H22zM28,4H30V6H28zM38,4H40V6H38zM40,4H42V6H40zM42,4H44V6H42zM46,4H48V6H46zM48,4H50V6H48zM52,4H54V6H52zM60,4H62V6H60zM62,4H64V6H62zM66,4H68V6H66zM68,4H70V6H68zM72,4H74V6H72zM74,4H76V6H74zM76,4H78V6H76zM78,4H80V6H78zM80,4H82V6H80zM82,4H84V6H82zM84,4H86V6H84zM4,6H6V8H4zM16,6H18V8H16zM22,6H24V8H22zM26,6H28V8H26zM28,6H30V8H28zM30,6H32V8H30zM32,6H34V8H32zM34,6H36V8H34zM38,6H40V8H38zM40,6H42V8H40zM44,6H46V8H44zM50,6H52V8H50zM52,6H54V8H52zM56,6H58V8H56zM60,6H62V8H60zM62,6H64V8H62zM64,6H66V8H64zM72,6H74V8H72zM84,6H86V8H84zM4,8H6V10H4zM8,8H10V10H8zM10,8H12V10H10zM12,8H14V10H12zM16,8H18V10H16zM32,8H34V10H32zM34,8H36V10H34zM38,8H40V10H38zM40,8H42V10H40zM48,8H50V10H48zM54,8H56V10H54zM56,8H58V10H56zM60,8H62V10H60zM64,8H66V10H64zM72,8H74V10H72zM76,8H78V10H76zM78,8H80V10H78zM80,8H82V10H80zM84,8H86V10H84zM4,10H6V12H4zM8,10H10V12H8zM10,10H12V12H10zM12,10H14V12H12zM16,10H18V12H16zM22,10H24V12H22zM26,10H28V12H26zM28,10H30V12H28zM32,10H34V12H32zM34,10H36V12H34zM36,10H38V12H36zM40,10H42V12H40zM42,10H44V12H42zM46,10H48V12H46zM52,10H54V12H52zM62,10H64V12H62zM64,10H66V12H64zM72,10H74V12H72zM76,10H78V12H76zM78,10H80V12H78zM80,10H82V12H80zM84,10H86V12H84zM4,12H6V14H4zM8,12H10V14H8zM10,12H12V14H10zM12,12H14V14H12zM16,12H18V14H16zM20,12H22V14H20zM24,12H26V14H24zM28,12H30V14H28zM30,12H32V14H30zM32,12H34V14H32zM40,12H42V14H40zM48,12H50V14H48zM50,12H52V14H50zM58,12H60V14H58zM60,12H62V14H60zM62,12H64V14H62zM64,12H66V14H64zM66,12H68V14H66zM72,12H74V14H72zM76,12H78V14H76zM78,12H80V14H78zM80,12H82V14H80zM84,12H86V14H84zM4,14H6V16H4zM16,14H18V16H16zM26,14H28V16H26zM28,14H30V16H28zM30,14H32V16H30zM36,14H38V16H36zM44,14H46V16H44zM50,14H52V16H50zM62,14H64V16H62zM64,14H66V16H64zM66,14H68V16H66zM72,14H74V16H72zM84,14H86V16H84zM4,16H6V18H4zM6,16H8V18H6zM8,16H10V18H8zM10,16H12V18H10zM12,16H14V18H12zM14,16H16V18H14zM16,16H18V18H16zM20,16H22V18H20zM24,16H26V18H24zM28,16H30V18H28zM32,16H34V18H32zM36,16H38V18H36zM40,16H42V18H40zM44,16H46V18H44zM48,16H50V18H48zM52,16H54V18H52zM56,16H58V18H56zM60,16H62V18H60zM64,16H66V18H64zM68,16H70V18H68zM72,16H74V18H72zM74,16H76V18H74zM76,16H78V18H76zM78,16H80V18H78zM80,16H82V18H80zM82,16H84V18H82zM84,16H86V18H84zM20,18H22V20H20zM24,18H26V20H24zM30,18H32V20H30zM42,18H44V20H42zM56,18H58V20H56zM62,18H64V20H62zM64,18H66V20H64zM66,18H68V20H66zM8,20H10V22H8zM10,20H12V22H10zM16,20H18V22H16zM18,20H20V22H18zM20,20H22V22H20zM26,20H28V22H26zM30,20H32V22H30zM32,20H34V22H32zM36,20H38V22H36zM38,20H40V22H38zM40,20H42V22H40zM42,20H44V22H42zM46,20H48V22H46zM48,20H50V22H48zM58,20H60V22H58zM60,20H62V22H60zM62,20H64V22H62zM64,20H66V22H64zM70,20H72V22H70zM72,20H74V22H72zM76,20H78V22H76zM10,22H12V24H10zM12,22H14V24H12zM14,22H16V24H14zM20,22H22V24H20zM22,22H24V24H22zM26,22H28V24H26zM30,22H32V24H30zM36,22H38V24H36zM38,22H40V24H38zM42,22H44V24H42zM46,22H48V24H46zM48,22H50V24H48zM50,22H52V24H50zM52,22H54V24H52zM54,22H56V24H54zM60,22H62V24H60zM62,22H64V24H62zM64,22H66V24H64zM66,22H68V24H66zM68,22H70V24H68zM70,22H72V24H70zM72,22H74V24H72zM76,22H78V24H76zM80,22H82V24H80zM82,22H84V24H82zM4,24H6V26H4zM6,24H8V26H6zM14,24H16V26H14zM16,24H18V26H16zM22,24H24V26H22zM26,24H28V26H26zM40,24H42V26H40zM46,24H48V26H46zM48,24H50V26H48zM50,24H52V26H50zM54,24H56V26H54zM60,24H62V26H60zM64,24H66V26H64zM70,24H72V26H70zM72,24H74V26H72zM74,24H76V26H74zM80,24H82V26H80zM82,24H84V26H82zM4,26H6V28H4zM8,26H10V28H8zM12,26H14V28H12zM14,26H16V28H14zM20,26H22V28H20zM24,26H26V28H24zM26,26H28V28H26zM28,26H30V28H28zM32,26H34V28H32zM34,26H36V28H34zM36,26H38V28H36zM38,26H40V28H38zM40,26H42V28H40zM50,26H52V28H50zM52,26H54V28H52zM56,26H58V28H56zM58,26H60V28H58zM60,26H62V28H60zM68,26H70V28H68zM70,26H72V28H70zM72,26H74V28H72zM82,26H84V28H82zM84,26H86V28H84zM8,28H10V30H8zM12,28H14V30H12zM16,28H18V30H16zM24,28H26V30H24zM26,28H28V30H26zM28,28H30V30H28zM38,28H40V30H38zM40,28H42V30H40zM42,28H44V30H42zM44,28H46V30H44zM52,28H54V30H52zM54,28H56V30H54zM58,28H60V30H58zM62,28H64V30H62zM66,28H68V30H66zM70,28H72V30H70zM74,28H76V30H74zM78,28H80V30H78zM80,28H82V30H80zM84,28H86V30H84zM4,30H6V32H4zM8,30H10V32H8zM14,30H16V32H14zM26,30H28V32H26zM28,30H30V32H28zM30,30H32V32H30zM32,30H34V32H32zM34,30H36V32H34zM36,30H38V32H36zM40,30H42V32H40zM56,30H58V32H56zM60,30H62V32H60zM62,30H64V32H62zM66,30H68V32H66zM68,30H70V32H68zM70,30H72V32H70zM72,30H74V32H72zM80,30H82V32H80zM84,30H86V32H84zM4,32H6V34H4zM6,32H8V34H6zM8,32H10V34H8zM14,32H16V34H14zM16,32H18V34H16zM18,32H20V34H18zM24,32H26V34H24zM26,32H28V34H26zM28,32H30V34H28zM30,32H32V34H30zM38,32H40V34H38zM40,32H42V34H40zM42,32H44V34H42zM44,32H46V34H44zM48,32H50V34H48zM50,32H52V34H50zM58,32H60V34H58zM60,32H62V34H60zM62,32H64V34H62zM66,32H68V34H66zM72,32H74V34H72zM76,32H78V34H76zM80,32H82V34H80zM84,32H86V34H84zM6,34H8V36H6zM10,34H12V36H10zM22,34H24V36H22zM36,34H38V36H36zM44,34H46V36H44zM46,34H48V36H46zM50,34H52V36H50zM54,34H56V36H54zM56,34H58V36H56zM60,34H62V36H60zM66,34H68V36H66zM68,34H70V36H68zM72,34H74V36H72zM74,34H76V36H74zM78,34H80V36H78zM8,36H10V38H8zM10,36H12V38H10zM12,36H14V38H12zM14,36H16V38H14zM16,36H18V38H16zM20,36H22V38H20zM22,36H24V38H22zM24,36H26V38H24zM26,36H28V38H26zM28,36H30V38H28zM30,36H32V38H30zM32,36H34V38H32zM36,36H38V38H36zM40,36H42V38H40zM44,36H46V38H44zM52,36H54V38H52zM54,36H56V38H54zM56,36H58V38H56zM58,36H60V38H58zM64,36H66V38H64zM76,36H78V38H76zM84,36H86V38H84zM6,38H8V40H6zM12,38H14V40H12zM14,38H16V40H14zM18,38H20V40H18zM22,38H24V40H22zM32,38H34V40H32zM34,38H36V40H34zM36,38H38V40H36zM38,38H40V40H38zM40,38H42V40H40zM42,38H44V40H42zM44,38H46V40H44zM48,38H50V40H48zM52,38H54V40H52zM54,38H56V40H54zM56,38H58V40H56zM58,38H60V40H58zM68,38H70V40H68zM70,38H72V40H70zM74,38H76V40H74zM80,38H82V40H80zM4,40H6V42H4zM6,40H8V42H6zM8,40H10V42H8zM10,40H12V42H10zM16,40H18V42H16zM18,40H20V42H18zM20,40H22V42H20zM26,40H28V42H26zM28,40H30V42H28zM32,40H34V42H32zM34,40H36V42H34zM36,40H38V42H36zM38,40H40V42H38zM42,40H44V42H42zM46,40H48V42H46zM50,40H52V42H50zM52,40H54V42H52zM54,40H56V42H54zM58,40H60V42H58zM60,40H62V42H60zM62,40H64V42H62zM64,40H66V42H64zM68,40H70V42H68zM76,40H78V42H76zM80,40H82V42H80zM4,42H6V44H4zM10,42H12V44H10zM14,42H16V44H14zM18,42H20V44H18zM32,42H34V44H32zM38,42H40V44H38zM40,42H42V44H40zM42,42H44V44H42zM44,42H46V44H44zM50,42H52V44H50zM58,42H60V44H58zM60,42H62V44H60zM62,42H64V44H62zM68,42H70V44H68zM74,42H76V44H74zM78,42H80V44H78zM80,42H82V44H80zM84,42H86V44H84zM4,44H6V46H4zM6,44H8V46H6zM12,44H14V46H12zM16,44H18V46H16zM24,44H26V46H24zM26,44H28V46H26zM28,44H30V46H28zM30,44H32V46H30zM32,44H34V46H32zM38,44H40V46H38zM46,44H48V46H46zM48,44H50V46H48zM50,44H52V46H50zM58,44H60V46H58zM60,44H62V46H60zM66,44H68V46H66zM70,44H72V46H70zM72,44H74V46H72zM76,44H78V46H76zM78,44H80V46H78zM80,44H82V46H80zM82,44H84V46H82zM4,46H6V48H4zM6,46H8V48H6zM8,46H10V48H8zM12,46H14V48H12zM20,46H22V48H20zM24,46H26V48H24zM26,46H28V48H26zM34,46H36V48H34zM40,46H42V48H40zM44,46H46V48H44zM46,46H48V48H46zM50,46H52V48H50zM52,46H54V48H52zM54,46H56V48H54zM56,46H58V48H56zM60,46H62V48H60zM62,46H64V48H62zM64,46H66V48H64zM66,46H68V48H66zM72,46H74V48H72zM76,46H78V48H76zM78,46H80V48H78zM82,46H84V48H82zM84,46H86V48H84zM4,48H6V50H4zM6,48H8V50H6zM10,48H12V50H10zM12,48H14V50H12zM16,48H18V50H16zM18,48H20V50H18zM20,48H22V50H20zM28,48H30V50H28zM34,48H36V50H34zM42,48H44V50H42zM44,48H46V50H44zM64,48H66V50H64zM70,48H72V50H70zM72,48H74V50H72zM74,48H76V50H74zM78,48H80V50H78zM82,48H84V50H82zM4,50H6V52H4zM8,50H10V52H8zM10,50H12V52H10zM14,50H16V52H14zM28,50H30V52H28zM34,50H36V52H34zM38,50H40V52H38zM48,50H50V52H48zM50,50H52V52H50zM52,50H54V52H52zM54,50H56V52H54zM56,50H58V52H56zM64,50H66V52H64zM66,50H68V52H66zM70,50H72V52H70zM6,52H8V54H6zM10,52H12V54H10zM12,52H14V54H12zM16,52H18V54H16zM18,52H20V54H18zM20,52H22V54H20zM26,52H28V54H26zM28,52H30V54H28zM32,52H34V54H32zM38,52H40V54H38zM42,52H44V54H42zM46,52H48V54H46zM50,52H52V54H50zM52,52H54V54H52zM54,52H56V54H54zM56,52H58V54H56zM60,52H62V54H60zM62,52H64V54H62zM66,52H68V54H66zM70,52H72V54H70zM74,52H76V54H74zM6,54H8V56H6zM14,54H16V56H14zM22,54H24V56H22zM38,54H40V56H38zM42,54H44V56H42zM48,54H50V56H48zM50,54H52V56H50zM52,54H54V56H52zM54,54H56V56H54zM58,54H60V56H58zM60,54H62V56H60zM62,54H64V56H62zM66,54H68V56H66zM68,54H70V56H68zM70,54H72V56H70zM72,54H74V56H72zM78,54H80V56H78zM80,54H82V56H80zM82,54H84V56H82zM84,54H86V56H84zM12,56H14V58H12zM14,56H16V58H14zM16,56H18V58H16zM20,56H22V58H20zM22,56H24V58H22zM24,56H26V58H24zM26,56H28V58H26zM28,56H30V58H28zM38,56H40V58H38zM42,56H44V58H42zM44,56H46V58H44zM46,56H48V58H46zM48,56H50V58H48zM50,56H52V58H50zM54,56H56V58H54zM56,56H58V58H56zM60,56H62V58H60zM64,56H66V58H64zM66,56H68V58H66zM68,56H70V58H68zM72,56H74V58H72zM78,56H80V58H78zM84,56H86V58H84zM8,58H10V60H8zM12,58H14V60H12zM18,58H20V60H18zM22,58H24V60H22zM24,58H26V60H24zM26,58H28V60H26zM32,58H34V60H32zM44,58H46V60H44zM48,58H50V60H48zM50,58H52V60H50zM52,58H54V60H52zM58,58H60V60H58zM60,58H62V60H60zM66,58H68V60H66zM68,58H70V60H68zM76,58H78V60H76zM78,58H80V60H78zM82,58H84V60H82zM4,60H6V62H4zM8,60H10V62H8zM10,60H12V62H10zM12,60H14V62H12zM16,60H18V62H16zM18,60H20V62H18zM20,60H22V62H20zM22,60H24V62H22zM24,60H26V62H24zM26,60H28V62H26zM32,60H34V62H32zM34,60H36V62H34zM38,60H40V62H38zM40,60H42V62H40zM46,60H48V62H46zM48,60H50V62H48zM50,60H52V62H50zM60,60H62V62H60zM64,60H66V62H64zM66,60H68V62H66zM74,60H76V62H74zM76,60H78V62H76zM78,60H80V62H78zM82,60H84V62H82zM6,62H8V64H6zM14,62H16V64H14zM22,62H24V64H22zM28,62H30V64H28zM30,62H32V64H30zM34,62H36V64H34zM36,62H38V64H36zM38,62H40V64H38zM40,62H42V64H40zM44,62H46V64H44zM52,62H54V64H52zM56,62H58V64H56zM60,62H62V64H60zM64,62H66V64H64zM70,62H72V64H70zM74,62H76V64H74zM80,62H82V64H80zM82,62H84V64H82zM4,64H6V66H4zM12,64H14V66H12zM16,64H18V66H16zM18,64H20V66H18zM24,64H26V66H24zM32,64H34V66H32zM38,64H40V66H38zM42,64H44V66H42zM44,64H46V66H44zM50,64H52V66H50zM58,64H60V66H58zM60,64H62V66H60zM68,64H70V66H68zM70,64H72V66H70zM72,64H74V66H72zM74,64H76V66H74zM76,64H78V66H76zM78,64H80V66H78zM80,64H82V66H80zM8,66H10V68H8zM22,66H24V68H22zM24,66H26V68H24zM28,66H30V68H28zM36,66H38V68H36zM40,66H42V68H40zM46,66H48V68H46zM48,66H50V68H48zM52,66H54V68H52zM56,66H58V68H56zM62,66H64V68H62zM64,66H66V68H64zM66,66H68V68H66zM68,66H70V68H68zM72,66H74V68H72zM78,66H80V68H78zM80,66H82V68H80zM84,66H86V68H84zM6,68H8V70H6zM12,68H14V70H12zM16,68H18V70H16zM18,68H20V70H18zM20,68H22V70H20zM22,68H24V70H22zM26,68H28V70H26zM30,68H32V70H30zM34,68H36V70H34zM42,68H44V70H42zM44,68H46V70H44zM46,68H48V70H46zM52,68H54V70H52zM54,68H56V70H54zM62,68H64V70H62zM64,68H66V70H64zM66,68H68V70H66zM68,68H70V70H68zM70,68H72V70H70zM72,68H74V70H72zM74,68H76V70H74zM76,68H78V70H76zM80,68H82V70H80zM82,68H84V70H82zM84,68H86V70H84zM20,70H22V72H20zM22,70H24V72H22zM24,70H26V72H24zM28,70H30V72H28zM30,70H32V72H30zM32,70H34V72H32zM34,70H36V72H34zM36,70H38V72H36zM44,70H46V72H44zM48,70H50V72H48zM54,70H56V72H54zM58,70H60V72H58zM60,70H62V72H60zM62,70H64V72H62zM68,70H70V72H68zM76,70H78V72H76zM82,70H84V72H82zM84,70H86V72H84zM4,72H6V74H4zM6,72H8V74H6zM8,72H10V74H8zM10,72H12V74H10zM12,72H14V74H12zM14,72H16V74H14zM16,72H18V74H16zM20,72H22V74H20zM22,72H24V74H22zM24,72H26V74H24zM26,72H28V74H26zM28,72H30V74H28zM34,72H36V74H34zM40,72H42V74H40zM44,72H46V74H44zM46,72H48V74H46zM48,72H50V74H48zM64,72H66V74H64zM66,72H68V74H66zM68,72H70V74H68zM72,72H74V74H72zM76,72H78V74H76zM78,72H80V74H78zM80,72H82V74H80zM82,72H84V74H82zM4,74H6V76H4zM16,74H18V76H16zM22,74H24V76H22zM32,74H34V76H32zM34,74H36V76H34zM36,74H38V76H36zM38,74H40V76H38zM40,74H42V76H40zM42,74H44V76H42zM44,74H46V76H44zM46,74H48V76H46zM48,74H50V76H48zM50,74H52V76H50zM52,74H54V76H52zM54,74H56V76H54zM56,74H58V76H56zM62,74H64V76H62zM68,74H70V76H68zM76,74H78V76H76zM82,74H84V76H82zM4,76H6V78H4zM8,76H10V78H8zM10,76H12V78H10zM12,76H14V78H12zM16,76H18V78H16zM22,76H24V78H22zM28,76H30V78H28zM32,76H34V78H32zM38,76H40V78H38zM40,76H42V78H40zM44,76H46V78H44zM58,76H60V78H58zM68,76H70V78H68zM70,76H72V78H70zM72,76H74V78H72zM74,76H76V78H74zM76,76H78V78H76zM78,76H80V78H78zM80,76H82V78H80zM84,76H86V78H84zM4,78H6V80H4zM8,78H10V80H8zM10,78H12V80H10zM12,78H14V80H12zM16,78H18V80H16zM20,78H22V80H20zM24,78H26V80H24zM28,78H30V80H28zM32,78H34V80H32zM36,78H38V80H36zM42,78H44V80H42zM44,78H46V80H44zM46,78H48V80H46zM50,78H52V80H50zM54,78H56V80H54zM58,78H60V80H58zM60,78H62V80H60zM66,78H68V80H66zM76,78H78V80H76zM80,78H82V80H80zM82,78H84V80H82zM84,78H86V80H84zM4,80H6V82H4zM8,80H10V82H8zM10,80H12V82H10zM12,80H14V82H12zM16,80H18V82H16zM20,80H22V82H20zM22,80H24V82H22zM28,80H30V82H28zM32,80H34V82H32zM34,80H36V82H34zM42,80H44V82H42zM44,80H46V82H44zM48,80H50V82H48zM50,80H52V82H50zM56,80H58V82H56zM60,80H62V82H60zM62,80H64V82H62zM64,80H66V82H64zM68,80H70V82H68zM74,80H76V82H74zM78,80H80V82H78zM80,80H82V82H80zM84,80H86V82H84zM4,82H6V84H4zM16,82H18V84H16zM30,82H32V84H30zM32,82H34V84H32zM36,82H38V84H36zM38,82H40V84H38zM40,82H42V84H40zM50,82H52V84H50zM52,82H54V84H52zM54,82H56V84H54zM56,82H58V84H56zM58,82H60V84H58zM60,82H62V84H60zM66,82H68V84H66zM68,82H70V84H68zM70,82H72V84H70zM76,82H78V84H76zM82,82H84V84H82zM4,84H6V86H4zM6,84H8V86H6zM8,84H10V86H8zM10,84H12V86H10zM12,84H14V86H12zM14,84H16V86H14zM16,84H18V86H16zM24,84H26V86H24zM30,84H32V86H30zM32,84H34V86H32zM34,84H36V86H34zM36,84H38V86H36zM40,84H42V86H40zM42,84H44V86H42zM50,84H52V86H50zM52,84H54V86H52zM64,84H66V86H64zM66,84H68V86H66zM68,84H70V86H68zM72,84H74V86H72zM78,84H80V86H78zM82,84H84V86H82z" id="qr-path" fill="#000000" fill-opacity="1" fill-rule="nonzero" stroke="none" /></svg>