<?xml version='1.0' encoding='UTF-8'?>
<svg width="45mm" height="45mm" version="1.1" viewBox="0 0 45 45" fill_color="black" back_color="white" xmlns="http://www.w3.org/2000/svg"><path d="M2,2H3V3H2zM3,2H4V3H3zM4,2H5V3H4zM5,2H6V3H5zM6,2H7V3H6zM7,2H8V3H7zM8,2H9V3H8zM10,2H11V3H10zM12,2H13V3H12zM15,2H16V3H15zM19,2H20V3H19zM25,2H26V3H25zM26,2H27V3H26zM27,2H28V3H27zM29,2H30V3H29zM30,2H31V3H30zM31,2H32V3H31zM33,2H34V3H33zM34,2H35V3H34zM36,2H37V3H36zM37,2H38V3H37zM38,2H39V3H38zM39,2H40V3H39zM40,2H41V3H40zM41,2H42V3H41zM42,2H43V3H42zM2,3H3V4H2zM8,3H9V4H8zM10,3H11V4H10zM13,3H14V4H13zM17,3H18V4H17zM18,3H19V4H18zM21,3H22V4H21zM24,3H25V4H24zM27,3H28V4H27zM28,3H29V4H28zM29,3H30V4H29zM30,3H31V4H30zM32,3H33V4H32zM34,3H35V4H34zM36,3H37V4H36zM42,3H43V4H42zM2,4H3V5H2zM4,4H5V5H4zM5,4H6V5H5zM6,4H7V5H6zM8,4H9V5H8zM10,4H11V5H10zM11,4H12V5H11zM12,4H13V5H12zM14,4H15V5H14zM16,4H17V5H16zM17,4H18V5H17zM20,4H21V5H20zM21,4H22V5H21zM24,4H25V5H24zM27,4H28V5H27zM29,4H30V5H29zM30,4H31V5H30zM32,4H33V5H32zM34,4H35V5H34zM36,4H37V5H36zM38,4H39V5H38zM39,4H40V5H39zM40,4H41V5H40zM42,4H43V5H42zM2,5H3V6H2zM4,5H5V6H4zM5,5H6V6H5zM6,5H7V6H6zM8,5H9V6H8zM13,5H14V6H13zM14,5H15V6H14zM15,5H16V6H15zM17,5H18V6H17zM19,5H20V6H19zM20,5H21V6H20zM22,5H23V6H22zM24,5H25V6H24zM26,5H27V6H26zM28,5H29V6H28zM30,5H31V6H30zM32,5H33V6H32zM34,5H35V6H34zM36,5H37V6H36zM38,5H39V6H38zM39,5H40V6H39zM40,5H41V6H40zM42,5H43V6H42zM2,6H3V7H2zM4,6H5V7H4zM5,6H6V7H5zM6,6H7V7H6zM8,6H9V7H8zM12,6H13V7H12zM13,6H14V7H13zM16,6H17V7H16zM20,6H21V7H20zM23,6H24V7H23zM24,6H25V7H24zM26,6H27V7H26zM27,6H28V7H27zM30,6H31V7H30zM32,6H33V7H32zM33,6H34V7H33zM34,6H35V7H34zM36,6H37V7H36zM38,6H39V7H38zM39,6H40V7H39zM40,6H41V7H40zM42,6H43V7H42zM2,7H3V8H2zM8,7H9V8H8zM10,7H11V8H10zM11,7H12V8H11zM14,7H15V8H14zM19,7H20V8H19zM20,7H21V8H20zM21,7H22V8H21zM24,7H25V8H24zM26,7H27V8H26zM28,7H29V8H28zM29,7H30V8H29zM30,7H31V8H30zM31,7H32V8H31zM34,7H35V8H34zM36,7H37V8H36zM42,7H43V8H42zM2,8H3V9H2zM3,8H4V9H3zM4,8H5V9H4zM5,8H6V9H5zM6,8H7V9H6zM7,8H8V9H7zM8,8H9V9H8zM10,8H11V9H10zM12,8H13V9H12zM14,8H15V9H14zM16,8H17V9H16zM18,8H19V9H18zM20,8H21V9H20zM22,8H23V9H22zM24,8H25V9H24zM26,8H27V9H26zM28,8H29V9H28zM30,8H31V9H30zM32,8H33V9H32zM34,8H35V9H34zM36,8H37V9H36zM37,8H38V9H37zM38,8H39V9H38zM39,8H40V9H39zM40,8H41V9H40zM41,8H42V9H41zM42,8H43V9H42zM10,9H11V10H10zM14,9H15V10H14zM17,9H18V10H17zM18,9H19V10H18zM19,9H20V10H19zM21,9H22V10H21zM25,9H26V10H25zM28,9H29V10H28zM29,9H30V10H29zM30,9H31V10H30zM4,10H5V11H4zM5,10H6V11H5zM6,10H7V11H6zM8,10H9V11H8zM10,10H11V11H10zM11,10H12V11H11zM12,10H13V11H12zM17,10H18V11H17zM20,10H21V11H20zM23,10H24V11H23zM24,10H25V11H24zM25,10H26V11H25zM26,10H27V11H26zM27,10H28V11H27zM28,10H29V11H28zM29,10H30V11H29zM31,10H32V11H31zM35,10H36V11H35zM36,10H37V11H36zM37,10H38V11H37zM40,10H41V11H40zM41,10H42V11H41zM42,10H43V11H42zM2,11H3V12H2zM6,11H7V12H6zM7,11H8V12H7zM9,11H10V12H9zM10,11H11V12H10zM15,11H16V12H15zM16,11H17V12H16zM17,11H18V12H17zM19,11H20V12H19zM20,11H21V12H20zM21,11H22V12H21zM22,11H23V12H22zM25,11H26V12H25zM32,11H33V12H32zM33,11H34V12H33zM34,11H35V12H34zM35,11H36V12H35zM36,11H37V12H36zM37,11H38V12H37zM38,11H39V12H38zM40,11H41V12H40zM42,11H43V12H42zM3,12H4V13H3zM5,12H6V13H5zM6,12H7V13H6zM8,12H9V13H8zM9,12H10V13H9zM12,12H13V13H12zM14,12H15V13H14zM15,12H16V13H15zM24,12H25V13H24zM27,12H28V13H27zM28,12H29V13H28zM29,12H30V13H29zM30,12H31V13H30zM32,12H33V13H32zM34,12H35V13H34zM37,12H38V13H37zM41,12H42V13H41zM5,13H6V14H5zM6,13H7V14H6zM7,13H8V14H7zM14,13H15V14H14zM15,13H16V14H15zM17,13H18V14H17zM19,13H20V14H19zM20,13H21V14H20zM25,13H26V14H25zM26,13H27V14H26zM28,13H29V14H28zM32,13H33V14H32zM33,13H34V14H33zM34,13H35V14H34zM35,13H36V14H35zM37,13H38V14H37zM39,13H40V14H39zM41,13H42V14H41zM42,13H43V14H42zM2,14H3V15H2zM3,14H4V15H3zM8,14H9V15H8zM9,14H10V15H9zM12,14H13V15H12zM13,14H14V15H13zM15,14H16V15H15zM17,14H18V15H17zM18,14H19V15H18zM19,14H20V15H19zM21,14H22V15H21zM22,14H23V15H22zM23,14H24V15H23zM24,14H25V15H24zM27,14H28V15H27zM28,14H29V15H28zM29,14H30V15H29zM30,14H31V15H30zM31,14H32V15H31zM33,14H34V15H33zM34,14H35V15H34zM35,14H36V15H35zM39,14H40V15H39zM40,14H41V15H40zM41,14H42V15H41zM2,15H3V16H2zM3,15H4V16H3zM7,15H8V16H7zM11,15H12V16H11zM17,15H18V16H17zM20,15H21V16H20zM21,15H22V16H21zM23,15H24V16H23zM25,15H26V16H25zM26,15H27V16H26zM27,15H28V16H27zM28,15H29V16H28zM29,15H30V16H29zM33,15H34V16H33zM36,15H37V16H36zM37,15H38V16H37zM38,15H39V16H38zM41,15H42V16H41zM42,15H43V16H42zM2,16H3V17H2zM8,16H9V17H8zM10,16H11V17H10zM11,16H12V17H11zM12,16H13V17H12zM14,16H15V17H14zM17,16H18V17H17zM20,16H21V17H20zM22,16H23V17H22zM24,16H25V17H24zM26,16H27V17H26zM27,16H28V17H27zM28,16H29V17H28zM29,16H30V17H29zM30,16H31V17H30zM35,16H36V17H35zM37,16H38V17H37zM40,16H41V17H40zM2,17H3V18H2zM9,17H10V18H9zM10,17H11V18H10zM11,17H12V18H11zM12,17H13V18H12zM15,17H16V18H15zM16,17H17V18H16zM18,17H19V18H18zM20,17H21V18H20zM22,17H23V18H22zM29,17H30V18H29zM32,17H33V18H32zM33,17H34V18H33zM36,17H37V18H36zM39,17H40V18H39zM41,17H42V18H41zM2,18H3V19H2zM4,18H5V19H4zM6,18H7V19H6zM7,18H8V19H7zM8,18H9V19H8zM11,18H12V19H11zM14,18H15V19H14zM18,18H19V19H18zM21,18H22V19H21zM23,18H24V19H23zM26,18H27V19H26zM27,18H28V19H27zM29,18H30V19H29zM30,18H31V19H30zM35,18H36V19H35zM37,18H38V19H37zM40,18H41V19H40zM41,18H42V19H41zM2,19H3V20H2zM5,19H6V20H5zM7,19H8V20H7zM9,19H10V20H9zM10,19H11V20H10zM11,19H12V20H11zM12,19H13V20H12zM13,19H14V20H13zM14,19H15V20H14zM15,19H16V20H15zM19,19H20V20H19zM21,19H22V20H21zM22,19H23V20H22zM24,19H25V20H24zM26,19H27V20H26zM27,19H28V20H27zM31,19H32V20H31zM33,19H34V20H33zM34,19H35V20H34zM36,19H37V20H36zM37,19H38V20H37zM38,19H39V20H38zM39,19H40V20H39zM40,19H41V20H40zM42,19H43V20H42zM2,20H3V21H2zM4,20H5V21H4zM5,20H6V21H5zM7,20H8V21H7zM8,20H9V21H8zM10,20H11V21H10zM17,20H18V21H17zM18,20H19V21H18zM22,20H23V21H22zM24,20H25V21H24zM25,20H26V21H25zM26,20H27V21H26zM27,20H28V21H27zM28,20H29V21H28zM29,20H30V21H29zM31,20H32V21H31zM34,20H35V21H34zM38,20H39V21H38zM39,20H40V21H39zM40,20H41V21H40zM2,21H3V22H2zM3,21H4V22H3zM4,21H5V22H4zM6,21H7V22H6zM7,21H8V22H7zM12,21H13V22H12zM13,21H14V22H13zM14,21H15V22H14zM15,21H16V22H15zM16,21H17V22H16zM19,21H20V22H19zM20,21H21V22H20zM21,21H22V22H21zM22,21H23V22H22zM23,21H24V22H23zM24,21H25V22H24zM29,21H30V22H29zM30,21H31V22H30zM31,21H32V22H31zM32,21H33V22H32zM33,21H34V22H33zM38,21H39V22H38zM39,21H40V22H39zM41,21H42V22H41zM3,22H4V23H3zM4,22H5V23H4zM7,22H8V23H7zM8,22H9V23H8zM12,22H13V23H12zM13,22H14V23H13zM16,22H17V23H16zM18,22H19V23H18zM19,22H20V23H19zM21,22H22V23H21zM25,22H26V23H25zM27,22H28V23H27zM29,22H30V23H29zM30,22H31V23H30zM37,22H38V23H37zM39,22H40V23H39zM40,22H41V23H40zM3,23H4V24H3zM4,23H5V24H4zM6,23H7V24H6zM11,23H12V24H11zM12,23H13V24H12zM13,23H14V24H13zM15,23H16V24H15zM16,23H17V24H16zM17,23H18V24H17zM20,23H21V24H20zM21,23H22V24H21zM22,23H23V24H22zM23,23H24V24H23zM24,23H25V24H24zM25,23H26V24H25zM30,23H31V24H30zM31,23H32V24H31zM32,23H33V24H32zM33,23H34V24H33zM34,23H35V24H34zM36,23H37V24H36zM38,23H39V24H38zM41,23H42V24H41zM42,23H43V24H42zM2,24H3V25H2zM4,24H5V25H4zM5,24H6V25H5zM7,24H8V25H7zM8,24H9V25H8zM11,24H12V25H11zM12,24H13V25H12zM15,24H16V25H15zM17,24H18V25H17zM18,24H19V25H18zM21,24H22V25H21zM22,24H23V25H22zM24,24H25V25H24zM26,24H27V25H26zM28,24H29V25H28zM29,24H30V25H29zM30,24H31V25H30zM31,24H32V25H31zM35,24H36V25H35zM37,24H38V25H37zM38,24H39V25H38zM3,25H4V26H3zM6,25H7V26H6zM7,25H8V26H7zM9,25H10V26H9zM12,25H13V26H12zM14,25H15V26H14zM21,25H22V26H21zM23,25H24V26H23zM26,25H27V26H26zM28,25H29V26H28zM33,25H34V26H33zM34,25H35V26H34zM38,25H39V26H38zM3,26H4V27H3zM5,26H6V27H5zM6,26H7V27H6zM7,26H8V27H7zM8,26H9V27H8zM13,26H14V27H13zM14,26H15V27H14zM15,26H16V27H15zM16,26H17V27H16zM17,26H18V27H17zM19,26H20V27H19zM20,26H21V27H20zM22,26H23V27H22zM23,26H24V27H23zM24,26H25V27H24zM27,26H28V27H27zM29,26H30V27H29zM30,26H31V27H30zM31,26H32V27H31zM33,26H34V27H33zM37,26H38V27H37zM40,26H41V27H40zM3,27H4V28H3zM4,27H5V28H4zM5,27H6V28H5zM6,27H7V28H6zM7,27H8V28H7zM9,27H10V28H9zM10,27H11V28H10zM13,27H14V28H13zM14,27H15V28H14zM15,27H16V28H15zM17,27H18V28H17zM18,27H19V28H18zM22,27H23V28H22zM26,27H27V28H26zM27,27H28V28H27zM30,27H31V28H30zM32,27H33V28H32zM33,27H34V28H33zM36,27H37V28H36zM38,27H39V28H38zM39,27H40V28H39zM41,27H42V28H41zM4,28H5V29H4zM6,28H7V29H6zM8,28H9V29H8zM10,28H11V29H10zM11,28H12V29H11zM12,28H13V29H12zM13,28H14V29H13zM14,28H15V29H14zM17,28H18V29H17zM19,28H20V29H19zM20,28H21V29H20zM21,28H22V29H21zM22,28H23V29H22zM23,28H24V29H23zM26,28H27V29H26zM28,28H29V29H28zM29,28H30V29H29zM32,28H33V29H32zM34,28H35V29H34zM38,28H39V29H38zM2,29H3V30H2zM3,29H4V30H3zM10,29H11V30H10zM11,29H12V30H11zM16,29H17V30H16zM23,29H24V30H23zM25,29H26V30H25zM27,29H28V30H27zM29,29H30V30H29zM30,29H31V30H30zM32,29H33V30H32zM33,29H34V30H33zM34,29H35V30H34zM35,29H36V30H35zM37,29H38V30H37zM38,29H39V30H38zM39,29H40V30H39zM42,29H43V30H42zM3,30H4V31H3zM5,30H6V31H5zM8,30H9V31H8zM9,30H10V31H9zM11,30H12V31H11zM13,30H14V31H13zM16,30H17V31H16zM18,30H19V31H18zM19,30H20V31H19zM22,30H23V31H22zM23,30H24V31H23zM25,30H26V31H25zM28,30H29V31H28zM29,30H30V31H29zM31,30H32V31H31zM32,30H33V31H32zM33,30H34V31H33zM34,30H35V31H34zM35,30H36V31H35zM39,30H40V31H39zM40,30H41V31H40zM2,31H3V32H2zM9,31H10V32H9zM11,31H12V32H11zM12,31H13V32H12zM13,31H14V32H13zM14,31H15V32H14zM15,31H16V32H15zM17,31H18V32H17zM20,31H21V32H20zM24,31H25V32H24zM27,31H28V32H27zM28,31H29V32H28zM29,31H30V32H29zM30,31H31V32H30zM31,31H32V32H31zM32,31H33V32H32zM33,31H34V32H33zM35,31H36V32H35zM36,31H37V32H36zM37,31H38V32H37zM38,31H39V32H38zM42,31H43V32H42zM2,32H3V33H2zM4,32H5V33H4zM6,32H7V33H6zM8,32H9V33H8zM12,32H13V33H12zM15,32H16V33H15zM16,32H17V33H16zM17,32H18V33H17zM18,32H19V33H18zM20,32H21V33H20zM22,32H23V33H22zM25,32H26V33H25zM27,32H28V33H27zM31,32H32V33H31zM34,32H35V33H34zM35,32H36V33H35zM36,32H37V33H36zM37,32H38V33H37zM39,32H40V33H39zM2,33H3V34H2zM5,33H6V34H5zM9,33H10V34H9zM11,33H12V34H11zM15,33H16V34H15zM16,33H17V34H16zM19,33H20V34H19zM20,33H21V34H20zM21,33H22V34H21zM25,33H26V34H25zM27,33H28V34H27zM30,33H31V34H30zM34,33H35V34H34zM35,33H36V34H35zM36,33H37V34H36zM38,33H39V34H38zM39,33H40V34H39zM41,33H42V34H41zM2,34H3V35H2zM4,34H5V35H4zM6,34H7V35H6zM8,34H9V35H8zM15,34H16V35H15zM16,34H17V35H16zM17,34H18V35H17zM19,34H20V35H19zM21,34H22V35H21zM23,34H24V35H23zM24,34H25V35H24zM25,34H26V35H25zM27,34H28V35H27zM31,34H32V35H31zM33,34H34V35H33zM34,34H35V35H34zM35,34H36V35H35zM36,34H37V35H36zM37,34H38V35H37zM38,34H39V35H38zM40,34H41V35H40zM41,34H42V35H41zM10,35H11V36H10zM13,35H14V36H13zM15,35H16V36H15zM16,35H17V36H16zM17,35H18V36H17zM22,35H23V36H22zM23,35H24V36H23zM24,35H25V36H24zM25,35H26V36H25zM26,35H27V36H26zM27,35H28V36H27zM28,35H29V36H28zM30,35H31V36H30zM32,35H33V36H32zM33,35H34V36H33zM34,35H35V36H34zM38,35H39V36H38zM42,35H43V36H42zM2,36H3V37H2zM3,36H4V37H3zM4,36H5V37H4zM5,36H6V37H5zM6,36H7V37H6zM7,36H8V37H7zM8,36H9V37H8zM12,36H13V37H12zM13,36H14V37H13zM15,36H16V37H15zM19,36H20V37H19zM20,36H21V37H20zM21,36H22V37H21zM29,36H30V37H29zM30,36H31V37H30zM32,36H33V37H32zM33,36H34V37H33zM34,36H35V37H34zM36,36H37V37H36zM38,36H39V37H38zM40,36H41V37H40zM2,37H3V38H2zM8,37H9V38H8zM11,37H12V38H11zM15,37H16V38H15zM16,37H17V38H16zM18,37H19V38H18zM19,37H20V38H19zM23,37H24V38H23zM25,37H26V38H25zM27,37H28V38H27zM28,37H29V38H28zM29,37H30V38H29zM33,37H34V38H33zM34,37H35V38H34zM38,37H39V38H38zM39,37H40V38H39zM2,38H3V39H2zM4,38H5V39H4zM5,38H6V39H5zM6,38H7V39H6zM8,38H9V39H8zM10,38H11V39H10zM11,38H12V39H11zM12,38H13V39H12zM13,38H14V39H13zM15,38H16V39H15zM20,38H21V39H20zM27,38H28V39H27zM30,38H31V39H30zM32,38H33V39H32zM34,38H35V39H34zM35,38H36V39H35zM36,38H37V39H36zM37,38H38V39H37zM38,38H39V39H38zM39,38H40V39H39zM40,38H41V39H40zM42,38H43V39H42zM2,39H3V40H2zM4,39H5V40H4zM5,39H6V40H5zM6,39H7V40H6zM8,39H9V40H8zM10,39H11V40H10zM12,39H13V40H12zM14,39H15V40H14zM15,39H16V40H15zM16,39H17V40H16zM17,39H18V40H17zM19,39H20V40H19zM21,39H22V40H21zM22,39H23V40H22zM27,39H28V40H27zM30,39H31V40H30zM31,39H32V40H31zM33,39H34V40H33zM34,39H35V40H34zM35,39H36V40H35zM37,39H38V40H37zM39,39H40V40H39zM40,39H41V40H40zM42,39H43V40H42zM2,40H3V41H2zM4,40H5V41H4zM5,40H6V41H5zM6,40H7V41H6zM8,40H9V41H8zM10,40H11V41H10zM11,40H12V41H11zM12,40H13V41H12zM16,40H17V41H16zM17,40H18V41H17zM18,40H19V41H18zM19,40H20V41H19zM20,40H21V41H20zM21,40H22V41H21zM24,40H25V41H24zM25,40H26V41H25zM26,40H27V41H26zM27,40H28V41H27zM29,40H30V41H29zM30,40H31V41H30zM31,40H32V41H31zM35,40H36V41H35zM36,40H37V41H36zM37,40H38V41H37zM38,40H39V41H38zM39,40H40V41H39zM41,40H42V41H41zM2,41H3V42H2zM8,41H9V42H8zM11,41H12V42H11zM12,41H13V42H12zM13,41H14V42H13zM16,41H17V42H16zM19,41H20V42H19zM21,41H22V42H21zM23,41H24V42H23zM24,41H25V42H24zM25,41H26V42H25zM26,41H27V42H26zM27,41H28V42H27zM30,41H31V42H30zM34,41H35V42H34zM35,41H36V42H35zM38,41H39V42H38zM41,41H42V42H41zM2,42H3V43H2zM3,42H4V43H3zM4,42H5V43H4zM5,42H6V43H5zM6,42H7V43H6zM7,42H8V43H7zM8,42H9V43H8zM11,42H12V43H11zM12,42H13V43H12zM14,42H15V43H14zM16,42H17V43H16zM17,42H18V43H17zM27,42H28V43H27zM28,42H29V43H28zM31,42H32V43H31zM35,42H36V43H35zM36,42H37V43H36zM37,42H38V43H37zM38,42H39V43H38zM39,42H40V43H39zM40,42H41V43H40z" id="qr-path" fill="#000000" fill-opacity="1" fill-rule="nonzero" stroke="none" /></svg>