<?xml version='1.0' encoding='UTF-8'?>
<svg width="45mm" height="45mm" version="1.1" viewBox="0 0 45 45" fill_color="black" back_color="white" xmlns="http://www.w3.org/2000/svg"><path d="M2,2H3V3H2zM3,2H4V3H3zM4,2H5V3H4zM5,2H6V3H5zM6,2H7V3H6zM7,2H8V3H7zM8,2H9V3H8zM10,2H11V3H10zM13,2H14V3H13zM15,2H16V3H15zM16,2H17V3H16zM18,2H19V3H18zM21,2H22V3H21zM22,2H23V3H22zM24,2H25V3H24zM26,2H27V3H26zM28,2H29V3H28zM29,2H30V3H29zM31,2H32V3H31zM36,2H37V3H36zM37,2H38V3H37zM38,2H39V3H38zM39,2H40V3H39zM40,2H41V3H40zM41,2H42V3H41zM42,2H43V3H42zM2,3H3V4H2zM8,3H9V4H8zM13,3H14V4H13zM15,3H16V4H15zM18,3H19V4H18zM20,3H21V4H20zM21,3H22V4H21zM23,3H24V4H23zM24,3H25V4H24zM27,3H28V4H27zM28,3H29V4H28zM30,3H31V4H30zM31,3H32V4H31zM32,3H33V4H32zM34,3H35V4H34zM36,3H37V4H36zM42,3H43V4H42zM2,4H3V5H2zM4,4H5V5H4zM5,4H6V5H5zM6,4H7V5H6zM8,4H9V5H8zM10,4H11V5H10zM11,4H12V5H11zM12,4H13V5H12zM14,4H15V5H14zM17,4H18V5H17zM19,4H20V5H19zM21,4H22V5H21zM24,4H25V5H24zM27,4H28V5H27zM29,4H30V5H29zM30,4H31V5H30zM32,4H33V5H32zM34,4H35V5H34zM36,4H37V5H36zM38,4H39V5H38zM39,4H40V5H39zM40,4H41V5H40zM42,4H43V5H42zM2,5H3V6H2zM4,5H5V6H4zM5,5H6V6H5zM6,5H7V6H6zM8,5H9V6H8zM12,5H13V6H12zM13,5H14V6H13zM14,5H15V6H14zM15,5H16V6H15zM18,5H19V6H18zM23,5H24V6H23zM24,5H25V6H24zM26,5H27V6H26zM29,5H30V6H29zM32,5H33V6H32zM36,5H37V6H36zM38,5H39V6H38zM39,5H40V6H39zM40,5H41V6H40zM42,5H43V6H42zM2,6H3V7H2zM4,6H5V7H4zM5,6H6V7H5zM6,6H7V7H6zM8,6H9V7H8zM10,6H11V7H10zM12,6H13V7H12zM13,6H14V7H13zM20,6H21V7H20zM23,6H24V7H23zM26,6H27V7H26zM27,6H28V7H27zM30,6H31V7H30zM32,6H33V7H32zM33,6H34V7H33zM34,6H35V7H34zM36,6H37V7H36zM38,6H39V7H38zM39,6H40V7H39zM40,6H41V7H40zM42,6H43V7H42zM2,7H3V8H2zM8,7H9V8H8zM14,7H15V8H14zM17,7H18V8H17zM19,7H20V8H19zM20,7H21V8H20zM21,7H22V8H21zM23,7H24V8H23zM24,7H25V8H24zM26,7H27V8H26zM28,7H29V8H28zM30,7H31V8H30zM31,7H32V8H31zM34,7H35V8H34zM36,7H37V8H36zM42,7H43V8H42zM2,8H3V9H2zM3,8H4V9H3zM4,8H5V9H4zM5,8H6V9H5zM6,8H7V9H6zM7,8H8V9H7zM8,8H9V9H8zM10,8H11V9H10zM12,8H13V9H12zM14,8H15V9H14zM16,8H17V9H16zM18,8H19V9H18zM20,8H21V9H20zM22,8H23V9H22zM24,8H25V9H24zM26,8H27V9H26zM28,8H29V9H28zM30,8H31V9H30zM32,8H33V9H32zM34,8H35V9H34zM36,8H37V9H36zM37,8H38V9H37zM38,8H39V9H38zM39,8H40V9H39zM40,8H41V9H40zM41,8H42V9H41zM42,8H43V9H42zM10,9H11V10H10zM11,9H12V10H11zM14,9H15V10H14zM18,9H19V10H18zM19,9H20V10H19zM21,9H22V10H21zM23,9H24V10H23zM25,9H26V10H25zM28,9H29V10H28zM30,9H31V10H30zM7,10H8V11H7zM8,10H9V11H8zM11,10H12V11H11zM12,10H13V11H12zM17,10H18V11H17zM20,10H21V11H20zM23,10H24V11H23zM24,10H25V11H24zM25,10H26V11H25zM26,10H27V11H26zM27,10H28V11H27zM28,10H29V11H28zM29,10H30V11H29zM31,10H32V11H31zM36,10H37V11H36zM38,10H39V11H38zM40,10H41V11H40zM42,10H43V11H42zM2,11H3V12H2zM4,11H5V12H4zM5,11H6V12H5zM6,11H7V12H6zM7,11H8V12H7zM9,11H10V12H9zM11,11H12V12H11zM12,11H13V12H12zM15,11H16V12H15zM18,11H19V12H18zM19,11H20V12H19zM20,11H21V12H20zM21,11H22V12H21zM23,11H24V12H23zM24,11H25V12H24zM25,11H26V12H25zM28,11H29V12H28zM29,11H30V12H29zM30,11H31V12H30zM32,11H33V12H32zM33,11H34V12H33zM37,11H38V12H37zM38,11H39V12H38zM41,11H42V12H41zM3,12H4V13H3zM5,12H6V13H5zM6,12H7V13H6zM8,12H9V13H8zM9,12H10V13H9zM12,12H13V13H12zM14,12H15V13H14zM15,12H16V13H15zM24,12H25V13H24zM27,12H28V13H27zM28,12H29V13H28zM29,12H30V13H29zM30,12H31V13H30zM32,12H33V13H32zM34,12H35V13H34zM37,12H38V13H37zM41,12H42V13H41zM2,13H3V14H2zM3,13H4V14H3zM11,13H12V14H11zM14,13H15V14H14zM15,13H16V14H15zM19,13H20V14H19zM20,13H21V14H20zM23,13H24V14H23zM25,13H26V14H25zM26,13H27V14H26zM28,13H29V14H28zM29,13H30V14H29zM32,13H33V14H32zM33,13H34V14H33zM34,13H35V14H34zM37,13H38V14H37zM39,13H40V14H39zM42,13H43V14H42zM2,14H3V15H2zM3,14H4V15H3zM4,14H5V15H4zM6,14H7V15H6zM8,14H9V15H8zM10,14H11V15H10zM14,14H15V15H14zM16,14H17V15H16zM17,14H18V15H17zM18,14H19V15H18zM23,14H24V15H23zM25,14H26V15H25zM29,14H30V15H29zM35,14H36V15H35zM36,14H37V15H36zM37,14H38V15H37zM41,14H42V15H41zM42,14H43V15H42zM2,15H3V16H2zM5,15H6V16H5zM7,15H8V16H7zM14,15H15V16H14zM17,15H18V16H17zM20,15H21V16H20zM21,15H22V16H21zM22,15H23V16H22zM27,15H28V16H27zM28,15H29V16H28zM33,15H34V16H33zM35,15H36V16H35zM36,15H37V16H36zM37,15H38V16H37zM38,15H39V16H38zM42,15H43V16H42zM2,16H3V17H2zM8,16H9V17H8zM10,16H11V17H10zM11,16H12V17H11zM12,16H13V17H12zM14,16H15V17H14zM17,16H18V17H17zM20,16H21V17H20zM24,16H25V17H24zM25,16H26V17H25zM26,16H27V17H26zM27,16H28V17H27zM28,16H29V17H28zM29,16H30V17H29zM30,16H31V17H30zM34,16H35V17H34zM35,16H36V17H35zM37,16H38V17H37zM40,16H41V17H40zM2,17H3V18H2zM4,17H5V18H4zM5,17H6V18H5zM6,17H7V18H6zM9,17H10V18H9zM13,17H14V18H13zM14,17H15V18H14zM15,17H16V18H15zM17,17H18V18H17zM18,17H19V18H18zM20,17H21V18H20zM22,17H23V18H22zM23,17H24V18H23zM24,17H25V18H24zM26,17H27V18H26zM28,17H29V18H28zM30,17H31V18H30zM32,17H33V18H32zM35,17H36V18H35zM39,17H40V18H39zM40,17H41V18H40zM42,17H43V18H42zM2,18H3V19H2zM4,18H5V19H4zM6,18H7V19H6zM7,18H8V19H7zM8,18H9V19H8zM11,18H12V19H11zM13,18H14V19H13zM14,18H15V19H14zM18,18H19V19H18zM21,18H22V19H21zM23,18H24V19H23zM25,18H26V19H25zM26,18H27V19H26zM27,18H28V19H27zM29,18H30V19H29zM30,18H31V19H30zM35,18H36V19H35zM37,18H38V19H37zM40,18H41V19H40zM41,18H42V19H41zM2,19H3V20H2zM7,19H8V20H7zM9,19H10V20H9zM10,19H11V20H10zM12,19H13V20H12zM13,19H14V20H13zM14,19H15V20H14zM17,19H18V20H17zM21,19H22V20H21zM22,19H23V20H22zM24,19H25V20H24zM26,19H27V20H26zM29,19H30V20H29zM31,19H32V20H31zM33,19H34V20H33zM34,19H35V20H34zM35,19H36V20H35zM36,19H37V20H36zM37,19H38V20H37zM38,19H39V20H38zM39,19H40V20H39zM40,19H41V20H40zM41,19H42V20H41zM42,19H43V20H42zM2,20H3V21H2zM3,20H4V21H3zM5,20H6V21H5zM6,20H7V21H6zM8,20H9V21H8zM9,20H10V21H9zM11,20H12V21H11zM12,20H13V21H12zM13,20H14V21H13zM17,20H18V21H17zM20,20H21V21H20zM21,20H22V21H21zM23,20H24V21H23zM24,20H25V21H24zM26,20H27V21H26zM29,20H30V21H29zM30,20H31V21H30zM33,20H34V21H33zM36,20H37V21H36zM37,20H38V21H37zM38,20H39V21H38zM42,20H43V21H42zM2,21H3V22H2zM3,21H4V22H3zM4,21H5V22H4zM5,21H6V22H5zM6,21H7V22H6zM7,21H8V22H7zM11,21H12V22H11zM12,21H13V22H12zM13,21H14V22H13zM14,21H15V22H14zM15,21H16V22H15zM17,21H18V22H17zM21,21H22V22H21zM22,21H23V22H22zM23,21H24V22H23zM24,21H25V22H24zM28,21H29V22H28zM30,21H31V22H30zM31,21H32V22H31zM32,21H33V22H32zM33,21H34V22H33zM35,21H36V22H35zM38,21H39V22H38zM39,21H40V22H39zM3,22H4V23H3zM4,22H5V23H4zM7,22H8V23H7zM8,22H9V23H8zM10,22H11V23H10zM11,22H12V23H11zM13,22H14V23H13zM16,22H17V23H16zM18,22H19V23H18zM19,22H20V23H19zM20,22H21V23H20zM21,22H22V23H21zM25,22H26V23H25zM27,22H28V23H27zM29,22H30V23H29zM30,22H31V23H30zM37,22H38V23H37zM39,22H40V23H39zM40,22H41V23H40zM3,23H4V24H3zM5,23H6V24H5zM10,23H11V24H10zM12,23H13V24H12zM13,23H14V24H13zM15,23H16V24H15zM16,23H17V24H16zM18,23H19V24H18zM20,23H21V24H20zM21,23H22V24H21zM25,23H26V24H25zM29,23H30V24H29zM31,23H32V24H31zM32,23H33V24H32zM33,23H34V24H33zM35,23H36V24H35zM38,23H39V24H38zM40,23H41V24H40zM2,24H3V25H2zM5,24H6V25H5zM7,24H8V25H7zM8,24H9V25H8zM9,24H10V25H9zM11,24H12V25H11zM12,24H13V25H12zM15,24H16V25H15zM17,24H18V25H17zM18,24H19V25H18zM21,24H22V25H21zM22,24H23V25H22zM24,24H25V25H24zM26,24H27V25H26zM28,24H29V25H28zM29,24H30V25H29zM30,24H31V25H30zM31,24H32V25H31zM35,24H36V25H35zM37,24H38V25H37zM38,24H39V25H38zM3,25H4V26H3zM6,25H7V26H6zM7,25H8V26H7zM11,25H12V26H11zM12,25H13V26H12zM14,25H15V26H14zM17,25H18V26H17zM21,25H22V26H21zM26,25H27V26H26zM28,25H29V26H28zM29,25H30V26H29zM33,25H34V26H33zM34,25H35V26H34zM35,25H36V26H35zM38,25H39V26H38zM41,25H42V26H41zM5,26H6V27H5zM8,26H9V27H8zM9,26H10V27H9zM10,26H11V27H10zM12,26H13V27H12zM14,26H15V27H14zM17,26H18V27H17zM18,26H19V27H18zM20,26H21V27H20zM21,26H22V27H21zM23,26H24V27H23zM25,26H26V27H25zM28,26H29V27H28zM29,26H30V27H29zM34,26H35V27H34zM36,26H37V27H36zM39,26H40V27H39zM42,26H43V27H42zM3,27H4V28H3zM4,27H5V28H4zM7,27H8V28H7zM9,27H10V28H9zM10,27H11V28H10zM11,27H12V28H11zM13,27H14V28H13zM14,27H15V28H14zM15,27H16V28H15zM18,27H19V28H18zM22,27H23V28H22zM23,27H24V28H23zM26,27H27V28H26zM27,27H28V28H27zM29,27H30V28H29zM30,27H31V28H30zM32,27H33V28H32zM33,27H34V28H33zM35,27H36V28H35zM36,27H37V28H36zM38,27H39V28H38zM39,27H40V28H39zM3,28H4V29H3zM4,28H5V29H4zM7,28H8V29H7zM8,28H9V29H8zM10,28H11V29H10zM11,28H12V29H11zM12,28H13V29H12zM13,28H14V29H13zM14,28H15V29H14zM17,28H18V29H17zM19,28H20V29H19zM20,28H21V29H20zM21,28H22V29H21zM22,28H23V29H22zM23,28H24V29H23zM26,28H27V29H26zM28,28H29V29H28zM29,28H30V29H29zM32,28H33V29H32zM34,28H35V29H34zM38,28H39V29H38zM3,29H4V30H3zM4,29H5V30H4zM5,29H6V30H5zM7,29H8V30H7zM12,29H13V30H12zM17,29H18V30H17zM18,29H19V30H18zM22,29H23V30H22zM24,29H25V30H24zM25,29H26V30H25zM27,29H28V30H27zM28,29H29V30H28zM32,29H33V30H32zM33,29H34V30H33zM35,29H36V30H35zM36,29H37V30H36zM37,29H38V30H37zM38,29H39V30H38zM39,29H40V30H39zM40,29H41V30H40zM41,29H42V30H41zM5,30H6V31H5zM6,30H7V31H6zM8,30H9V31H8zM9,30H10V31H9zM11,30H12V31H11zM13,30H14V31H13zM14,30H15V31H14zM16,30H17V31H16zM19,30H20V31H19zM23,30H24V31H23zM25,30H26V31H25zM28,30H29V31H28zM29,30H30V31H29zM31,30H32V31H31zM32,30H33V31H32zM33,30H34V31H33zM34,30H35V31H34zM35,30H36V31H35zM39,30H40V31H39zM40,30H41V31H40zM2,31H3V32H2zM3,31H4V32H3zM5,31H6V32H5zM9,31H10V32H9zM12,31H13V32H12zM13,31H14V32H13zM14,31H15V32H14zM15,31H16V32H15zM20,31H21V32H20zM23,31H24V32H23zM24,31H25V32H24zM26,31H27V32H26zM27,31H28V32H27zM28,31H29V32H28zM30,31H31V32H30zM31,31H32V32H31zM32,31H33V32H32zM33,31H34V32H33zM36,31H37V32H36zM37,31H38V32H37zM38,31H39V32H38zM41,31H42V32H41zM42,31H43V32H42zM2,32H3V33H2zM3,32H4V33H3zM7,32H8V33H7zM8,32H9V33H8zM9,32H10V33H9zM10,32H11V33H10zM13,32H14V33H13zM17,32H18V33H17zM18,32H19V33H18zM19,32H20V33H19zM20,32H21V33H20zM22,32H23V33H22zM24,32H25V33H24zM28,32H29V33H28zM30,32H31V33H30zM33,32H34V33H33zM35,32H36V33H35zM40,32H41V33H40zM42,32H43V33H42zM2,33H3V34H2zM9,33H10V34H9zM15,33H16V34H15zM16,33H17V34H16zM19,33H20V34H19zM20,33H21V34H20zM23,33H24V34H23zM25,33H26V34H25zM27,33H28V34H27zM29,33H30V34H29zM30,33H31V34H30zM34,33H35V34H34zM36,33H37V34H36zM38,33H39V34H38zM39,33H40V34H39zM2,34H3V35H2zM4,34H5V35H4zM6,34H7V35H6zM8,34H9V35H8zM15,34H16V35H15zM16,34H17V35H16zM17,34H18V35H17zM19,34H20V35H19zM21,34H22V35H21zM23,34H24V35H23zM24,34H25V35H24zM25,34H26V35H25zM27,34H28V35H27zM31,34H32V35H31zM33,34H34V35H33zM34,34H35V35H34zM35,34H36V35H35zM36,34H37V35H36zM37,34H38V35H37zM38,34H39V35H38zM40,34H41V35H40zM41,34H42V35H41zM10,35H11V36H10zM11,35H12V36H11zM12,35H13V36H12zM13,35H14V36H13zM15,35H16V36H15zM18,35H19V36H18zM19,35H20V36H19zM25,35H26V36H25zM26,35H27V36H26zM27,35H28V36H27zM29,35H30V36H29zM32,35H33V36H32zM33,35H34V36H33zM34,35H35V36H34zM38,35H39V36H38zM40,35H41V36H40zM41,35H42V36H41zM2,36H3V37H2zM3,36H4V37H3zM4,36H5V37H4zM5,36H6V37H5zM6,36H7V37H6zM7,36H8V37H7zM8,36H9V37H8zM11,36H12V37H11zM12,36H13V37H12zM13,36H14V37H13zM16,36H17V37H16zM20,36H21V37H20zM21,36H22V37H21zM28,36H29V37H28zM29,36H30V37H29zM30,36H31V37H30zM32,36H33V37H32zM33,36H34V37H33zM34,36H35V37H34zM36,36H37V37H36zM38,36H39V37H38zM40,36H41V37H40zM2,37H3V38H2zM8,37H9V38H8zM10,37H11V38H10zM11,37H12V38H11zM15,37H16V38H15zM17,37H18V38H17zM18,37H19V38H18zM25,37H26V38H25zM28,37H29V38H28zM33,37H34V38H33zM34,37H35V38H34zM38,37H39V38H38zM39,37H40V38H39zM41,37H42V38H41zM2,38H3V39H2zM4,38H5V39H4zM5,38H6V39H5zM6,38H7V39H6zM8,38H9V39H8zM11,38H12V39H11zM12,38H13V39H12zM16,38H17V39H16zM18,38H19V39H18zM21,38H22V39H21zM22,38H23V39H22zM24,38H25V39H24zM25,38H26V39H25zM27,38H28V39H27zM28,38H29V39H28zM31,38H32V39H31zM32,38H33V39H32zM33,38H34V39H33zM34,38H35V39H34zM35,38H36V39H35zM36,38H37V39H36zM37,38H38V39H37zM38,38H39V39H38zM2,39H3V40H2zM4,39H5V40H4zM5,39H6V40H5zM6,39H7V40H6zM8,39H9V40H8zM11,39H12V40H11zM14,39H15V40H14zM15,39H16V40H15zM19,39H20V40H19zM21,39H22V40H21zM22,39H23V40H22zM23,39H24V40H23zM24,39H25V40H24zM27,39H28V40H27zM29,39H30V40H29zM30,39H31V40H30zM31,39H32V40H31zM33,39H34V40H33zM34,39H35V40H34zM37,39H38V40H37zM39,39H40V40H39zM40,39H41V40H40zM41,39H42V40H41zM42,39H43V40H42zM2,40H3V41H2zM4,40H5V41H4zM5,40H6V41H5zM6,40H7V41H6zM8,40H9V41H8zM11,40H12V41H11zM12,40H13V41H12zM16,40H17V41H16zM17,40H18V41H17zM18,40H19V41H18zM19,40H20V41H19zM20,40H21V41H20zM21,40H22V41H21zM24,40H25V41H24zM25,40H26V41H25zM26,40H27V41H26zM27,40H28V41H27zM29,40H30V41H29zM30,40H31V41H30zM31,40H32V41H31zM35,40H36V41H35zM36,40H37V41H36zM37,40H38V41H37zM38,40H39V41H38zM39,40H40V41H39zM41,40H42V41H41zM2,41H3V42H2zM8,41H9V42H8zM13,41H14V42H13zM17,41H18V42H17zM18,41H19V42H18zM19,41H20V42H19zM21,41H22V42H21zM22,41H23V42H22zM25,41H26V42H25zM26,41H27V42H26zM27,41H28V42H27zM28,41H29V42H28zM29,41H30V42H29zM36,41H37V42H36zM38,41H39V42H38zM40,41H41V42H40zM42,41H43V42H42zM2,42H3V43H2zM3,42H4V43H3zM4,42H5V43H4zM5,42H6V43H5zM6,42H7V43H6zM7,42H8V43H7zM8,42H9V43H8zM11,42H12V43H11zM12,42H13V43H12zM14,42H15V43H14zM16,42H17V43H16zM17,42H18V43H17zM27,42H28V43H27zM28,42H29V43H28zM31,42H32V43H31zM35,42H36V43H35zM36,42H37V43H36zM37,42H38V43H37zM38,42H39V43H38zM39,42H40V43H39zM40,42H41V43H40z" id="qr-path" fill="#000000" fill-opacity="1" fill-rule="nonzero" stroke="none" /></svg>