<?xml version='1.0' encoding='UTF-8'?>
<svg width="90mm" height="90mm" version="1.1" viewBox="0 0 90 90" xmlns="http://www.w3.org/2000/svg"><path d="M4,4H6V6H4zM6,4H8V6H6zM8,4H10V6H8zM10,4H12V6H10zM12,4H14V6H12zM14,4H16V6H14zM16,4H18V6H16zM20,4H22V6H20zM24,4H26V6H24zM28,4H30V6H28zM32,4H34V6H32zM34,4H36V6H34zM36,4H38V6H36zM40,4H42V6H40zM42,4H44V6H42zM44,4H46V6H44zM46,4H48V6H46zM52,4H54V6H52zM56,4H58V6H56zM58,4H60V6H58zM62,4H64V6H62zM66,4H68V6H66zM72,4H74V6H72zM74,4H76V6H74zM76,4H78V6H76zM78,4H80V6H78zM80,4H82V6H80zM82,4H84V6H82zM84,4H86V6H84zM4,6H6V8H4zM16,6H18V8H16zM22,6H24V8H22zM26,6H28V8H26zM28,6H30V8H28zM30,6H32V8H30zM40,6H42V8H40zM42,6H44V8H42zM46,6H48V8H46zM48,6H50V8H48zM50,6H52V8H50zM52,6H54V8H52zM54,6H56V8H54zM58,6H60V8H58zM60,6H62V8H60zM62,6H64V8H62zM64,6H66V8H64zM66,6H68V8H66zM68,6H70V8H68zM72,6H74V8H72zM84,6H86V8H84zM4,8H6V10H4zM8,8H10V10H8zM10,8H12V10H10zM12,8H14V10H12zM16,8H18V10H16zM22,8H24V10H22zM24,8H26V10H24zM28,8H30V10H28zM30,8H32V10H30zM32,8H34V10H32zM34,8H36V10H34zM42,8H44V10H42zM44,8H46V10H44zM52,8H54V10H52zM60,8H62V10H60zM66,8H68V10H66zM68,8H70V10H68zM72,8H74V10H72zM76,8H78V10H76zM78,8H80V10H78zM80,8H82V10H80zM84,8H86V10H84zM4,10H6V12H4zM8,10H10V12H8zM10,10H12V12H10zM12,10H14V12H12zM16,10H18V12H16zM20,10H22V12H20zM30,10H32V12H30zM34,10H36V12H34zM36,10H38V12H36zM38,10H40V12H38zM50,10H52V12H50zM54,10H56V12H54zM66,10H68V12H66zM72,10H74V12H72zM76,10H78V12H76zM78,10H80V12H78zM80,10H82V12H80zM84,10H86V12H84zM4,12H6V14H4zM8,12H10V14H8zM10,12H12V14H10zM12,12H14V14H12zM16,12H18V14H16zM26,12H28V14H26zM30,12H32V14H30zM32,12H34V14H32zM36,12H38V14H36zM38,12H40V14H38zM52,12H54V14H52zM58,12H60V14H58zM66,12H68V14H66zM72,12H74V14H72zM76,12H78V14H76zM78,12H80V14H78zM80,12H82V14H80zM84,12H86V14H84zM4,14H6V16H4zM16,14H18V16H16zM22,14H24V16H22zM24,14H26V16H24zM28,14H30V16H28zM30,14H32V16H30zM34,14H36V16H34zM38,14H40V16H38zM44,14H46V16H44zM46,14H48V16H46zM48,14H50V16H48zM58,14H60V16H58zM60,14H62V16H60zM64,14H66V16H64zM66,14H68V16H66zM72,14H74V16H72zM84,14H86V16H84zM4,16H6V18H4zM6,16H8V18H6zM8,16H10V18H8zM10,16H12V18H10zM12,16H14V18H12zM14,16H16V18H14zM16,16H18V18H16zM20,16H22V18H20zM24,16H26V18H24zM28,16H30V18H28zM32,16H34V18H32zM36,16H38V18H36zM40,16H42V18H40zM44,16H46V18H44zM48,16H50V18H48zM52,16H54V18H52zM56,16H58V18H56zM60,16H62V18H60zM64,16H66V18H64zM68,16H70V18H68zM72,16H74V18H72zM74,16H76V18H74zM76,16H78V18H76zM78,16H80V18H78zM80,16H82V18H80zM82,16H84V18H82zM84,16H86V18H84zM22,18H24V20H22zM24,18H26V20H24zM32,18H34V20H32zM34,18H36V20H34zM44,18H46V20H44zM46,18H48V20H46zM54,18H56V20H54zM58,18H60V20H58zM62,18H64V20H62zM64,18H66V20H64zM68,18H70V20H68zM8,20H10V22H8zM12,20H14V22H12zM14,20H16V22H14zM16,20H18V22H16zM20,20H22V22H20zM26,20H28V22H26zM28,20H30V22H28zM36,20H38V22H36zM38,20H40V22H38zM44,20H46V22H44zM46,20H48V22H46zM48,20H50V22H48zM52,20H54V22H52zM54,20H56V22H54zM56,20H58V22H56zM58,20H60V22H58zM60,20H62V22H60zM62,20H64V22H62zM66,20H68V22H66zM68,20H70V22H68zM70,20H72V22H70zM78,20H80V22H78zM84,20H86V22H84zM4,22H6V24H4zM6,22H8V24H6zM10,22H12V24H10zM12,22H14V24H12zM18,22H20V24H18zM20,22H22V24H20zM22,22H24V24H22zM28,22H30V24H28zM36,22H38V24H36zM40,22H42V24H40zM46,22H48V24H46zM48,22H50V24H48zM60,22H62V24H60zM68,22H70V24H68zM70,22H72V24H70zM72,22H74V24H72zM74,22H76V24H74zM78,22H80V24H78zM80,22H82V24H80zM82,22H84V24H82zM6,24H8V26H6zM14,24H16V26H14zM16,24H18V26H16zM22,24H24V26H22zM24,24H26V26H24zM28,24H30V26H28zM36,24H38V26H36zM38,24H40V26H38zM46,24H48V26H46zM52,24H54V26H52zM54,24H56V26H54zM62,24H64V26H62zM70,24H72V26H70zM76,24H78V26H76zM80,24H82V26H80zM82,24H84V26H82zM84,24H86V26H84zM4,26H6V28H4zM8,26H10V28H8zM10,26H12V28H10zM14,26H16V28H14zM20,26H22V28H20zM22,26H24V28H22zM28,26H30V28H28zM32,26H34V28H32zM40,26H42V28H40zM46,26H48V28H46zM48,26H50V28H48zM52,26H54V28H52zM56,26H58V28H56zM62,26H64V28H62zM68,26H70V28H68zM74,26H76V28H74zM4,28H6V30H4zM6,28H8V30H6zM10,28H12V30H10zM12,28H14V30H12zM14,28H16V30H14zM16,28H18V30H16zM20,28H22V30H20zM22,28H24V30H22zM26,28H28V30H26zM28,28H30V30H28zM32,28H34V30H32zM34,28H36V30H34zM36,28H38V30H36zM38,28H40V30H38zM40,28H42V30H40zM42,28H44V30H42zM46,28H48V30H46zM48,28H50V30H48zM54,28H56V30H54zM56,28H58V30H56zM60,28H62V30H60zM62,28H64V30H62zM66,28H68V30H66zM68,28H70V30H68zM72,28H74V30H72zM74,28H76V30H74zM78,28H80V30H78zM82,28H84V30H82zM4,30H6V32H4zM6,30H8V32H6zM10,30H12V32H10zM18,30H20V32H18zM20,30H22V32H20zM22,30H24V32H22zM26,30H28V32H26zM34,30H36V32H34zM36,30H38V32H36zM40,30H42V32H40zM42,30H44V32H42zM46,30H48V32H46zM50,30H52V32H50zM52,30H54V32H52zM54,30H56V32H54zM58,30H60V32H58zM60,30H62V32H60zM62,30H64V32H62zM72,30H74V32H72zM78,30H80V32H78zM82,30H84V32H82zM84,30H86V32H84zM14,32H16V34H14zM16,32H18V34H16zM20,32H22V34H20zM24,32H26V34H24zM26,32H28V34H26zM32,32H34V34H32zM36,32H38V34H36zM38,32H40V34H38zM42,32H44V34H42zM48,32H50V34H48zM50,32H52V34H50zM54,32H56V34H54zM56,32H58V34H56zM58,32H60V34H58zM60,32H62V34H60zM62,32H64V34H62zM64,32H66V34H64zM72,32H74V34H72zM78,32H80V34H78zM84,32H86V34H84zM4,34H6V36H4zM10,34H12V36H10zM14,34H16V36H14zM18,34H20V36H18zM22,34H24V36H22zM26,34H28V36H26zM30,34H32V36H30zM34,34H36V36H34zM38,34H40V36H38zM40,34H42V36H40zM44,34H46V36H44zM46,34H48V36H46zM56,34H58V36H56zM60,34H62V36H60zM62,34H64V36H62zM64,34H66V36H64zM72,34H74V36H72zM76,34H78V36H76zM4,36H6V38H4zM8,36H10V38H8zM10,36H12V38H10zM16,36H18V38H16zM20,36H22V38H20zM22,36H24V38H22zM26,36H28V38H26zM30,36H32V38H30zM32,36H34V38H32zM34,36H36V38H34zM38,36H40V38H38zM42,36H44V38H42zM44,36H46V38H44zM48,36H50V38H48zM54,36H56V38H54zM56,36H58V38H56zM58,36H60V38H58zM60,36H62V38H60zM62,36H64V38H62zM72,36H74V38H72zM74,36H76V38H74zM6,38H8V40H6zM10,38H12V40H10zM18,38H20V40H18zM22,38H24V40H22zM24,38H26V40H24zM26,38H28V40H26zM30,38H32V40H30zM32,38H34V40H32zM40,38H42V40H40zM42,38H44V40H42zM44,38H46V40H44zM50,38H52V40H50zM52,38H54V40H52zM56,38H58V40H56zM60,38H62V40H60zM68,38H70V40H68zM72,38H74V40H72zM80,38H82V40H80zM82,38H84V40H82zM84,38H86V40H84zM4,40H6V42H4zM6,40H8V42H6zM12,40H14V42H12zM16,40H18V42H16zM18,40H20V42H18zM22,40H24V42H22zM26,40H28V42H26zM28,40H30V42H28zM30,40H32V42H30zM40,40H42V42H40zM42,40H44V42H42zM44,40H46V42H44zM46,40H48V42H46zM50,40H52V42H50zM52,40H54V42H52zM64,40H66V42H64zM70,40H72V42H70zM72,40H74V42H72zM76,40H78V42H76zM82,40H84V42H82zM84,40H86V42H84zM4,42H6V44H4zM6,42H8V44H6zM8,42H10V44H8zM14,42H16V44H14zM20,42H22V44H20zM24,42H26V44H24zM30,42H32V44H30zM34,42H36V44H34zM38,42H40V44H38zM50,42H52V44H50zM60,42H62V44H60zM62,42H64V44H62zM66,42H68V44H66zM70,42H72V44H70zM74,42H76V44H74zM82,42H84V44H82zM84,42H86V44H84zM8,44H10V46H8zM10,44H12V46H10zM12,44H14V46H12zM16,44H18V46H16zM18,44H20V46H18zM22,44H24V46H22zM26,44H28V46H26zM38,44H40V46H38zM40,44H42V46H40zM42,44H44V46H42zM44,44H46V46H44zM46,44H48V46H46zM48,44H50V46H48zM50,44H52V46H50zM52,44H54V46H52zM54,44H56V46H54zM58,44H60V46H58zM60,44H62V46H60zM64,44H66V46H64zM68,44H70V46H68zM70,44H72V46H70zM72,44H74V46H72zM82,44H84V46H82zM8,46H10V48H8zM12,46H14V48H12zM14,46H16V48H14zM18,46H20V48H18zM28,46H30V48H28zM30,46H32V48H30zM34,46H36V48H34zM38,46H40V48H38zM42,46H44V48H42zM44,46H46V48H44zM46,46H48V48H46zM48,46H50V48H48zM60,46H62V48H60zM72,46H74V48H72zM74,46H76V48H74zM82,46H84V48H82zM84,46H86V48H84zM6,48H8V50H6zM14,48H16V50H14zM16,48H18V50H16zM20,48H22V50H20zM24,48H26V50H24zM26,48H28V50H26zM34,48H36V50H34zM36,48H38V50H36zM38,48H40V50H38zM40,48H42V50H40zM42,48H44V50H42zM44,48H46V50H44zM48,48H50V50H48zM50,48H52V50H50zM52,48H54V50H52zM60,48H62V50H60zM62,48H64V50H62zM70,48H72V50H70zM76,48H78V50H76zM78,48H80V50H78zM82,48H84V50H82zM84,48H86V50H84zM4,50H6V52H4zM8,50H10V52H8zM10,50H12V52H10zM12,50H14V52H12zM20,50H22V52H20zM22,50H24V52H22zM24,50H26V52H24zM26,50H28V52H26zM28,50H30V52H28zM36,50H38V52H36zM46,50H48V52H46zM52,50H54V52H52zM54,50H56V52H54zM56,50H58V52H56zM58,50H60V52H58zM60,50H62V52H60zM62,50H64V52H62zM64,50H66V52H64zM66,50H68V52H66zM72,50H74V52H72zM74,50H76V52H74zM82,50H84V52H82zM84,50H86V52H84zM6,52H8V54H6zM8,52H10V54H8zM16,52H18V54H16zM22,52H24V54H22zM24,52H26V54H24zM26,52H28V54H26zM28,52H30V54H28zM34,52H36V54H34zM36,52H38V54H36zM38,52H40V54H38zM42,52H44V54H42zM44,52H46V54H44zM48,52H50V54H48zM50,52H52V54H50zM52,52H54V54H52zM54,52H56V54H54zM58,52H60V54H58zM62,52H64V54H62zM66,52H68V54H66zM68,52H70V54H68zM72,52H74V54H72zM74,52H76V54H74zM80,52H82V54H80zM82,52H84V54H82zM84,52H86V54H84zM8,54H10V56H8zM10,54H12V56H10zM14,54H16V56H14zM18,54H20V56H18zM20,54H22V56H20zM30,54H32V56H30zM32,54H34V56H32zM34,54H36V56H34zM38,54H40V56H38zM44,54H46V56H44zM46,54H48V56H46zM48,54H50V56H48zM50,54H52V56H50zM52,54H54V56H52zM56,54H58V56H56zM60,54H62V56H60zM62,54H64V56H62zM72,54H74V56H72zM84,54H86V56H84zM8,56H10V58H8zM12,56H14V58H12zM16,56H18V58H16zM18,56H20V58H18zM22,56H24V58H22zM24,56H26V58H24zM26,56H28V58H26zM30,56H32V58H30zM32,56H34V58H32zM38,56H40V58H38zM40,56H42V58H40zM46,56H48V58H46zM48,56H50V58H48zM50,56H52V58H50zM52,56H54V58H52zM60,56H62V58H60zM72,56H74V58H72zM76,56H78V58H76zM80,56H82V58H80zM84,56H86V58H84zM4,58H6V60H4zM8,58H10V60H8zM12,58H14V60H12zM22,58H24V60H22zM24,58H26V60H24zM28,58H30V60H28zM30,58H32V60H30zM32,58H34V60H32zM38,58H40V60H38zM40,58H42V60H40zM42,58H44V60H42zM44,58H46V60H44zM48,58H50V60H48zM54,58H56V60H54zM58,58H60V60H58zM60,58H62V60H60zM62,58H64V60H62zM64,58H66V60H64zM68,58H70V60H68zM74,58H76V60H74zM82,58H84V60H82zM6,60H8V62H6zM8,60H10V62H8zM10,60H12V62H10zM14,60H16V62H14zM16,60H18V62H16zM18,60H20V62H18zM20,60H22V62H20zM22,60H24V62H22zM32,60H34V62H32zM34,60H36V62H34zM46,60H48V62H46zM52,60H54V62H52zM62,60H64V62H62zM66,60H68V62H66zM72,60H74V62H72zM78,60H80V62H78zM82,60H84V62H82zM84,60H86V62H84zM6,62H8V64H6zM10,62H12V64H10zM12,62H14V64H12zM14,62H16V64H14zM24,62H26V64H24zM30,62H32V64H30zM34,62H36V64H34zM36,62H38V64H36zM40,62H42V64H40zM42,62H44V64H42zM46,62H48V64H46zM48,62H50V64H48zM52,62H54V64H52zM56,62H58V64H56zM58,62H60V64H58zM62,62H64V64H62zM64,62H66V64H64zM72,62H74V64H72zM80,62H82V64H80zM84,62H86V64H84zM4,64H6V66H4zM8,64H10V66H8zM10,64H12V66H10zM16,64H18V66H16zM18,64H20V66H18zM20,64H22V66H20zM22,64H24V66H22zM28,64H30V66H28zM38,64H40V66H38zM46,64H48V66H46zM48,64H50V66H48zM50,64H52V66H50zM52,64H54V66H52zM56,64H58V66H56zM74,64H76V66H74zM76,64H78V66H76zM78,64H80V66H78zM82,64H84V66H82zM84,64H86V66H84zM6,66H8V68H6zM10,66H12V68H10zM18,66H20V68H18zM20,66H22V68H20zM24,66H26V68H24zM26,66H28V68H26zM30,66H32V68H30zM32,66H34V68H32zM34,66H36V68H34zM36,66H38V68H36zM40,66H42V68H40zM42,66H44V68H42zM44,66H46V68H44zM48,66H50V68H48zM50,66H52V68H50zM52,66H54V68H52zM54,66H56V68H54zM58,66H60V68H58zM62,66H64V68H62zM64,66H66V68H64zM66,66H68V68H66zM68,66H70V68H68zM70,66H72V68H70zM72,66H74V68H72zM82,66H84V68H82zM84,66H86V68H84zM4,68H6V70H4zM8,68H10V70H8zM12,68H14V70H12zM16,68H18V70H16zM22,68H24V70H22zM26,68H28V70H26zM28,68H30V70H28zM32,68H34V70H32zM34,68H36V70H34zM40,68H42V70H40zM46,68H48V70H46zM56,68H58V70H56zM62,68H64V70H62zM68,68H70V70H68zM70,68H72V70H70zM72,68H74V70H72zM74,68H76V70H74zM76,68H78V70H76zM78,68H80V70H78zM82,68H84V70H82zM84,68H86V70H84zM20,70H22V72H20zM24,70H26V72H24zM26,70H28V72H26zM32,70H34V72H32zM34,70H36V72H34zM36,70H38V72H36zM38,70H40V72H38zM40,70H42V72H40zM42,70H44V72H42zM44,70H46V72H44zM48,70H50V72H48zM50,70H52V72H50zM52,70H54V72H52zM54,70H56V72H54zM58,70H60V72H58zM60,70H62V72H60zM64,70H66V72H64zM66,70H68V72H66zM68,70H70V72H68zM76,70H78V72H76zM78,70H80V72H78zM82,70H84V72H82zM84,70H86V72H84zM4,72H6V74H4zM6,72H8V74H6zM8,72H10V74H8zM10,72H12V74H10zM12,72H14V74H12zM14,72H16V74H14zM16,72H18V74H16zM22,72H24V74H22zM24,72H26V74H24zM30,72H32V74H30zM32,72H34V74H32zM34,72H36V74H34zM36,72H38V74H36zM38,72H40V74H38zM40,72H42V74H40zM44,72H46V74H44zM48,72H50V74H48zM50,72H52V74H50zM52,72H54V74H52zM54,72H56V74H54zM60,72H62V74H60zM62,72H64V74H62zM66,72H68V74H66zM68,72H70V74H68zM72,72H74V74H72zM76,72H78V74H76zM78,72H80V74H78zM80,72H82V74H80zM82,72H84V74H82zM84,72H86V74H84zM4,74H6V76H4zM16,74H18V76H16zM20,74H22V76H20zM26,74H28V76H26zM30,74H32V76H30zM32,74H34V76H32zM38,74H40V76H38zM40,74H42V76H40zM42,74H44V76H42zM44,74H46V76H44zM46,74H48V76H46zM52,74H54V76H52zM54,74H56V76H54zM58,74H60V76H58zM60,74H62V76H60zM68,74H70V76H68zM76,74H78V76H76zM84,74H86V76H84zM4,76H6V78H4zM8,76H10V78H8zM10,76H12V78H10zM12,76H14V78H12zM16,76H18V78H16zM20,76H22V78H20zM24,76H26V78H24zM28,76H30V78H28zM30,76H32V78H30zM32,76H34V78H32zM34,76H36V78H34zM36,76H38V78H36zM56,76H58V78H56zM60,76H62V78H60zM68,76H70V78H68zM70,76H72V78H70zM72,76H74V78H72zM74,76H76V78H74zM76,76H78V78H76zM78,76H80V78H78zM82,76H84V78H82zM4,78H6V80H4zM8,78H10V80H8zM10,78H12V80H10zM12,78H14V80H12zM16,78H18V80H16zM22,78H24V80H22zM28,78H30V80H28zM30,78H32V80H30zM32,78H34V80H32zM34,78H36V80H34zM36,78H38V80H36zM40,78H42V80H40zM50,78H52V80H50zM60,78H62V80H60zM68,78H70V80H68zM70,78H72V80H70zM76,78H78V80H76zM78,78H80V80H78zM84,78H86V80H84zM4,80H6V82H4zM8,80H10V82H8zM10,80H12V82H10zM12,80H14V82H12zM16,80H18V82H16zM20,80H22V82H20zM22,80H24V82H22zM30,80H32V82H30zM34,80H36V82H34zM40,80H42V82H40zM48,80H50V82H48zM50,80H52V82H50zM52,80H54V82H52zM54,80H56V82H54zM60,80H62V82H60zM62,80H64V82H62zM66,80H68V82H66zM74,80H76V82H74zM76,80H78V82H76zM84,80H86V82H84zM4,82H6V84H4zM16,82H18V84H16zM26,82H28V84H26zM28,82H30V84H28zM32,82H34V84H32zM36,82H38V84H36zM42,82H44V84H42zM56,82H58V84H56zM58,82H60V84H58zM60,82H62V84H60zM62,82H64V84H62zM64,82H66V84H64zM68,82H70V84H68zM70,82H72V84H70zM74,82H76V84H74zM78,82H80V84H78zM82,82H84V84H82zM4,84H6V86H4zM6,84H8V86H6zM8,84H10V86H8zM10,84H12V86H10zM12,84H14V86H12zM14,84H16V86H14zM16,84H18V86H16zM26,84H28V86H26zM28,84H30V86H28zM30,84H32V86H30zM32,84H34V86H32zM34,84H36V86H34zM38,84H40V86H38zM42,84H44V86H42zM48,84H50V86H48zM60,84H62V86H60zM62,84H64V86H62zM66,84H68V86H66zM68,84H70V86H68zM74,84H76V86H74zM76,84H78V86H76zM78,84H80V86H78zM82,84H84V86H82zM84,84H86V86H84z" id="qr-path" fill="#000000" fill-opacity="1" fill-rule="nonzero" stroke="none" /></svg>